<svg xmlns="http://www.w3.org/2000/svg" viewBox="0 0 500 500"><g id="freepik--background-complete--inject-55"><rect x="416.78" y="398.49" width="33.12" height="0.25" style="fill:#ebebeb"></rect><rect x="322.53" y="401.21" width="8.69" height="0.25" style="fill:#ebebeb"></rect><rect x="396.59" y="389.21" width="19.19" height="0.25" style="fill:#ebebeb"></rect><rect x="52.46" y="390.89" width="43.19" height="0.25" style="fill:#ebebeb"></rect><rect x="104.56" y="390.89" width="6.33" height="0.25" style="fill:#ebebeb"></rect><rect x="131.47" y="395.11" width="93.68" height="0.25" style="fill:#ebebeb"></rect><path d="M238.4,337.8H45.3a5.71,5.71,0,0,1-5.71-5.71V60.66A5.71,5.71,0,0,1,45.3,55H238.4a5.71,5.71,0,0,1,5.71,5.71V332.09A5.71,5.71,0,0,1,238.4,337.8ZM45.3,55.2a5.47,5.47,0,0,0-5.46,5.46V332.09a5.47,5.47,0,0,0,5.46,5.46H238.4a5.47,5.47,0,0,0,5.46-5.46V60.66a5.47,5.47,0,0,0-5.46-5.46Z" style="fill:#ebebeb"></path><path d="M454.7,337.8H261.6a5.71,5.71,0,0,1-5.71-5.71V60.66A5.71,5.71,0,0,1,261.6,55H454.7a5.71,5.71,0,0,1,5.71,5.71V332.09A5.71,5.71,0,0,1,454.7,337.8ZM261.6,55.2a5.47,5.47,0,0,0-5.46,5.46V332.09a5.47,5.47,0,0,0,5.46,5.46H454.7a5.47,5.47,0,0,0,5.46-5.46V60.66a5.47,5.47,0,0,0-5.46-5.46Z" style="fill:#ebebeb"></path><rect y="382.4" width="500" height="0.25" style="fill:#ebebeb"></rect><path d="M135.3,179.58A41.59,41.59,0,1,1,176.89,138,41.64,41.64,0,0,1,135.3,179.58Zm0-75.17A33.59,33.59,0,1,0,168.89,138,33.63,33.63,0,0,0,135.3,104.41Z" style="fill:#ebebeb"></path><path d="M135.3,164.34A26.35,26.35,0,1,1,161.65,138,26.38,26.38,0,0,1,135.3,164.34Zm0-44.69A18.35,18.35,0,1,0,153.65,138,18.36,18.36,0,0,0,135.3,119.65Z" style="fill:#ebebeb"></path><circle cx="135.3" cy="137.99" r="10.4" style="fill:#ebebeb"></circle><path d="M397.26,355.75a41.58,41.58,0,1,1,41.59-41.58A41.63,41.63,0,0,1,397.26,355.75Zm0-75.16a33.58,33.58,0,1,0,33.59,33.58A33.62,33.62,0,0,0,397.26,280.59Z" style="fill:#f0f0f0"></path><path d="M397.26,340.51a26.34,26.34,0,1,1,26.35-26.34A26.37,26.37,0,0,1,397.26,340.51Zm0-44.68a18.34,18.34,0,1,0,18.35,18.34A18.36,18.36,0,0,0,397.26,295.83Z" style="fill:#f0f0f0"></path><circle cx="397.27" cy="314.17" r="10.4" style="fill:#f0f0f0"></circle><path d="M129.71,326.51a28,28,0,0,0-.52-5.38l5.57-4.07a34.17,34.17,0,0,0-3-7.16L125,311a28.12,28.12,0,0,0-7.61-7.61l1.06-6.82a34.17,34.17,0,0,0-7.16-3l-4.07,5.57a28.09,28.09,0,0,0-10.76,0l-4.07-5.57a34.3,34.3,0,0,0-7.15,3l1.06,6.82A28.12,28.12,0,0,0,78.67,311l-6.82-1.06a33.64,33.64,0,0,0-3,7.16l5.57,4.07a27.57,27.57,0,0,0,0,10.76L68.89,336a33.86,33.86,0,0,0,3,7.16l6.82-1.06a28.12,28.12,0,0,0,7.61,7.61l-1.06,6.81a33.8,33.8,0,0,0,7.15,3l4.07-5.57a28.09,28.09,0,0,0,10.76,0l4.07,5.57a33.67,33.67,0,0,0,7.16-3l-1.06-6.81a28.12,28.12,0,0,0,7.61-7.61l6.82,1.06a34.39,34.39,0,0,0,3-7.16l-5.57-4.07A28,28,0,0,0,129.71,326.51Zm-27.89,13.75a13.75,13.75,0,1,1,13.75-13.75A13.76,13.76,0,0,1,101.82,340.26Z" style="fill:#ebebeb"></path><path d="M427.33,109.19a28,28,0,0,0-.53-5.38l5.57-4.07a34.07,34.07,0,0,0-3-7.16l-6.82,1.07A28,28,0,0,0,415,86L416,79.22a34.34,34.34,0,0,0-7.15-3l-4.07,5.58a27.57,27.57,0,0,0-10.76,0L390,76.25a34.19,34.19,0,0,0-7.16,3L383.89,86a28,28,0,0,0-7.61,7.61l-6.82-1.07a34.61,34.61,0,0,0-3,7.16l5.57,4.07a28.09,28.09,0,0,0,0,10.76l-5.57,4.07a34.17,34.17,0,0,0,3,7.16l6.82-1.06a28.12,28.12,0,0,0,7.61,7.61l-1.06,6.82a34.17,34.17,0,0,0,7.16,3l4.07-5.57a28.09,28.09,0,0,0,10.76,0l4.07,5.57a34.3,34.3,0,0,0,7.15-3L415,132.35a28.12,28.12,0,0,0,7.61-7.61l6.82,1.06a33.64,33.64,0,0,0,3-7.16l-5.57-4.07A28,28,0,0,0,427.33,109.19Zm-27.89,13.75a13.75,13.75,0,1,1,13.75-13.75A13.74,13.74,0,0,1,399.44,122.94Z" style="fill:#f0f0f0"></path><path d="M378.84,154a14,14,0,0,0-.26-2.69l2.79-2a16.59,16.59,0,0,0-1.49-3.58l-3.4.53a14.06,14.06,0,0,0-3.81-3.8l.53-3.41a17.08,17.08,0,0,0-3.58-1.48l-2,2.78a14,14,0,0,0-5.38,0l-2-2.78a17.08,17.08,0,0,0-3.58,1.48l.53,3.41a14,14,0,0,0-3.8,3.8l-3.41-.53a17.08,17.08,0,0,0-1.48,3.58l2.78,2a14,14,0,0,0,0,5.38l-2.78,2a17.08,17.08,0,0,0,1.48,3.58l3.41-.53a14,14,0,0,0,3.8,3.8l-.53,3.41a17.11,17.11,0,0,0,3.58,1.49l2-2.79a14,14,0,0,0,5.38,0l2,2.79A17.11,17.11,0,0,0,373.2,169l-.53-3.41a14.06,14.06,0,0,0,3.81-3.8l3.4.53a16.59,16.59,0,0,0,1.49-3.58l-2.79-2A14,14,0,0,0,378.84,154Zm-13.94,6.87a6.88,6.88,0,1,1,6.87-6.87A6.88,6.88,0,0,1,364.9,160.86Z" style="fill:#f0f0f0"></path></g><g id="freepik--Shadow--inject-55"><ellipse id="freepik--path--inject-55" cx="250" cy="412.39" rx="193.89" ry="11.32" style="fill:#f5f5f5"></ellipse></g><g id="freepik--device-4--inject-55"><path d="M191.18,117.32h10.18l10.25,117.25H201.44a9.5,9.5,0,0,1-9.28-8.54l-8.77-100.17A7.7,7.7,0,0,1,191.18,117.32Z" style="fill:#62D464"></path><path d="M184.88,129.08a.91.91,0,0,0-.89-.82.74.74,0,0,0-.74.82l.69,7.86a.89.89,0,0,0,.88.81.73.73,0,0,0,.75-.81Z" style="fill:#62D464"></path><path d="M184.88,129.08a.91.91,0,0,0-.89-.82.74.74,0,0,0-.74.82l.69,7.86a.89.89,0,0,0,.88.81.73.73,0,0,0,.75-.81Z" style="fill:#fff;opacity:0.5"></path><path d="M203.52,234.57h41.92a7.7,7.7,0,0,0,7.79-8.54l-8.77-100.17a9.5,9.5,0,0,0-9.28-8.54H193.27a7.69,7.69,0,0,0-7.79,8.54L194.24,226A9.5,9.5,0,0,0,203.52,234.57Z" style="fill:#62D464"></path><path d="M203.52,234.57h41.92a7.7,7.7,0,0,0,7.79-8.54l-8.77-100.17a9.5,9.5,0,0,0-9.28-8.54H193.27a7.69,7.69,0,0,0-7.79,8.54L194.24,226A9.5,9.5,0,0,0,203.52,234.57Z" style="fill:#fff;opacity:0.5"></path><path d="M193.44,119.28h10.89a1.59,1.59,0,0,1,1.52,1.24l.07.34a3.86,3.86,0,0,0,3.7,3H220a3.1,3.1,0,0,0,3.17-3l0-.34a1.27,1.27,0,0,1,1.3-1.24h10.89a7.32,7.32,0,0,1,7.15,6.58L251.27,226a5.93,5.93,0,0,1-6,6.58H203.35A7.32,7.32,0,0,1,196.2,226l-8.77-100.17A5.94,5.94,0,0,1,193.44,119.28Z" style="fill:#fff"></path><path d="M217,120.39a.92.92,0,0,0,.9.83.75.75,0,0,0,.76-.83.92.92,0,0,0-.9-.83A.75.75,0,0,0,217,120.39Z" style="fill:#263238"></path><path d="M211.05,119.56h2.85a.93.93,0,0,1,.91.83.75.75,0,0,1-.76.83H211.2a.93.93,0,0,1-.91-.83A.75.75,0,0,1,211.05,119.56Z" style="fill:#263238"></path><polygon points="248.29 192.33 193.22 192.33 188.41 137.27 243.47 137.27 248.29 192.33" style="fill:#263238"></polygon><path d="M199.85,130.73a4,4,0,0,1-4.09,4.48,5,5,0,0,1-4.87-4.48,4,4,0,0,1,4.09-4.48A5,5,0,0,1,199.85,130.73Z" style="fill:#263238"></path><path d="M236.83,132.79h-8.6a2.29,2.29,0,0,1-2.24-2.06h0a1.86,1.86,0,0,1,1.88-2.06h8.6a2.29,2.29,0,0,1,2.24,2.06h0A1.86,1.86,0,0,1,236.83,132.79Z" style="fill:#263238"></path><path d="M218,200h-18.4a2.19,2.19,0,0,1-2.15-2h0a1.77,1.77,0,0,1,1.8-2h18.41a2.2,2.2,0,0,1,2.15,2h0A1.79,1.79,0,0,1,218,200Z" style="fill:#263238"></path><path d="M242,207.75H200.3a2.21,2.21,0,0,1-2.15-2h0a1.79,1.79,0,0,1,1.81-2h41.7a2.21,2.21,0,0,1,2.16,2h0A1.79,1.79,0,0,1,242,207.75Z" style="fill:#263238"></path><path d="M232.1,213.77H200.83a2.21,2.21,0,0,1-2.15-2h0a1.78,1.78,0,0,1,1.8-2h31.28a2.21,2.21,0,0,1,2.15,2h0A1.79,1.79,0,0,1,232.1,213.77Z" style="fill:#263238"></path><path d="M238.16,219.79h-36.8a2.19,2.19,0,0,1-2.15-2h0a1.78,1.78,0,0,1,1.8-2h36.81a2.21,2.21,0,0,1,2.15,2h0A1.79,1.79,0,0,1,238.16,219.79Z" style="fill:#263238"></path><path d="M213.15,225.81H201.88a2.21,2.21,0,0,1-2.15-2h0a1.79,1.79,0,0,1,1.81-2H212.8a2.19,2.19,0,0,1,2.15,2h0A1.78,1.78,0,0,1,213.15,225.81Z" style="fill:#263238"></path><polygon points="248.29 192.33 193.22 192.33 188.41 137.27 243.47 137.27 248.29 192.33" style="fill:#fff;opacity:0.9"></polygon><path d="M199.85,130.73a4,4,0,0,1-4.09,4.48,5,5,0,0,1-4.87-4.48,4,4,0,0,1,4.09-4.48A5,5,0,0,1,199.85,130.73Z" style="fill:#fff;opacity:0.9"></path><path d="M236.83,132.79h-8.6a2.29,2.29,0,0,1-2.24-2.06h0a1.86,1.86,0,0,1,1.88-2.06h8.6a2.29,2.29,0,0,1,2.24,2.06h0A1.86,1.86,0,0,1,236.83,132.79Z" style="fill:#fff;opacity:0.9"></path><path d="M218,200h-18.4a2.19,2.19,0,0,1-2.15-2h0a1.77,1.77,0,0,1,1.8-2h18.41a2.2,2.2,0,0,1,2.15,2h0A1.79,1.79,0,0,1,218,200Z" style="fill:#fff;opacity:0.9"></path><path d="M242,207.75H200.3a2.21,2.21,0,0,1-2.15-2h0a1.79,1.79,0,0,1,1.81-2h41.7a2.21,2.21,0,0,1,2.16,2h0A1.79,1.79,0,0,1,242,207.75Z" style="fill:#fff;opacity:0.9"></path><path d="M232.1,213.77H200.83a2.21,2.21,0,0,1-2.15-2h0a1.78,1.78,0,0,1,1.8-2h31.28a2.21,2.21,0,0,1,2.15,2h0A1.79,1.79,0,0,1,232.1,213.77Z" style="fill:#fff;opacity:0.9"></path><path d="M238.16,219.79h-36.8a2.19,2.19,0,0,1-2.15-2h0a1.78,1.78,0,0,1,1.8-2h36.81a2.21,2.21,0,0,1,2.15,2h0A1.79,1.79,0,0,1,238.16,219.79Z" style="fill:#fff;opacity:0.9"></path><path d="M213.15,225.81H201.88a2.21,2.21,0,0,1-2.15-2h0a1.79,1.79,0,0,1,1.81-2H212.8a2.19,2.19,0,0,1,2.15,2h0A1.78,1.78,0,0,1,213.15,225.81Z" style="fill:#fff;opacity:0.9"></path><path d="M229.68,181.9H212.76a4.82,4.82,0,0,1-4.71-4.33l-1.48-16.92a4.17,4.17,0,0,1,1.05-3.19,4.11,4.11,0,0,1,3.07-1.32h16.92a4.82,4.82,0,0,1,4.71,4.33l1.48,16.92a4.17,4.17,0,0,1-1.05,3.19A4.11,4.11,0,0,1,229.68,181.9Zm-19-23.73a2.05,2.05,0,0,0-2.1,2.3l1.48,16.92a2.76,2.76,0,0,0,2.69,2.48h16.92a2.05,2.05,0,0,0,2.1-2.3l-1.48-16.92a2.76,2.76,0,0,0-2.69-2.48Z" style="fill:#263238"></path><g style="opacity:0.5"><path d="M229.68,181.9H212.76a4.82,4.82,0,0,1-4.71-4.33l-1.48-16.92a4.17,4.17,0,0,1,1.05-3.19,4.11,4.11,0,0,1,3.07-1.32h16.92a4.82,4.82,0,0,1,4.71,4.33l1.48,16.92a4.17,4.17,0,0,1-1.05,3.19A4.11,4.11,0,0,1,229.68,181.9Zm-19-23.73a2.05,2.05,0,0,0-2.1,2.3l1.48,16.92a2.76,2.76,0,0,0,2.69,2.48h16.92a2.05,2.05,0,0,0,2.1-2.3l-1.48-16.92a2.76,2.76,0,0,0-2.69-2.48Z" style="fill:#fff"></path></g><path d="M216.68,176.07l-12.92-11.88a2.24,2.24,0,0,1-.13-3.15h0a2.24,2.24,0,0,1,3.15-.13l9.62,8.85,18.66-20.44a2.22,2.22,0,0,1,3.14-.15h0a2.24,2.24,0,0,1,.15,3.15Z" style="fill:#62D464"></path><g style="opacity:0.2"><path d="M216.68,176.07l-12.92-11.88a2.24,2.24,0,0,1-.13-3.15h0a2.24,2.24,0,0,1,3.15-.13l9.62,8.85,18.66-20.44a2.22,2.22,0,0,1,3.14-.15h0a2.24,2.24,0,0,1,.15,3.15Z"></path></g></g><g id="freepik--device-3--inject-55"><path d="M249.16,370a1.93,1.93,0,0,0-1.38,0h-34.3l-14.41,42.26h36.18L236,410h2.18l12.11-37.57A1.94,1.94,0,0,0,249.16,370Zm-15.73,19.92-1.24,3.86a5.82,5.82,0,0,1-5.54,4h-1.73a4.46,4.46,0,0,1-4.25-5.83l1.25-3.86a5.81,5.81,0,0,1,5.53-4h1.74A4.46,4.46,0,0,1,233.43,389.94Z" style="fill:#263238"></path><path d="M249.16,370a1.93,1.93,0,0,0-1.38,0h-34.3l-14.41,42.26h36.18L236,410h2.18l12.11-37.57A1.94,1.94,0,0,0,249.16,370Zm-15.73,19.92-1.24,3.86a5.82,5.82,0,0,1-5.54,4h-1.73a4.46,4.46,0,0,1-4.25-5.83l1.25-3.86a5.81,5.81,0,0,1,5.53-4h1.74A4.46,4.46,0,0,1,233.43,389.94Z" style="fill:#fff;opacity:0.30000000000000004"></path><path d="M277.49,410H241.81a1.93,1.93,0,0,1,1.93,1.93v.73a1.92,1.92,0,0,1-1.93,1.93h35.68a1.92,1.92,0,0,0,1.92-1.93v-.73A1.93,1.93,0,0,0,277.49,410Z" style="fill:#263238"></path><path d="M277.49,410H241.81a1.93,1.93,0,0,1,1.93,1.93v.73a1.92,1.92,0,0,1-1.93,1.93h35.68a1.92,1.92,0,0,0,1.92-1.93v-.73A1.93,1.93,0,0,0,277.49,410Z" style="fill:#fff;opacity:0.30000000000000004"></path><path d="M241.81,414.57H197l14-43.34a1.93,1.93,0,0,1,2.53-1.21h0a1.93,1.93,0,0,1,1.14,2.39L202.5,410h39.31a1.93,1.93,0,0,1,1.93,1.93v.73A1.92,1.92,0,0,1,241.81,414.57Z" style="fill:#263238"></path><g style="opacity:0.6000000000000001"><path d="M241.81,414.57H197l14-43.34a1.93,1.93,0,0,1,2.53-1.21h0a1.93,1.93,0,0,1,1.14,2.39L202.5,410h39.31a1.93,1.93,0,0,1,1.93,1.93v.73A1.92,1.92,0,0,1,241.81,414.57Z" style="fill:#fff"></path></g><path d="M229.19,384.11h-1.74c-.13,0-.25,0-.38,0a4.46,4.46,0,0,1,3.75,5.8l-1.24,3.86a5.8,5.8,0,0,1-5.16,4,4.07,4.07,0,0,0,.5,0h1.73a5.82,5.82,0,0,0,5.54-4l1.24-3.86A4.46,4.46,0,0,0,229.19,384.11Z" style="fill:#263238"></path><path d="M151.41,246.92H133.68a6.06,6.06,0,0,0-6.14,6.73l10,115a7.5,7.5,0,0,0,7.33,6.73h17.72Z" style="fill:#62D464"></path><path d="M151.41,246.92H133.68a6.06,6.06,0,0,0-6.14,6.73l10,115a7.5,7.5,0,0,0,7.33,6.73h17.72Z" style="fill:#fff;opacity:0.2"></path><path d="M308.27,375.33H149.5a7.48,7.48,0,0,1-7.32-6.73l-10.06-115a6.07,6.07,0,0,1,6.15-6.73H297a7.48,7.48,0,0,1,7.32,6.73l10.06,115A6.07,6.07,0,0,1,308.27,375.33Z" style="fill:#62D464"></path><path d="M308.27,375.33H149.5a7.48,7.48,0,0,1-7.32-6.73l-10.06-115a6.07,6.07,0,0,1,6.15-6.73H297a7.48,7.48,0,0,1,7.32,6.73l10.06,115A6.07,6.07,0,0,1,308.27,375.33Z" style="fill:#fff;opacity:0.5"></path><path d="M141.16,357l1,11.61a7.48,7.48,0,0,0,7.32,6.73H308.27a6.07,6.07,0,0,0,6.15-6.73l-1-11.61Z" style="fill:#62D464"></path><path d="M141.16,357l1,11.61a7.48,7.48,0,0,0,7.32,6.73H308.27a6.07,6.07,0,0,0,6.15-6.73l-1-11.61Z" style="fill:#fff;opacity:0.2"></path><polygon points="137.77 252.65 146.4 351.25 307.17 351.25 298.54 252.65 137.77 252.65" style="fill:#fff"></polygon><polygon points="175.64 268.06 145.57 268.06 144.63 257.24 174.69 257.24 175.64 268.06" style="fill:#263238"></polygon><polygon points="226.17 262.65 207.9 262.65 207.43 257.24 225.7 257.24 226.17 262.65" style="fill:#263238"></polygon><polygon points="191.5 346.8 161.56 346.8 160.29 332.31 190.23 332.31 191.5 346.8" style="fill:#263238"></polygon><polygon points="227.68 346.8 197.74 346.8 196.47 332.31 226.41 332.31 227.68 346.8" style="fill:#263238"></polygon><polygon points="263.86 346.8 233.92 346.8 232.65 332.31 262.59 332.31 263.86 346.8" style="fill:#263238"></polygon><polygon points="300.04 346.8 270.1 346.8 268.83 332.31 298.77 332.31 300.04 346.8" style="fill:#263238"></polygon><polygon points="248.34 262.65 230.07 262.65 229.6 257.24 247.87 257.24 248.34 262.65" style="fill:#263238"></polygon><polygon points="270.51 262.65 252.24 262.65 251.76 257.24 270.04 257.24 270.51 262.65" style="fill:#263238"></polygon><polygon points="292.68 262.65 274.41 262.65 273.93 257.24 292.2 257.24 292.68 262.65" style="fill:#263238"></polygon><polygon points="305.04 327.43 144.27 327.43 139.73 275.61 300.51 275.61 305.04 327.43" style="fill:#263238"></polygon><g style="opacity:0.9"><polygon points="175.64 268.06 145.57 268.06 144.63 257.24 174.69 257.24 175.64 268.06" style="fill:#fff"></polygon><polygon points="226.17 262.65 207.9 262.65 207.43 257.24 225.7 257.24 226.17 262.65" style="fill:#fff"></polygon><polygon points="191.5 346.8 161.56 346.8 160.29 332.31 190.23 332.31 191.5 346.8" style="fill:#fff"></polygon><polygon points="227.68 346.8 197.74 346.8 196.47 332.31 226.41 332.31 227.68 346.8" style="fill:#fff"></polygon><polygon points="263.86 346.8 233.92 346.8 232.65 332.31 262.59 332.31 263.86 346.8" style="fill:#fff"></polygon><polygon points="300.04 346.8 270.1 346.8 268.83 332.31 298.77 332.31 300.04 346.8" style="fill:#fff"></polygon><polygon points="248.34 262.65 230.07 262.65 229.6 257.24 247.87 257.24 248.34 262.65" style="fill:#fff"></polygon><polygon points="270.51 262.65 252.24 262.65 251.76 257.24 270.04 257.24 270.51 262.65" style="fill:#fff"></polygon><polygon points="292.68 262.65 274.41 262.65 273.93 257.24 292.2 257.24 292.68 262.65" style="fill:#fff"></polygon><polygon points="305.04 327.43 144.27 327.43 139.73 275.61 300.51 275.61 305.04 327.43" style="fill:#fff"></polygon></g><path d="M241.15,314.17h-18.8a5.36,5.36,0,0,1-5.23-4.81l-1.65-18.8a4.61,4.61,0,0,1,1.17-3.54,4.56,4.56,0,0,1,3.41-1.47h18.8a5.36,5.36,0,0,1,5.23,4.81l1.65,18.8a4.61,4.61,0,0,1-1.17,3.54A4.56,4.56,0,0,1,241.15,314.17Zm-21.1-26.37a2.28,2.28,0,0,0-2.33,2.56l1.64,18.8a3.07,3.07,0,0,0,3,2.76h18.8a2.33,2.33,0,0,0,1.75-.74,2.36,2.36,0,0,0,.59-1.82l-1.65-18.8a3.07,3.07,0,0,0-3-2.76Z" style="fill:#263238"></path><g style="opacity:0.5"><path d="M241.15,314.17h-18.8a5.36,5.36,0,0,1-5.23-4.81l-1.65-18.8a4.61,4.61,0,0,1,1.17-3.54,4.56,4.56,0,0,1,3.41-1.47h18.8a5.36,5.36,0,0,1,5.23,4.81l1.65,18.8a4.61,4.61,0,0,1-1.17,3.54A4.56,4.56,0,0,1,241.15,314.17Zm-21.1-26.37a2.28,2.28,0,0,0-2.33,2.56l1.64,18.8a3.07,3.07,0,0,0,3,2.76h18.8a2.33,2.33,0,0,0,1.75-.74,2.36,2.36,0,0,0,.59-1.82l-1.65-18.8a3.07,3.07,0,0,0-3-2.76Z" style="fill:#fff"></path></g><path d="M226.7,307.69l-14.35-13.2a2.47,2.47,0,0,1-.14-3.49h0a2.47,2.47,0,0,1,3.49-.15l10.7,9.83L247.12,278a2.48,2.48,0,0,1,3.5-.16h0a2.48,2.48,0,0,1,.16,3.5Z" style="fill:#62D464"></path><g style="opacity:0.2"><path d="M226.7,307.69l-14.35-13.2a2.47,2.47,0,0,1-.14-3.49h0a2.47,2.47,0,0,1,3.49-.15l10.7,9.83L247.12,278a2.48,2.48,0,0,1,3.5-.16h0a2.48,2.48,0,0,1,.16,3.5Z"></path></g></g><g id="freepik--device-2--inject-55"><path d="M86.72,138.75H78.09a8,8,0,0,0-8.1,8.87l9.63,110.07a9.88,9.88,0,0,0,9.65,8.87H97.9Z" style="fill:#62D464"></path><path d="M86.72,138.75H78.09a8,8,0,0,0-8.1,8.87l9.63,110.07a9.88,9.88,0,0,0,9.65,8.87H97.9Z" style="fill:#fff;opacity:0.2"></path><path d="M92.71,266.56h75.62a8,8,0,0,0,8.09-8.87L166.8,147.62a9.88,9.88,0,0,0-9.65-8.87H81.53a8,8,0,0,0-8.1,8.87l9.63,110.07A9.88,9.88,0,0,0,92.71,266.56Z" style="fill:#62D464"></path><path d="M92.71,266.56h75.62a8,8,0,0,0,8.09-8.87L166.8,147.62a9.88,9.88,0,0,0-9.65-8.87H81.53a8,8,0,0,0-8.1,8.87l9.63,110.07A9.88,9.88,0,0,0,92.71,266.56Z" style="fill:#fff;opacity:0.5"></path><polygon points="173.33 257.69 163.7 147.62 76.53 147.62 86.16 257.69 173.33 257.69" style="fill:#fff"></polygon><path d="M130.35,264.66a3.11,3.11,0,0,1-3-2.8,2.51,2.51,0,0,1,2.54-2.79,3.1,3.1,0,0,1,3,2.79A2.53,2.53,0,0,1,130.35,264.66Zm-.42-4.9a1.9,1.9,0,0,0-1.93,2.1,2.36,2.36,0,0,0,2.29,2.11,1.9,1.9,0,0,0,1.92-2.11A2.33,2.33,0,0,0,129.93,259.76Z" style="fill:#62D464"></path><polygon points="159.92 158.32 153.5 158.32 152.94 151.9 159.36 151.9 159.92 158.32" style="fill:#263238"></polygon><polygon points="100.76 158.32 82.41 158.32 81.85 151.9 100.2 151.9 100.76 158.32" style="fill:#263238"></polygon><polygon points="164.14 206.48 86.63 206.48 83.1 166.12 160.6 166.12 164.14 206.48" style="fill:#263238"></polygon><polygon points="135.44 250.71 90.5 250.71 87.11 211.98 132.06 211.98 135.44 250.71" style="fill:#263238"></polygon><polygon points="147.73 220.81 137.41 220.81 136.64 211.98 146.96 211.98 147.73 220.81" style="fill:#263238"></polygon><path d="M162.13,215h-11.3a1.66,1.66,0,0,1-1.62-1.49h0a1.35,1.35,0,0,1,1.36-1.49h11.3a1.67,1.67,0,0,1,1.62,1.49h0A1.35,1.35,0,0,1,162.13,215Z" style="fill:#263238"></path><path d="M163.9,220.81H151.34a1.67,1.67,0,0,1-1.62-1.49h0a1.35,1.35,0,0,1,1.36-1.49h12.56a1.66,1.66,0,0,1,1.62,1.49h0A1.35,1.35,0,0,1,163.9,220.81Z" style="fill:#263238"></path><path d="M163.15,226.66H139.42a1.67,1.67,0,0,1-1.63-1.49h0a1.34,1.34,0,0,1,1.36-1.49h23.74a1.65,1.65,0,0,1,1.62,1.49h0A1.35,1.35,0,0,1,163.15,226.66Z" style="fill:#263238"></path><path d="M164.92,232.5h-25a1.65,1.65,0,0,1-1.62-1.49h0a1.34,1.34,0,0,1,1.36-1.49h25a1.65,1.65,0,0,1,1.62,1.49h0A1.34,1.34,0,0,1,164.92,232.5Z" style="fill:#263238"></path><path d="M162.22,238.35H140.44a1.66,1.66,0,0,1-1.62-1.49h0a1.34,1.34,0,0,1,1.36-1.49H162a1.65,1.65,0,0,1,1.62,1.49h0A1.34,1.34,0,0,1,162.22,238.35Z" style="fill:#263238"></path><path d="M166,244.2H141a1.66,1.66,0,0,1-1.62-1.49h0a1.35,1.35,0,0,1,1.36-1.49h25a1.67,1.67,0,0,1,1.62,1.49h0A1.35,1.35,0,0,1,166,244.2Z" style="fill:#263238"></path><path d="M158.69,250.05H141.46a1.66,1.66,0,0,1-1.62-1.49h0a1.34,1.34,0,0,1,1.36-1.49h17.23a1.65,1.65,0,0,1,1.62,1.49h0A1.35,1.35,0,0,1,158.69,250.05Z" style="fill:#263238"></path><polygon points="159.92 158.32 153.5 158.32 152.94 151.9 159.36 151.9 159.92 158.32" style="fill:#fff;opacity:0.9"></polygon><polygon points="100.76 158.32 82.41 158.32 81.85 151.9 100.2 151.9 100.76 158.32" style="fill:#fff;opacity:0.9"></polygon><polygon points="164.14 206.48 86.63 206.48 83.1 166.12 160.6 166.12 164.14 206.48" style="fill:#fff;opacity:0.9"></polygon><polygon points="135.44 250.71 90.5 250.71 87.11 211.98 132.06 211.98 135.44 250.71" style="fill:#fff;opacity:0.9"></polygon><polygon points="147.73 220.81 137.41 220.81 136.64 211.98 146.96 211.98 147.73 220.81" style="fill:#fff;opacity:0.9"></polygon><path d="M162.13,215h-11.3a1.66,1.66,0,0,1-1.62-1.49h0a1.35,1.35,0,0,1,1.36-1.49h11.3a1.67,1.67,0,0,1,1.62,1.49h0A1.35,1.35,0,0,1,162.13,215Z" style="fill:#fff;opacity:0.9"></path><path d="M163.9,220.81H151.34a1.67,1.67,0,0,1-1.62-1.49h0a1.35,1.35,0,0,1,1.36-1.49h12.56a1.66,1.66,0,0,1,1.62,1.49h0A1.35,1.35,0,0,1,163.9,220.81Z" style="fill:#fff;opacity:0.9"></path><path d="M163.15,226.66H139.42a1.67,1.67,0,0,1-1.63-1.49h0a1.34,1.34,0,0,1,1.36-1.49h23.74a1.65,1.65,0,0,1,1.62,1.49h0A1.35,1.35,0,0,1,163.15,226.66Z" style="fill:#fff;opacity:0.9"></path><path d="M164.92,232.5h-25a1.65,1.65,0,0,1-1.62-1.49h0a1.34,1.34,0,0,1,1.36-1.49h25a1.65,1.65,0,0,1,1.62,1.49h0A1.34,1.34,0,0,1,164.92,232.5Z" style="fill:#fff;opacity:0.9"></path><path d="M162.22,238.35H140.44a1.66,1.66,0,0,1-1.62-1.49h0a1.34,1.34,0,0,1,1.36-1.49H162a1.65,1.65,0,0,1,1.62,1.49h0A1.34,1.34,0,0,1,162.22,238.35Z" style="fill:#fff;opacity:0.9"></path><path d="M166,244.2H141a1.66,1.66,0,0,1-1.62-1.49h0a1.35,1.35,0,0,1,1.36-1.49h25a1.67,1.67,0,0,1,1.62,1.49h0A1.35,1.35,0,0,1,166,244.2Z" style="fill:#fff;opacity:0.9"></path><path d="M158.69,250.05H141.46a1.66,1.66,0,0,1-1.62-1.49h0a1.34,1.34,0,0,1,1.36-1.49h17.23a1.65,1.65,0,0,1,1.62,1.49h0A1.35,1.35,0,0,1,158.69,250.05Z" style="fill:#fff;opacity:0.9"></path><path d="M139.66,206.78H122.74a4.82,4.82,0,0,1-4.71-4.33l-1.48-16.92a4.08,4.08,0,0,1,4.12-4.51h16.91a4.83,4.83,0,0,1,4.72,4.33l1.48,16.92a4.14,4.14,0,0,1-1.06,3.19A4.09,4.09,0,0,1,139.66,206.78Zm-19-23.73a2,2,0,0,0-2.1,2.3l1.48,16.92a2.76,2.76,0,0,0,2.69,2.48h16.92a2.08,2.08,0,0,0,1.57-.66,2.13,2.13,0,0,0,.53-1.64l-1.48-16.92a2.76,2.76,0,0,0-2.7-2.48Z" style="fill:#263238"></path><g style="opacity:0.5"><path d="M139.66,206.78H122.74a4.82,4.82,0,0,1-4.71-4.33l-1.48-16.92a4.08,4.08,0,0,1,4.12-4.51h16.91a4.83,4.83,0,0,1,4.72,4.33l1.48,16.92a4.14,4.14,0,0,1-1.06,3.19A4.09,4.09,0,0,1,139.66,206.78Zm-19-23.73a2,2,0,0,0-2.1,2.3l1.48,16.92a2.76,2.76,0,0,0,2.69,2.48h16.92a2.08,2.08,0,0,0,1.57-.66,2.13,2.13,0,0,0,.53-1.64l-1.48-16.92a2.76,2.76,0,0,0-2.7-2.48Z" style="fill:#fff"></path></g><path d="M126.65,201l-12.91-11.88a2.22,2.22,0,0,1-.13-3.15h0a2.23,2.23,0,0,1,3.14-.13l9.63,8.85L145,174.2a2.23,2.23,0,0,1,3.15-.15h0a2.23,2.23,0,0,1,.14,3.15Z" style="fill:#62D464"></path><g style="opacity:0.2"><path d="M126.65,201l-12.91-11.88a2.22,2.22,0,0,1-.13-3.15h0a2.23,2.23,0,0,1,3.14-.13l9.63,8.85L145,174.2a2.23,2.23,0,0,1,3.15-.15h0a2.23,2.23,0,0,1,.14,3.15Z"></path></g></g><g id="freepik--device-1--inject-55"><path d="M81.59,323.79H75.32a4.17,4.17,0,0,0-4.22,4.62l7,79.94a5.14,5.14,0,0,0,5,4.62H89.4Z" style="fill:#62D464"></path><path d="M81.59,323.79H75.32a4.17,4.17,0,0,0-4.22,4.62l7,79.94a5.14,5.14,0,0,0,5,4.62H89.4Z" style="fill:#fff;opacity:0.2"></path><path d="M183.63,413H85.85a5.14,5.14,0,0,1-5-4.62l-7-79.94a4.17,4.17,0,0,1,4.22-4.62h97.78a5.14,5.14,0,0,1,5,4.62l7,79.94A4.16,4.16,0,0,1,183.63,413Z" style="fill:#62D464"></path><path d="M183.63,413H85.85a5.14,5.14,0,0,1-5-4.62l-7-79.94a4.17,4.17,0,0,1,4.22-4.62h97.78a5.14,5.14,0,0,1,5,4.62l7,79.94A4.16,4.16,0,0,1,183.63,413Z" style="fill:#fff;opacity:0.5"></path><path d="M141,406.34H248a0,0,0,0,1,0,0v2.16a6,6,0,0,1-6,6H141a0,0,0,0,1,0,0v-8.15A0,0,0,0,1,141,406.34Z" style="fill:#62D464"></path><path d="M141,406.34H248a0,0,0,0,1,0,0v2.16a6,6,0,0,1-6,6H141a0,0,0,0,1,0,0v-8.15A0,0,0,0,1,141,406.34Z" style="fill:#fff;opacity:0.2"></path><path d="M203.34,410.42h-8.55a4.08,4.08,0,0,1-4.07-4.08h16.7A4.08,4.08,0,0,1,203.34,410.42Z" style="fill:#fff;opacity:0.4"></path><polygon points="181.69 399.46 175.54 329.14 79.27 329.14 85.42 399.46 181.69 399.46" style="fill:#fff"></polygon><path d="M131.67,326.51a1.07,1.07,0,0,1-1.08,1.19,1.33,1.33,0,0,1-1.3-1.19,1.07,1.07,0,0,1,1.09-1.19A1.31,1.31,0,0,1,131.67,326.51Z" style="fill:#263238"></path><path d="M81.15,406.34h67.08a0,0,0,0,1,0,0v2.16a6,6,0,0,1-6,6H87.15a6,6,0,0,1-6-6v-2.16A0,0,0,0,1,81.15,406.34Z" style="fill:#62D464"></path><path d="M91.63,411.18H87a1,1,0,0,1-1-1h0a1,1,0,0,1,1-1h4.65a1,1,0,0,1,1,1h0A1,1,0,0,1,91.63,411.18Z" style="fill:#fff;opacity:0.4"></path><path d="M101.63,411.18H97a1,1,0,0,1-1-1h0a1,1,0,0,1,1-1h4.65a1,1,0,0,1,1,1h0A1,1,0,0,1,101.63,411.18Z" style="fill:#fff;opacity:0.4"></path><polygon points="100.84 340.27 84.6 340.27 84.05 333.96 100.29 333.96 100.84 340.27" style="fill:#263238"></polygon><polygon points="135.85 336.25 125.68 336.25 125.48 333.96 135.65 333.96 135.85 336.25" style="fill:#263238"></polygon><polygon points="148.08 336.25 137.91 336.25 137.71 333.96 147.88 333.96 148.08 336.25" style="fill:#263238"></polygon><polygon points="160.31 336.25 150.14 336.25 149.94 333.96 160.11 333.96 160.31 336.25" style="fill:#263238"></polygon><polygon points="172.54 336.25 162.37 336.25 162.17 333.96 172.34 333.96 172.54 336.25" style="fill:#263238"></polygon><polygon points="174.39 357.47 86.11 357.47 84.9 343.71 173.19 343.71 174.39 357.47" style="fill:#263238"></polygon><polygon points="143.3 386.51 88.65 386.51 86.32 359.95 140.98 359.95 143.3 386.51" style="fill:#263238"></polygon><path d="M128.2,391.86H90.36A1.37,1.37,0,0,1,89,390.62h0a1.12,1.12,0,0,1,1.13-1.24H128a1.39,1.39,0,0,1,1.35,1.24h0A1.12,1.12,0,0,1,128.2,391.86Z" style="fill:#263238"></path><path d="M124.53,395.88H90.71a1.38,1.38,0,0,1-1.35-1.24h0a1.13,1.13,0,0,1,1.13-1.25h33.83a1.39,1.39,0,0,1,1.35,1.25h0A1.12,1.12,0,0,1,124.53,395.88Z" style="fill:#263238"></path><path d="M172.4,377H150.21a1.39,1.39,0,0,1-1.36-1.24h0a1.13,1.13,0,0,1,1.14-1.25h22.19a1.38,1.38,0,0,1,1.35,1.25h0A1.11,1.11,0,0,1,172.4,377Z" style="fill:#263238"></path><path d="M168.74,381H150.56a1.37,1.37,0,0,1-1.35-1.24h0a1.11,1.11,0,0,1,1.13-1.24h18.18a1.37,1.37,0,0,1,1.35,1.24h0A1.11,1.11,0,0,1,168.74,381Z" style="fill:#263238"></path><polygon points="174.13 371.99 148.15 371.99 147.09 359.95 173.08 359.95 174.13 371.99" style="fill:#263238"></polygon><polygon points="176.25 396.17 150.26 396.17 149.21 384.13 175.2 384.13 176.25 396.17" style="fill:#263238"></polygon><g style="opacity:0.9"><polygon points="100.84 340.27 84.6 340.27 84.05 333.96 100.29 333.96 100.84 340.27" style="fill:#fff"></polygon><polygon points="135.85 336.25 125.68 336.25 125.48 333.96 135.65 333.96 135.85 336.25" style="fill:#fff"></polygon><polygon points="148.08 336.25 137.91 336.25 137.71 333.96 147.88 333.96 148.08 336.25" style="fill:#fff"></polygon><polygon points="160.31 336.25 150.14 336.25 149.94 333.96 160.11 333.96 160.31 336.25" style="fill:#fff"></polygon><polygon points="172.54 336.25 162.37 336.25 162.17 333.96 172.34 333.96 172.54 336.25" style="fill:#fff"></polygon><polygon points="174.39 357.47 86.11 357.47 84.9 343.71 173.19 343.71 174.39 357.47" style="fill:#fff"></polygon><polygon points="143.3 386.51 88.65 386.51 86.32 359.95 140.98 359.95 143.3 386.51" style="fill:#fff"></polygon><path d="M128.2,391.86H90.36A1.37,1.37,0,0,1,89,390.62h0a1.12,1.12,0,0,1,1.13-1.24H128a1.39,1.39,0,0,1,1.35,1.24h0A1.12,1.12,0,0,1,128.2,391.86Z" style="fill:#fff"></path><path d="M124.53,395.88H90.71a1.38,1.38,0,0,1-1.35-1.24h0a1.13,1.13,0,0,1,1.13-1.25h33.83a1.39,1.39,0,0,1,1.35,1.25h0A1.12,1.12,0,0,1,124.53,395.88Z" style="fill:#fff"></path><path d="M172.4,377H150.21a1.39,1.39,0,0,1-1.36-1.24h0a1.13,1.13,0,0,1,1.14-1.25h22.19a1.38,1.38,0,0,1,1.35,1.25h0A1.11,1.11,0,0,1,172.4,377Z" style="fill:#fff"></path><path d="M168.74,381H150.56a1.37,1.37,0,0,1-1.35-1.24h0a1.11,1.11,0,0,1,1.13-1.24h18.18a1.37,1.37,0,0,1,1.35,1.24h0A1.11,1.11,0,0,1,168.74,381Z" style="fill:#fff"></path><polygon points="174.13 371.99 148.15 371.99 147.09 359.95 173.08 359.95 174.13 371.99" style="fill:#fff"></polygon><polygon points="176.25 396.17 150.26 396.17 149.21 384.13 175.2 384.13 176.25 396.17" style="fill:#fff"></polygon></g><path d="M145.5,376.09H126.7a5.36,5.36,0,0,1-5.23-4.81l-1.65-18.8a4.54,4.54,0,0,1,4.58-5h18.8a5.36,5.36,0,0,1,5.23,4.81l1.65,18.8a4.54,4.54,0,0,1-4.58,5Zm-21.1-26.37a2.37,2.37,0,0,0-1.75.74,2.32,2.32,0,0,0-.58,1.82l1.64,18.8a3.07,3.07,0,0,0,3,2.76h18.8a2.29,2.29,0,0,0,2.34-2.56l-1.65-18.8a3.07,3.07,0,0,0-3-2.76Z" style="fill:#263238"></path><g style="opacity:0.5"><path d="M145.5,376.09H126.7a5.36,5.36,0,0,1-5.23-4.81l-1.65-18.8a4.54,4.54,0,0,1,4.58-5h18.8a5.36,5.36,0,0,1,5.23,4.81l1.65,18.8a4.54,4.54,0,0,1-4.58,5Zm-21.1-26.37a2.37,2.37,0,0,0-1.75.74,2.32,2.32,0,0,0-.58,1.82l1.64,18.8a3.07,3.07,0,0,0,3,2.76h18.8a2.29,2.29,0,0,0,2.34-2.56l-1.65-18.8a3.07,3.07,0,0,0-3-2.76Z" style="fill:#fff"></path></g><path d="M131.05,369.61,116.7,356.42a2.49,2.49,0,0,1-.15-3.5h0a2.47,2.47,0,0,1,3.49-.15l10.7,9.84,20.72-22.72a2.48,2.48,0,0,1,3.5-.16h0a2.48,2.48,0,0,1,.16,3.5Z" style="fill:#62D464"></path><g style="opacity:0.2"><path d="M131.05,369.61,116.7,356.42a2.49,2.49,0,0,1-.15-3.5h0a2.47,2.47,0,0,1,3.49-.15l10.7,9.84,20.72-22.72a2.48,2.48,0,0,1,3.5-.16h0a2.48,2.48,0,0,1,.16,3.5Z"></path></g></g><g id="freepik--Character--inject-55"><g id="freepik--Chair--inject-55"><path d="M373.64,336.1H385.5a12,12,0,0,0,11.94-11l2.16-27.36-4.5-.36-2.16,27.36a7.49,7.49,0,0,1-7.44,6.87H373.64Z" style="fill:#263238"></path><path d="M373.64,336.1H385.5a12,12,0,0,0,11.94-11l2.16-27.36-4.5-.36-2.16,27.36a7.49,7.49,0,0,1-7.44,6.87H373.64Z" style="fill:#fff;opacity:0.30000000000000004"></path><path d="M390.12,330l-.7,3.21a6.71,6.71,0,0,1-1.24,2.61,11.84,11.84,0,0,1-2.68.32H373.64v-4.52H385.5A7.41,7.41,0,0,0,390.12,330Z" style="opacity:0.2"></path><path d="M379.63,300.63A5.18,5.18,0,0,1,375,295l3.59-35a5.18,5.18,0,0,1,5.68-4.63h34.3a3.44,3.44,0,0,1,3.08,3.79l-3.93,38.45a3.46,3.46,0,0,1-3.79,3.09Z" style="fill:#62D464"></path><path d="M379.63,300.63A5.18,5.18,0,0,1,375,295l3.59-35a5.18,5.18,0,0,1,5.68-4.63h34.3a3.44,3.44,0,0,1,3.08,3.79l-3.93,38.45a3.46,3.46,0,0,1-3.79,3.09Z" style="opacity:0.30000000000000004"></path><path d="M417.72,297.54l3.94-38.45a3.46,3.46,0,0,0-3.09-3.79h0a5.18,5.18,0,0,0-5.68,4.63l-3.59,35a5.18,5.18,0,0,0,4.63,5.68h0A3.46,3.46,0,0,0,417.72,297.54Z" style="fill:#62D464"></path><path d="M378.93,402.4l-.31-.93a2.9,2.9,0,0,0-2.76-2H343.79a2.92,2.92,0,0,0-2.84,2.29l-.08.36a2.81,2.81,0,0,1-2.75,2.22h0a2.82,2.82,0,0,1-2.76-3.43l.08-.37a8.56,8.56,0,0,1,8.35-6.71h32.07A8.56,8.56,0,0,1,384,399.7l.31.93a2.83,2.83,0,0,1-2.68,3.71h0A2.82,2.82,0,0,1,378.93,402.4Z" style="fill:#263238"></path><path d="M378.93,402.4l-.31-.93a2.9,2.9,0,0,0-2.76-2H343.79a2.92,2.92,0,0,0-2.84,2.29l-.08.36a2.81,2.81,0,0,1-2.75,2.22h0a2.82,2.82,0,0,1-2.76-3.43l.08-.37a8.56,8.56,0,0,1,8.35-6.71h32.07A8.56,8.56,0,0,1,384,399.7l.31.93a2.83,2.83,0,0,1-2.68,3.71h0A2.82,2.82,0,0,1,378.93,402.4Z" style="fill:#fff;opacity:0.30000000000000004"></path><rect x="355.12" y="393.83" width="9.92" height="5.64" style="opacity:0.2"></rect><path d="M360.08,403.7h0a2.82,2.82,0,0,0,2.82-2.82v-75h-5.64v75A2.82,2.82,0,0,0,360.08,403.7Z" style="fill:#263238"></path><path d="M360.08,403.7h0a2.82,2.82,0,0,0,2.82-2.82v-75h-5.64v75A2.82,2.82,0,0,0,360.08,403.7Z" style="fill:#fff;opacity:0.30000000000000004"></path><path d="M356.13,408.82a3.95,3.95,0,1,0,3.95-3.95A4,4,0,0,0,356.13,408.82Z" style="fill:#263238"></path><path d="M380.48,408.82a3.95,3.95,0,1,0,3.95-3.95A4,4,0,0,0,380.48,408.82Z" style="fill:#263238"></path><path d="M331.35,408.82a3.95,3.95,0,1,0,3.94-3.95A3.94,3.94,0,0,0,331.35,408.82Z" style="fill:#263238"></path><rect x="357.26" y="330.28" width="5.64" height="13.34" style="opacity:0.2"></rect><path d="M341.78,336.7H379a6.64,6.64,0,0,0,6.49-5.22l1.11-5h-53l1.87,5.69A6.66,6.66,0,0,0,341.78,336.7Z" style="fill:#263238"></path><path d="M341.78,336.7H379a6.64,6.64,0,0,0,6.49-5.22l1.11-5h-53l1.87,5.69A6.66,6.66,0,0,0,341.78,336.7Z" style="fill:#fff;opacity:0.30000000000000004"></path><path d="M327.74,321.35h57.9a3.31,3.31,0,0,1,3.31,3.31v.76a5,5,0,0,1-5,5H329.4a5,5,0,0,1-5-5v-.76A3.31,3.31,0,0,1,327.74,321.35Z" transform="translate(713.39 651.75) rotate(-180)" style="fill:#62D464"></path><path d="M327.74,321.35h57.9a3.31,3.31,0,0,1,3.31,3.31v.76a5,5,0,0,1-5,5H329.4a5,5,0,0,1-5-5v-.76A3.31,3.31,0,0,1,327.74,321.35Z" transform="translate(713.39 651.75) rotate(-180)" style="opacity:0.30000000000000004"></path><path d="M361.59,321.35h35.34a3.31,3.31,0,0,1,3.31,3.31v.76a5,5,0,0,1-5,5h-32a5,5,0,0,1-5-5v-.76A3.31,3.31,0,0,1,361.59,321.35Z" transform="translate(758.52 651.75) rotate(180)" style="fill:#62D464"></path></g><polygon points="304.98 386.43 301.65 402.48 294.56 401.52 296.02 384.88 304.98 386.43" style="fill:#ff8b7b"></polygon><path d="M294.07,400.71l8.61.6a.56.56,0,0,1,.53.57h0l-.06,6.93a1.36,1.36,0,0,1-1.43,1.28c-3-.26-4.42-.54-8.21-.83a68,68,0,0,1-10.06-1.08c-3.19-.74-2.34-3.86-.94-3.83a20.88,20.88,0,0,0,10.2-3.33A2.15,2.15,0,0,1,294.07,400.71Z" style="fill:#263238"></path><path d="M289.85,401.35a1,1,0,0,1-.15-1,.68.68,0,0,1,.44-.49c1-.3,3,1.35,3.28,1.54a.29.29,0,0,1,.05.2.18.18,0,0,1-.15.13,9.48,9.48,0,0,1-2.06.13A2.13,2.13,0,0,1,289.85,401.35Zm.4-1.13a.35.35,0,0,0-.22.24.68.68,0,0,0,.08.66c.34.38,1.34.49,2.73.32-.85-.64-2.08-1.38-2.59-1.22Z" style="fill:#263238"></path><path d="M293.18,401.69c-.72-.51-1.75-2.21-1.53-3.05a.7.7,0,0,1,.69-.5,1,1,0,0,1,.75.3c.71.82.38,3.06.38,3.14a.23.23,0,0,1-.11.13.09.09,0,0,1-.07,0A.14.14,0,0,1,293.18,401.69Zm-.82-3.15c-.26,0-.36.13-.36.24a3.8,3.8,0,0,0,1.14,2.44,4,4,0,0,0-.33-2.49.52.52,0,0,0-.37-.19Z" style="fill:#263238"></path><polygon points="296.02 384.88 304.98 386.43 303.3 394.54 295.25 393.7 296.02 384.88" style="opacity:0.2"></polygon><path d="M364.68,281.25s-.92,15-4.92,15.69S304.85,308,301.18,320s-6.69,71.84-6.69,71.84l10.19.92s14-50.76,13.33-64.26c0,0,44.5,0,59.34-8.17s7.7-37.32,7.7-37.32Z" style="fill:#263238"></path><path d="M364.68,281.25s-.92,15-4.92,15.69S304.85,308,301.18,320s-6.69,71.84-6.69,71.84l10.19.92s14-50.76,13.33-64.26c0,0,44.5,0,59.34-8.17s7.7-37.32,7.7-37.32Z" style="fill:#fff;opacity:0.5"></path><path d="M319.27,328.51c1.87,0,5.68-.08,10.55-.28l6.4-5,37.5-7.56,1.42-12.07s-36.92,2.57-46.82,8.07C320.9,315.84,319.5,324.45,319.27,328.51Z" style="opacity:0.2"></path><polygon points="328.85 389.58 325.54 405.88 318.42 405.17 319.84 388.34 328.85 389.58" style="fill:#ff8b7b"></polygon><path d="M317.8,403.07l8.57.94a.53.53,0,0,1,.51.57h0l-.31,6.94a1.36,1.36,0,0,1-1.44,1.27h0c-3-.37-4.37-.71-8.18-1.15a70.41,70.41,0,0,1-10-1.39c-3.11-.86-2.19-3.95-.8-3.87,3.3.19,8-1.48,10.35-3A2.13,2.13,0,0,1,317.8,403.07Z" style="fill:#263238"></path><path d="M313.61,403.59a1,1,0,0,1-.13-1.07.72.72,0,0,1,.46-.47c1-.22,3,1.47,3.21,1.67a.2.2,0,0,1,0,.2.14.14,0,0,1-.15.11,9.57,9.57,0,0,1-2.07.07A2.15,2.15,0,0,1,313.61,403.59Zm.37-1.14a.29.29,0,0,0-.22.22.63.63,0,0,0,.08.66c.31.4,1.32.55,2.72.43-.84-.67-2-1.47-2.56-1.31Z" style="fill:#263238"></path><path d="M316.9,404c-.73-.5-1.7-2.25-1.44-3.07a.68.68,0,0,1,.71-.48.9.9,0,0,1,.73.33c.69.84.25,3.08.26,3.15a.2.2,0,0,1-.11.13.07.07,0,0,1-.06,0A.13.13,0,0,1,316.9,404Zm-.73-3.1c-.25,0-.38.12-.37.23a3.92,3.92,0,0,0,1.07,2.49,4.15,4.15,0,0,0-.24-2.51.59.59,0,0,0-.37-.21Z" style="fill:#263238"></path><polygon points="328.71 390.22 327.41 396.64 319.27 395.14 319.84 388.36 328.71 390.22" style="opacity:0.2"></polygon><path d="M380.13,233.74c-8.13-1.07-1.81-3.78-1.81-3.78,5.52-1,5.85-5,5.36-8.77l10.11-7.39c-1.52,4.75-3.51,13.48-.53,16.83,0,0,2.05,4.32-10.62,3.36Z" style="fill:#ff8b7b"></path><path d="M389.67,216.81l-6,4.37a15.09,15.09,0,0,1,.14,2.67c2.09-.21,5.17-2.32,5.64-4.45A7.19,7.19,0,0,0,389.67,216.81Z" style="opacity:0.2"></path><path d="M398.33,204.34c-1.81,7.69-2.41,11-7,14.5-6.91,5.3-15.93,1.93-16.45-6-.46-7.15,2.57-18.53,10.68-20.74A10.13,10.13,0,0,1,398.33,204.34Z" style="fill:#ff8b7b"></path><path d="M386,205.08c-.13.65-.57,1.14-1,1.09s-.65-.62-.53-1.27.56-1.15,1-1.1S386.1,204.42,386,205.08Z" style="fill:#263238"></path><path d="M378.07,204.25c-.12.65-.56,1.14-1,1.09s-.66-.62-.54-1.27.57-1.14,1-1.09S378.19,203.6,378.07,204.25Z" style="fill:#263238"></path><path d="M377.71,203l-1.45-.64S376.82,203.72,377.71,203Z" style="fill:#263238"></path><path d="M380.07,205.58a20,20,0,0,1-3.08,3.9,2.63,2.63,0,0,0,2.2.7Z" style="fill:#ff5652"></path><path d="M382.42,213a5.76,5.76,0,0,1-1.09,0,.18.18,0,0,1-.15-.21.19.19,0,0,1,.22-.17,5.55,5.55,0,0,0,4.53-1.53.19.19,0,1,1,.27.25A5.81,5.81,0,0,1,382.42,213Z" style="fill:#263238"></path><path d="M388.35,201.65a.41.41,0,0,1-.27-.13,2.84,2.84,0,0,0-2.46-1.08.36.36,0,0,1-.42-.32.42.42,0,0,1,.35-.44,3.54,3.54,0,0,1,3.14,1.32.4.4,0,0,1-.07.55A.41.41,0,0,1,388.35,201.65Z" style="fill:#263238"></path><path d="M376.46,200.4a.35.35,0,0,1-.26-.1.37.37,0,0,1,0-.54,4.07,4.07,0,0,1,3.35-1.32.36.36,0,0,1,.29.44.42.42,0,0,1-.47.32,3.27,3.27,0,0,0-2.64,1.07A.41.41,0,0,1,376.46,200.4Z" style="fill:#263238"></path><path d="M385.62,203.86l-1.45-.63S384.72,204.55,385.62,203.86Z" style="fill:#263238"></path><path d="M331.8,268.82l.44,0c.85-.06,2-.09,2.92-.2s2-.24,2.91-.42a19.13,19.13,0,0,0,5-1.57,10.14,10.14,0,0,0,1.86-1.15,9.35,9.35,0,0,0,.73-.65,2.73,2.73,0,0,0,.33-.35l.4-.42,2-2.19,2-2.21c2.59-3,5-6.07,7.37-9.2,1.17-1.57,2.3-3.16,3.41-4.75.55-.8,1.09-1.6,1.61-2.4s1.07-1.64,1.48-2.32l.07-.12a6.19,6.19,0,0,1,7.62-2.14c2.85,1.23,4,4.23,2.6,6.7-.6,1-1.1,1.91-1.69,2.82s-1.16,1.77-1.77,2.64c-1.18,1.75-2.45,3.45-3.76,5.11a113.07,113.07,0,0,1-8.49,9.61c-1.51,1.54-3.1,3-4.7,4.49-.17.16-.46.4-.75.64a9.71,9.71,0,0,1-.88.67,15.07,15.07,0,0,1-1.88,1.16,20.71,20.71,0,0,1-4,1.62,25.35,25.35,0,0,1-8.06.84,30.8,30.8,0,0,1-7.51-1.37,2.59,2.59,0,0,1-1.84-2.14A2.62,2.62,0,0,1,331.8,268.82Z" style="fill:#ff8b7b"></path><path d="M368,234.34s-2.31,0-11,14.9c0,0,3.57,8.72,12.86,9.17C369.82,258.41,388,233.34,368,234.34Z" style="fill:#263238"></path><path d="M365.44,239l4.82-1.15,5.66,3,1.13,2.82c-1.46,6.77-7.23,14.73-7.23,14.73a14,14,0,0,1-9.48-4.31A96.84,96.84,0,0,0,365.44,239Z" style="opacity:0.5"></path><path d="M323.07,267.3l2.64-1.29a4,4,0,0,1,3.23-.1l4.81,2a5.9,5.9,0,0,1,3.67,4.17l.23,1.13c-4.21,2.4-10.8,2.29-10.8,2.29l-1.88.15a2.87,2.87,0,0,1-3.27-2.26l-.39-3.24A2.89,2.89,0,0,1,323.07,267.3Z" style="fill:#ff8b7b"></path><path d="M373.76,281.25s1.08,23-2.93,23.69S329.92,309,326.26,321s-7.69,71.84-7.69,71.84l10.19,1.92s16-52.76,15.33-66.26c0,0,40.61,1.2,49.33-7.17S400.13,283,400.13,283Z" style="fill:#263238"></path><path d="M373.76,281.25s1.08,23-2.93,23.69S329.92,309,326.26,321s-7.69,71.84-7.69,71.84l10.19,1.92s16-52.76,15.33-66.26c0,0,40.61,1.2,49.33-7.17S400.13,283,400.13,283Z" style="fill:#fff;opacity:0.5"></path><path d="M380.22,229.82c-.27.18-6.71,4.36,1.69,4.36S393,230.54,393,230.45c3,.44,6.38,1.09,10.11,2l-2.74,56.33s-23.61,2.14-36.8-3.82c0,0-1.69-41.45,2.23-48C365.84,237,367.79,230.79,380.22,229.82Z" style="fill:#263238"></path><path d="M402.61,242.85l-1.15,21.91c-4.7-15.59-4.55-23.64-4.55-23.64l1.25-2.94Z" style="opacity:0.5"></path><path d="M430,246.5a2.46,2.46,0,0,0-2.49,1.07l0,.05c-1.18,1.72-2.36,3.51-3.59,5.2s-2.43,3.4-3.7,5c-.82,1-1.67,2-2.51,2.91a1.19,1.19,0,0,1-1.91-.31c-1.3-2.72-2.51-5.51-3.66-8.35-.82-2.08-1.64-4.17-2.41-6.29s-1.53-4.28-2.22-6.29l0-.11a5,5,0,0,0-6.63-3,5.1,5.1,0,0,0-2.84,6.18c.69,2.36,1.47,4.5,2.28,6.71S402,253.75,403,256s2.05,4.36,3.19,6.51,2.39,4.25,3.72,6.33l.17.26a2.8,2.8,0,0,0,.41.5,7.37,7.37,0,0,0,1.76,1.33,6.51,6.51,0,0,0,2.41.74,7.1,7.1,0,0,0,3.9-.75,13.06,13.06,0,0,0,3.71-2.94,35.19,35.19,0,0,0,4.16-5.92c1.13-2,2.13-4,3.05-6s1.73-4.07,2.46-6.22A2.52,2.52,0,0,0,430,246.5Z" style="fill:#ff8b7b"></path><path d="M416.91,252.33a22,22,0,0,1-15.45,6.32s-10.1-23.88-1.3-26.36C408.49,229.93,416.91,252.33,416.91,252.33Z" style="fill:#263238"></path><path d="M428.41,239.19,426.47,241a3,3,0,0,0-1,2.64l.58,4.6a5.71,5.71,0,0,0,3,4.33l1,.54c3.42-2.74,5.09-8.23,5.09-8.23l.66-1.51a2.57,2.57,0,0,0-1.27-3.41l-3-1.32A3,3,0,0,0,428.41,239.19Z" style="fill:#ff8b7b"></path><path d="M381.42,298l-56.57,5.3a1.55,1.55,0,0,0,.29,3.08l56.57-5.31a1.54,1.54,0,1,0-.29-3.07Z" style="fill:#62D464"></path><path d="M325.89,305.39,352,302.93a.72.72,0,0,0,.59-1l-13.36-29.12a2.06,2.06,0,0,0-2.08-1.2L311,274a.73.73,0,0,0-.59,1l13.36,29.13A2.09,2.09,0,0,0,325.89,305.39Z" style="fill:#62D464"></path><path d="M325,305.48,351.11,303a.73.73,0,0,0,.6-1l-13.37-29.13a2.08,2.08,0,0,0-2.08-1.2l-26.16,2.46a.72.72,0,0,0-.59,1l13.37,29.12A2.07,2.07,0,0,0,325,305.48Z" style="fill:#62D464"></path><path d="M325,305.48,351.11,303a.73.73,0,0,0,.6-1l-13.37-29.13a2.08,2.08,0,0,0-2.08-1.2l-26.16,2.46a.72.72,0,0,0-.59,1l13.37,29.12A2.07,2.07,0,0,0,325,305.48Z" style="fill:#fff;opacity:0.7000000000000001"></path><path d="M354.6,303.64a1.54,1.54,0,1,1-.29-3.07L381.42,298a1.54,1.54,0,1,1,.29,3.07Z" style="fill:#fff;opacity:0.7000000000000001"></path><rect x="359.04" y="301.21" width="2.2" height="0.72" transform="translate(746.89 568.18) rotate(174.64)" style="opacity:0.5"></rect><rect x="355.68" y="301.53" width="2.2" height="0.72" transform="translate(740.19 569.13) rotate(174.64)" style="opacity:0.5"></rect><path d="M395.93,210.2a10.2,10.2,0,0,1-2.7-11.78,16.89,16.89,0,0,0-6.52-1.49c-5,0-10.72,1.07-9.19-2.76,0,0-5.31-6.75,3.73-7.71,0,0-.46-8.51,6.84-3,0,0,6.07-7.21,9.09,2.56,0,0,9.13-4.77,6.75,7,0,0,6.46.11,2.38,7.64,0,0,3.38,4.59-3.33,8.62,0,0,.54,6.55-4.35,5.37,0,0-5.61,7.87-6.38,4.2C391.55,215.44,395.93,210.2,395.93,210.2Z" style="fill:#263238"></path><path d="M398.75,211.85a5.47,5.47,0,0,1-3.43,2.75c-1.83.39-2.52-1.71-1.83-3.75.63-1.84,2.33-4.26,4.08-3.73S399.74,210.07,398.75,211.85Z" style="fill:#ff8b7b"></path><polygon points="394.84 213.8 392.94 217.27 397.27 217.27 395.36 213.8 394.84 213.8" style="fill:#62D464"></polygon><polygon points="394.84 213.8 392.94 217.27 397.27 217.27 395.36 213.8 394.84 213.8" style="opacity:0.2"></polygon><polygon points="392.94 217.27 394.84 213.8 396.75 217.27 392.94 217.27" style="fill:#62D464"></polygon><polygon points="293.82 392.3 304.96 393.47 305.84 390.3 293.82 388.97 293.82 392.3" style="fill:#263238"></polygon><polygon points="318.01 393.47 329.06 395.35 330.13 392.25 318.22 390.15 318.01 393.47" style="fill:#263238"></polygon></g><g id="freepik--Target--inject-55"><path d="M306.33,226.23c-19.17,0-36.13-15.6-37.81-34.76s12.56-34.77,31.72-34.77,36.13,15.6,37.81,34.77S325.49,226.23,306.33,226.23Z" style="fill:#263238"></path><path d="M308,225.39c-19.17,0-36.13-15.59-37.81-34.76s12.56-34.76,31.73-34.76,36.12,15.59,37.8,34.76S327.17,225.39,308,225.39Z" style="fill:#62D464"></path><g style="opacity:0.7000000000000001"><path d="M308,225.39c-19.17,0-36.13-15.59-37.81-34.76s12.56-34.76,31.73-34.76,36.12,15.59,37.8,34.76S327.17,225.39,308,225.39Z" style="fill:#fff"></path></g><path d="M308,225.39c-19.17,0-36.13-15.59-37.81-34.76s12.56-34.76,31.73-34.76,36.12,15.59,37.8,34.76S327.17,225.39,308,225.39Zm-5.5-62.84c-15.48,0-27,12.6-25.62,28.08s15.05,28.07,30.53,28.07,27-12.59,25.62-28.07S318,162.55,302.5,162.55Z" style="fill:#62D464"></path><path d="M306.88,212.65a24.56,24.56,0,0,1-23.95-22,19.88,19.88,0,0,1,20.1-22,24.55,24.55,0,0,1,24,22A19.88,19.88,0,0,1,306.88,212.65Zm-3.27-37.36a13.84,13.84,0,0,0-14,15.34A17.09,17.09,0,0,0,306.3,206a13.84,13.84,0,0,0,14-15.33A17.09,17.09,0,0,0,303.61,175.29Z" style="fill:#62D464"></path><path d="M313.65,190.63a7.84,7.84,0,0,1-7.93,8.7,9.68,9.68,0,0,1-9.46-8.7,7.85,7.85,0,0,1,7.94-8.7A9.68,9.68,0,0,1,313.65,190.63Z" style="fill:#62D464"></path><polygon points="329.35 166.32 327.65 159.71 334.55 152.82 336.24 159.43 329.35 166.32" style="fill:#263238"></polygon><polygon points="329.35 166.32 335.96 168.02 342.85 161.13 336.24 159.43 329.35 166.32" style="fill:#263238"></polygon><rect x="317.21" y="157.51" width="1.88" height="40.02" transform="translate(218.71 -172.97) rotate(45)" style="fill:#263238"></rect></g></svg>
