<svg width="464" height="378" viewBox="0 0 464 378" fill="none" xmlns="http://www.w3.org/2000/svg">
<path d="M83.2107 160.096C83.2177 159.851 83.3367 159.731 83.5657 159.738L90.2737 159.942C90.9377 159.962 91.4997 160.063 91.9617 160.245C92.4237 160.427 92.7937 160.676 93.0707 160.992C93.3477 161.308 93.5447 161.687 93.6627 162.129C93.7807 162.571 93.8317 163.063 93.8147 163.603L93.7587 165.445C93.7427 165.986 93.6617 166.473 93.5177 166.907C93.3737 167.342 93.1547 167.709 92.8577 168.007C92.5617 168.305 92.1767 168.531 91.7047 168.686C91.2327 168.839 90.6657 168.906 90.0017 168.886L86.3907 168.776L85.6427 166.664L85.5447 166.661L85.4817 168.749L82.9507 168.672L83.2107 160.096ZM85.5517 166.426L89.8387 166.557C90.3217 166.572 90.6697 166.476 90.8807 166.269C91.0917 166.062 91.2057 165.688 91.2217 165.148L91.2667 163.649C91.2837 163.092 91.1937 162.71 90.9947 162.503C90.7967 162.297 90.4557 162.186 89.9717 162.171L85.8677 162.046C85.8107 162.045 85.7647 162.062 85.7307 162.097C85.6967 162.133 85.6797 162.176 85.6777 162.224L85.5517 166.426Z" fill="#F1F1F4"/>
<path d="M97.4445 163.935L97.3585 163.932L97.2775 166.61C97.2745 166.724 97.3285 166.784 97.4445 166.787L104.988 167.017L104.918 169.338L95.0275 169.038C94.7895 169.03 94.6745 168.904 94.6825 168.659L94.9315 160.452C94.9385 160.207 95.0605 160.088 95.2995 160.094L104.906 160.386C105.152 160.393 105.271 160.52 105.264 160.765L105.193 163.087L102.82 163.888L102.721 163.885L102.757 162.694C102.76 162.604 102.72 162.557 102.638 162.555L97.5645 162.401C97.4995 162.398 97.4555 162.416 97.4335 162.452C97.4125 162.489 97.4015 162.528 97.3995 162.568L97.3655 163.686L101.543 163.812L101.487 165.631L97.9845 165.525L97.4445 163.935Z" fill="#F1F1F4"/>
<path d="M114.211 163.767L114.112 163.764L114.142 162.781C114.145 162.683 114.098 162.632 113.999 162.629L109.281 162.485C109.109 162.48 108.989 162.513 108.921 162.585C108.853 162.657 108.817 162.762 108.813 162.901L108.806 163.122C108.801 163.294 108.826 163.406 108.882 163.457C108.938 163.508 109.048 163.548 109.211 163.578L114.74 164.52C115.091 164.58 115.388 164.666 115.631 164.775C115.873 164.885 116.07 165.026 116.221 165.199C116.371 165.372 116.476 165.582 116.533 165.83C116.592 166.077 116.616 166.369 116.605 166.705L116.584 167.417C116.573 167.786 116.518 168.11 116.419 168.39C116.32 168.67 116.165 168.903 115.955 169.089C115.745 169.276 115.47 169.413 115.131 169.5C114.792 169.588 114.378 169.625 113.886 169.61L105.925 169.368L105.995 167.047L113.132 167.264C113.345 167.27 113.488 167.236 113.56 167.159C113.632 167.084 113.67 166.948 113.676 166.751L113.683 166.506C113.688 166.35 113.665 166.24 113.614 166.178C113.562 166.116 113.459 166.073 113.304 166.051L107.968 165.213C107.609 165.152 107.301 165.069 107.047 164.963C106.793 164.858 106.585 164.72 106.426 164.551C106.267 164.382 106.154 164.178 106.089 163.938C106.022 163.698 105.995 163.415 106.005 163.087L106.024 162.461C106.044 161.814 106.23 161.318 106.585 160.972C106.94 160.626 107.519 160.466 108.322 160.49L116.27 160.731C116.524 160.739 116.647 160.874 116.639 161.135L116.583 162.978L114.211 163.767Z" fill="#F1F1F4"/>
<path d="M117.57 169.722L117.841 160.779L120.372 160.856L120.101 169.799L117.57 169.722Z" fill="#F1F1F4"/>
<path d="M129.492 166.247C129.496 166.116 129.494 165.979 129.485 165.835C129.477 165.691 129.467 165.566 129.454 165.459L129.457 165.349L131.963 165.425L131.83 169.811C131.823 170.04 131.717 170.152 131.513 170.146L124.781 169.942C124.117 169.921 123.554 169.82 123.093 169.638C122.632 169.456 122.263 169.207 121.985 168.891C121.708 168.576 121.509 168.197 121.392 167.754C121.275 167.313 121.224 166.82 121.241 166.28L121.297 164.437C121.314 163.897 121.394 163.409 121.538 162.975C121.681 162.541 121.902 162.175 122.198 161.876C122.495 161.578 122.879 161.352 123.35 161.198C123.822 161.044 124.389 160.977 125.053 160.997L131.747 161.2C131.984 161.207 132.101 161.334 132.093 161.579L132.034 163.508L129.661 164.297L129.562 164.294L129.588 163.434C129.591 163.352 129.556 163.31 129.482 163.308L125.208 163.178C124.963 163.171 124.755 163.187 124.586 163.227C124.416 163.267 124.276 163.34 124.166 163.448C124.057 163.555 123.974 163.701 123.92 163.883C123.865 164.066 123.833 164.293 123.824 164.563L123.777 166.136C123.76 166.676 123.851 167.056 124.05 167.276C124.249 167.496 124.59 167.612 125.073 167.627L129.311 167.756C129.401 167.758 129.447 167.711 129.45 167.612L129.492 166.247Z" fill="#F1F1F4"/>
<path d="M137.313 161.37C137.501 161.376 137.633 161.409 137.71 161.468C137.785 161.528 137.856 161.62 137.917 161.744L141.113 168.272C141.167 168.372 141.242 168.423 141.341 168.426L141.477 168.431C141.608 168.435 141.675 168.372 141.679 168.24L141.883 161.508L144.18 161.578L143.919 170.166C143.912 170.403 143.794 170.519 143.564 170.511L139.926 170.401C139.755 170.396 139.628 170.368 139.544 170.316C139.459 170.264 139.381 170.169 139.311 170.026L135.993 163.506C135.947 163.406 135.87 163.355 135.764 163.352L135.641 163.348C135.51 163.344 135.443 163.408 135.439 163.539L135.235 170.259L132.938 170.189L133.199 161.614C133.207 161.369 133.323 161.249 133.552 161.257L137.313 161.37Z" fill="#F1F1F4"/>
<path d="M90.0969 149.609C86.2849 143.048 79.5439 140.345 79.5439 140.345L77.1929 141.443L82.4869 151.047C81.7809 154.739 79.2479 156.767 79.2479 156.767L79.2409 156.751C79.2409 156.751 76.0599 157.392 72.7759 155.565L68.8059 145.342L66.4549 146.44C66.4549 146.44 64.2019 153.344 66.7879 160.478C66.7879 160.478 67.7909 162.792 67.9639 162.994C68.8959 164.081 71.3249 165.336 76.0189 165.045L92.2229 195.957C90.8779 198.273 90.6469 201.184 91.8639 203.79C93.8459 208.033 98.8849 209.863 103.128 207.88C107.371 205.897 109.201 200.859 107.218 196.616C106 194.01 103.62 192.32 100.981 191.865L87.6759 159.617C90.8419 156.275 91.5119 153.642 91.2709 152.122C91.2219 151.804 90.0969 149.609 90.0969 149.609ZM103.424 202.919L99.1319 204.924L95.2499 202.211L95.6599 197.492L99.9519 195.486L103.834 198.199L103.424 202.919Z" fill="url(#paint0_linear_144_995)"/>
<path d="M91.2727 152.125C87.4607 145.564 80.7197 142.861 80.7197 142.861L78.3687 143.959L83.6627 153.563C82.9567 157.255 80.4237 159.283 80.4237 159.283L80.4167 159.267C80.4167 159.267 77.2357 159.908 73.9517 158.081L69.9817 147.858L67.6307 148.956C67.6307 148.956 65.3777 155.86 67.9637 162.995C67.9637 162.995 71.6287 167.907 77.1947 167.562L93.3987 198.474C92.0537 200.79 91.8227 203.7 93.0397 206.307C95.0227 210.55 100.061 212.38 104.304 210.397C108.547 208.414 110.377 203.376 108.394 199.133C107.176 196.527 104.796 194.837 102.157 194.382L88.8517 162.134C92.6887 158.087 91.2727 152.125 91.2727 152.125ZM104.6 205.435L100.308 207.441L96.4257 204.728L96.8357 200.009L101.129 198.003L105.011 200.716L104.6 205.435Z" fill="url(#paint1_linear_144_995)"/>
<path d="M68.8067 145.344L66.4565 146.442L67.6321 148.958L69.9822 147.86L68.8067 145.344Z" fill="#E5E2FF"/>
<path d="M79.544 140.348L77.1938 141.446L78.3693 143.962L80.7195 142.864L79.544 140.348Z" fill="#E5E2FF"/>
<path d="M103.428 202.918L99.1353 204.924L100.311 207.44L104.603 205.434L103.428 202.918Z" fill="#E5E2FF"/>
<path d="M80.6641 169.86L93.7511 195.011C97.1891 195.169 99.0341 192.543 99.0341 192.543L88.3801 166.255C83.5971 166.078 80.6641 169.86 80.6641 169.86ZM98.0241 192.748C97.6411 193.079 97.0611 193.515 96.3301 193.857C95.7501 194.128 95.1441 194.31 94.5241 194.396L81.4181 169.762C82.0601 169.196 83.1561 168.353 84.5681 167.694C85.6271 167.199 86.7091 166.884 87.8081 166.739L98.0241 192.748Z" fill="url(#paint2_linear_144_995)"/>
<path d="M98.024 192.748L99.034 192.543C99.034 192.543 97.535 195.208 93.751 195.011L94.524 194.396C94.524 194.396 96.387 194.179 98.024 192.748Z" fill="#E5E2FF"/>
<path opacity="0.62" d="M80.6641 169.86L81.4171 169.762C81.4171 169.762 83.6531 167.441 87.8071 166.738L88.3801 166.254C88.3801 166.254 86.7111 165.962 84.1111 167.177C81.5111 168.393 80.6641 169.86 80.6641 169.86Z" fill="url(#paint3_linear_144_995)"/>
<path opacity="0.62" d="M77.1948 167.564C77.1948 167.564 83.4888 166.445 88.8528 162.136L90.5548 166.26C90.5548 166.26 88.6248 164.35 84.3898 166.076C79.4358 168.095 79.7068 172.08 79.7068 172.08L77.1948 167.564Z" fill="url(#paint4_linear_144_995)"/>
<path opacity="0.5" d="M90.5538 166.26C89.3468 165.393 87.9648 165.366 87.9648 165.366L100.631 195.961L102.158 194.384L90.5538 166.26Z" fill="url(#paint5_linear_144_995)"/>
<path d="M90.5541 166.26C90.5541 166.26 89.2251 170.348 93.0411 172.287L90.5541 166.26Z" fill="white"/>
<path d="M281.232 364H234.23C229.31 336.68 217.869 301.13 217.869 301.13C215.089 299.48 209.66 301.51 209.66 301.51L192.48 364H149.539C147.259 325.44 168.36 281.67 168.36 281.67L168.35 281.66C168.28 281.51 167.609 280.17 167.789 279.27C167.859 278.88 168.58 278.14 169.39 277.41C170.55 276.35 171.929 275.29 171.929 275.29L252.04 274.79C252.04 274.79 252.85 275.2 253.88 275.82H253.89C255.64 276.88 258.01 278.52 258.01 279.72C258.01 281.37 257.36 282.44 257.2 282.68L257.16 282.73C274.337 315.147 281.232 364 281.232 364Z" fill="url(#paint6_linear_144_995)"/>
<path opacity="0.5" d="M189.325 335.946C183.575 360.868 171.094 379.267 161.448 377.041C151.802 374.815 148.644 352.808 154.393 327.886C160.143 302.964 172.624 284.565 182.27 286.791C191.917 289.017 195.075 311.024 189.325 335.946Z" fill="url(#paint7_radial_144_995)"/>
<path opacity="0.5" d="M272.32 326.63C279.221 351.258 277.089 373.388 267.556 376.059C258.024 378.73 244.702 360.931 237.801 336.303C230.9 311.675 233.032 289.545 242.565 286.874C252.096 284.203 265.418 302.003 272.32 326.63Z" fill="url(#paint8_radial_144_995)"/>
<path d="M186.92 364.042L186.427 363.958C191.892 331.759 205.765 304.754 205.904 304.484L205.962 304.411L209.496 301.321L209.825 301.698L206.327 304.756C205.704 305.975 192.272 332.513 186.92 364.042Z" fill="url(#paint9_linear_144_995)"/>
<path d="M240.61 364.042C235.254 332.49 221.451 305.695 220.831 304.504L217.703 301.696L218.037 301.323L221.253 304.231C221.396 304.502 235.637 331.757 241.103 363.958L240.61 364.042Z" fill="url(#paint10_linear_144_995)"/>
<path opacity="0.76" d="M258.01 279.72C258.01 281.37 257.36 282.44 257.2 282.68L257.16 282.73C240.48 286.5 227.79 302.07 227.79 302.07C236.88 319.51 252.04 364 252.04 364H234.23C229.31 336.68 217.87 301.13 217.87 301.13C215.09 299.48 209.66 301.51 209.66 301.51L192.48 364H181.36C185.34 337.82 197.09 305.86 197.09 305.86C185.54 292.41 168.36 281.67 168.36 281.67L168.35 281.66L166.31 280.38L167.79 279.27C175.22 286.4 199.18 295.71 199.92 296L169.39 277.41C170.55 276.35 171.93 275.29 171.93 275.29L252.04 274.79C252.04 274.79 252.85 275.2 253.88 275.82L232 287.86L258.01 279.72Z" fill="url(#paint11_linear_144_995)"/>
<path opacity="0.76" d="M217.87 301.13L227.221 295.063L225 301.13L223.372 319.395L217.87 301.13Z" fill="url(#paint12_linear_144_995)"/>
<path opacity="0.76" d="M209.659 301.51L199.919 296L179.065 286.609L205.62 304.158L207.202 310.448L209.659 301.51Z" fill="url(#paint13_linear_144_995)"/>
<path d="M236.46 113.65C236.52 114.08 236.57 114.31 236.57 114.31C236.08 116.35 235.52 118.24 234.91 119.97C232.95 125.6 230.51 129.6 228.68 132.09C227.09 134.24 225.96 135.27 225.96 135.27C211.37 130.69 204.18 116.42 201.42 109.32C201.4 109.29 201.39 109.25 201.38 109.21C200.85 107.87 200.5 106.79 200.28 106.09C200.28 106.09 200.28 106.09 200.28 106.08C200.11 105.52 200.03 105.21 200.03 105.21C200.09 105.09 200.15 104.96 200.21 104.84L200.24 104.79C200.48 104.29 200.72 103.78 200.94 103.29C202.85 99.1098 204.12 95.1998 204.94 92.1198C205.65 89.4998 206.03 87.4798 206.21 86.4098C206.3 85.8598 206.34 85.5598 206.34 85.5598L213.14 89.1498L236.57 101.55C236.22 103.7 236.08 105.72 236.07 107.49C236.05 108.74 236.09 109.86 236.16 110.81C236.23 111.97 236.35 112.89 236.44 113.49V113.5C236.44 113.56 236.45 113.6 236.46 113.65Z" fill="#FE9083"/>
<path d="M229.959 136.84C228.609 138.18 227.019 139.38 225.119 140.38C225.079 140.41 225.039 140.43 224.999 140.45C224.999 140.45 224.949 140.42 224.859 140.37L224.849 140.36C224.339 140.05 222.599 138.98 220.259 137.22C214.139 132.61 203.919 123.29 200.999 110.73C200.989 110.71 200.989 110.7 200.979 110.68C200.639 109.19 200.399 107.67 200.279 106.09C200.279 106.09 200.279 106.09 200.279 106.08C200.249 105.67 200.219 105.26 200.209 104.84C200.209 104.84 202.239 109.61 205.759 114.76C209.899 120.82 216.109 127.43 223.529 127.47C229.949 127.51 233.239 123.12 234.909 119.07C235.619 117.35 236.039 115.7 236.259 114.47C236.269 114.46 236.269 114.45 236.269 114.45C236.339 114.09 236.389 113.77 236.439 113.5V113.49C236.459 113.35 236.479 113.23 236.489 113.12C236.549 112.67 236.569 112.41 236.569 112.41C236.569 112.41 239.029 127.77 229.959 136.84Z" fill="url(#paint14_linear_144_995)"/>
<path opacity="0.5" d="M229.959 136.84C228.609 138.18 227.019 139.38 225.119 140.38H224.999L224.859 140.37L224.849 140.36C224.339 140.05 222.599 138.98 220.259 137.22C214.139 132.61 203.919 123.29 200.999 110.73C200.989 110.71 200.989 110.7 200.979 110.68C200.639 109.19 200.399 107.67 200.279 106.09C200.279 106.09 200.279 106.09 200.279 106.08C200.249 105.67 200.219 105.26 200.209 104.84C200.209 104.84 202.239 109.61 205.759 114.76C205.759 114.76 209.799 125.86 218.539 131.36C222.919 134.11 226.239 133.71 228.679 132.09C231.119 130.48 232.699 127.67 233.629 125.55C234.559 123.42 234.859 121.43 234.909 119.97C234.919 119.64 234.919 119.34 234.909 119.07C235.619 117.35 236.039 115.7 236.259 114.47C236.269 114.46 236.269 114.45 236.269 114.45C236.339 114.09 236.389 113.77 236.439 113.5V113.49C236.459 113.35 236.479 113.23 236.489 113.12C236.549 112.67 236.569 112.41 236.569 112.41C236.569 112.41 239.029 127.77 229.959 136.84Z" fill="url(#paint15_linear_144_995)"/>
<path d="M286.12 227.53C286.01 227.58 285.96 227.61 285.96 227.61C285.14 227.71 282.59 227.15 279.25 224.26L279.24 224.25C279.24 224.24 279.23 224.23 279.21 224.22C279.2 224.21 279.19 224.19 279.17 224.18C276.37 221.73 273.01 217.64 269.66 210.94C262.96 197.55 261.04 188.61 260.73 187.05L260.69 186.81L256.78 193.01C254.13 200.98 249.11 233.96 249.2 235.38C249.29 236.8 253.65 243.72 253.56 244.57C253.56 244.57 253.559 244.58 253.549 244.59C253.429 245.45 251.47 247.34 250.91 249.4C250.53 250.77 253.19 255.09 255.06 258.32V258.33C256.03 260.01 256.78 261.39 256.78 261.91C256.78 263.42 252.04 270.81 252.04 270.81V274.79L251.97 274.86L251.75 275.06L251.57 275.21C249.77 276.63 242.139 281.28 218.299 282.56C190.049 284.07 171.23 274.98 171.23 274.98L172.65 271.09C172.65 271.09 171.33 269.96 171.23 269.39C171.14 268.82 172.27 267.49 172.27 267.49C172.27 267.49 169.43 265.98 169.43 264.08C169.43 262.19 175.12 256.32 174.93 251.29C174.74 246.27 170.38 241.82 169.81 238.98C169.24 236.14 177.2 229.13 177.2 229.13C170.38 207.53 169.05 178.54 169.05 178.54L167.73 177.02C167.73 177.02 159.58 195.59 152.19 204.68C151.31 205.76 150.38 206.83 149.42 207.86C147.36 210.09 145.17 212.18 143.06 214.01C137.94 218.47 133.29 221.4 132.11 221.17C130.21 220.79 122.63 205.82 122.98 190.47C123.14 183.17 127.54 175 132.11 168.45C132.6 167.75 133.09 167.06 133.59 166.39C136.83 161.98 139.94 158.52 141.43 156.94C142.01 156.32 142.34 155.99 142.34 155.99C142.34 155.99 141.3 152.64 140.59 149.73C140.58 149.66 140.56 149.59 140.54 149.52C140.54 149.49 140.53 149.45 140.52 149.42C140.51 149.37 140.5 149.35 140.5 149.35C140.08 147.56 139.82 146.01 140.06 145.63C140.69 144.62 144.36 143.48 144.99 142.73C145.62 141.97 148.27 129.21 150.29 127.82C152.23 126.49 155.64 125.52 167.01 121.05C167.57 120.83 168.14 120.61 168.74 120.37C181.49 115.32 194 109.19 194 109.19L198.799 103.29H200.94L200.24 104.79L200.21 104.84C200.55 106.36 200.94 107.82 201.38 109.21C201.39 109.25 201.4 109.29 201.42 109.32C208.02 130.14 225 136.85 225 136.85C236.8 128.14 236.57 114.31 236.57 114.31V112.41L238.78 113.07L240.29 116.67C240.29 116.67 242.85 120.65 252.99 125.11C254.74 125.88 256.62 126.85 258.56 127.96C267.84 133.23 278.16 141.38 278.95 143.11C279.03 143.29 279.12 143.57 279.22 143.97V143.98C280.31 148.26 282.55 164.29 284.63 170.01C285.93 173.58 287.98 175.55 289.49 176.57C289.5 176.58 289.5 176.58 289.51 176.58C290.63 177.35 291.45 177.59 291.45 177.59C291.61 178.47 291.76 179.34 291.9 180.2C296.25 207.62 287.98 226.23 286.12 227.53Z" fill="url(#paint16_linear_144_995)"/>
<path opacity="0.5" d="M177.29 175.77L169.05 178.54L167.73 177.02C167.73 177.02 159.58 195.59 152.19 204.68C151.31 205.76 150.38 206.83 149.42 207.86C147.36 210.09 145.17 212.18 143.06 214.01L136.78 186.94L133.59 166.39C136.83 161.98 139.94 158.52 141.43 156.94C142.01 156.32 142.34 155.99 142.34 155.99C142.34 155.99 141.3 152.64 140.59 149.73C140.58 149.66 140.56 149.59 140.54 149.52C140.54 149.49 140.53 149.45 140.52 149.42C140.51 149.37 140.5 149.35 140.5 149.35C140.08 147.56 139.82 146.01 140.06 145.63C140.69 144.62 144.36 143.48 144.99 142.73C145.62 141.97 148.27 129.21 150.29 127.82C150.29 127.82 148.97 140.07 155.98 155.61L159.39 160.41L169.37 168.43C169.37 168.43 173.16 173.46 177.29 175.77Z" fill="url(#paint17_linear_144_995)"/>
<path d="M153.45 197.93C151.68 211.06 132.11 221.17 132.11 221.17C127.75 221.17 122.88 213.59 118.46 204.24C114.04 194.89 113.77 168.03 113.54 166.37C113.3 164.71 110.84 161.39 110.69 159.97C110.55 158.55 114.67 155.61 114.67 155.61L114.64 155.54L114.61 155.47C114.18 154.55 111.76 149.36 111.93 148.41C112.12 147.37 116.75 145.1 116.75 145.1L117.04 150.21C117.04 150.21 127.82 148.17 131.47 139.82L132.11 137.26L133.91 138.46V149.45C133.91 149.45 134.28 151.16 134.85 151.16C135.42 151.16 139.62 149.06 140.5 149.35C141.39 149.64 142.26 155.52 143.44 156.27C144.61 157.03 147.74 159.21 148.21 160.25C148.42 160.72 148.44 162.41 148.46 164.4C148.49 166.84 148.51 169.72 148.87 171.34C149.54 174.27 155.22 184.79 153.45 197.93Z" fill="url(#paint18_linear_144_995)"/>
<path d="M332.44 186.68C331.56 188.07 327.14 190.98 326 192.12C324.86 193.25 326 196.99 326 196.99C307.43 216.7 288.07 226.57 286.12 227.53C286.01 227.58 285.96 227.61 285.96 227.61C274.3 219.77 275.3 206.86 279.17 195.98C282.87 185.54 289.21 176.97 289.49 176.6L289.5 176.59C289.5 176.59 289.5 176.59 289.51 176.58C289.72 176.5 293.05 175.12 295.43 174.94C296.22 174.88 296.94 175.19 297.62 175.62C299.04 176.5 300.24 177.89 301.4 177.31C303.11 176.45 306.93 167.42 309.52 167.17C311.33 167 313.84 168.84 315.51 169.89C316.24 170.35 316.81 170.66 317.09 170.58C318.04 170.33 321.26 166.47 321.52 166.37C321.77 166.26 323.24 167.34 323.24 167.34L322.21 168.62C323.79 177.72 328.97 183.84 328.97 183.84L332.44 178.76C332.44 178.76 333.33 185.29 332.44 186.68Z" fill="url(#paint19_linear_144_995)"/>
<path d="M236.509 113.26C236.489 113.39 236.469 113.52 236.459 113.65C236.409 113.92 236.349 114.18 236.269 114.45C236.269 114.45 236.269 114.46 236.259 114.47C235.069 118.88 230.259 123.39 224.189 121.22C217.559 118.85 204.939 92.1199 204.939 92.1199L206.209 86.4099L236.159 110.81L236.489 113.12L236.509 113.26Z" fill="#CB4D7A"/>
<path d="M136.779 108.368C136.779 108.368 134.947 98.263 135.769 90.81C136.59 83.357 135.557 74.894 135.557 74.894C135.557 74.894 133.748 74.136 132.421 74.894C131.095 75.652 128 83.357 129.389 89.547C130.778 95.736 129.705 110.579 129.705 110.579H127.621L123.074 104.326L120.863 103.694C120.863 103.694 108.137 115.694 108.326 122.831L109.989 129.178L125.663 128.641L135.895 116.957L136.779 108.368Z" fill="#EE8183"/>
<path d="M120.863 103.695C120.863 103.695 121.192 111.653 122.978 118.474C122.978 118.474 122.679 121.269 119.411 121.458L118.606 120.558C118.606 120.558 118.037 123.732 115.148 123.968L112.401 121.221L113.111 123.495C113.111 123.495 112.116 125.911 109.511 125.816C109.511 125.816 105.153 122.406 104.869 117.953L109.177 114.306V111.511L114.295 107.911L114.39 105.874C114.39 105.874 117.389 103.647 120.863 103.695Z" fill="url(#paint20_linear_144_995)"/>
<path opacity="0.6" d="M135.951 88.6721C135.951 88.6721 135.184 90.6221 134.094 91.3791C133.005 92.1371 129.848 92.7171 129.848 92.7171L129.705 110.579H127.621L123.074 104.326C123.074 104.326 125.379 107.894 125.521 110.579L123.721 111.463L122.158 106.11L121.417 109.962L122.154 114.755C122.154 114.755 124.85 112.435 129.729 112.34L130.463 113.672C130.463 113.672 121.637 120.983 119.6 125.293C119.6 125.293 123.958 119.751 133.905 113.64L134.852 110.703L136.109 103.692C136.11 103.694 134.918 93.5901 135.951 88.6721Z" fill="url(#paint21_linear_144_995)"/>
<path d="M143.35 119.8C142.53 122.26 133.94 132.49 132.99 134.71C132.04 136.92 131.47 139.82 131.47 139.82C127.25 148.95 117.04 150.21 117.04 150.21L116.57 141.97C116.57 141.97 111.08 138.81 110.15 137.08L110.14 137.05L110.03 136.76C109.75 135.15 109.99 129.18 109.99 129.18L119.6 125.29C123.77 119.89 133.91 113.64 133.91 113.64L134.38 110.81C127.1 107.23 128.32 96.4 129.55 95.07C130.78 93.75 133.05 93.75 133.05 93.75C133.05 93.75 135.71 102.46 137.41 106.54C139.12 110.61 144.17 117.34 143.35 119.8Z" fill="url(#paint22_linear_144_995)"/>
<path d="M114.388 105.874C114.388 105.874 115.462 115.821 118.604 120.558C118.604 120.558 114.609 115.6 114.293 107.911L114.388 105.874Z" fill="#E28183"/>
<path d="M109.177 111.51C109.177 111.51 110.221 119.515 115.148 123.968C115.148 123.968 110.786 121.789 109.177 114.305V111.51Z" fill="#E28183"/>
<path opacity="0.91" d="M134.322 132.589C134.322 132.589 123.487 143.109 116.57 141.97L117.04 150.21C117.04 150.21 128.41 149.216 132.105 137.255C132.105 137.255 133.435 133.818 134.322 132.589Z" fill="url(#paint23_linear_144_995)"/>
<path d="M363.36 146.89C363.36 146.89 353.41 165.08 341.76 170.67H337.78L328.59 184.6C328.59 184.6 322.65 180.87 322.21 168.62C322.21 168.62 324.29 166.45 324.8 164C324.8 164 321.52 161.42 320.63 159.53C319.75 157.63 319.43 151.95 318.8 149.61C318.17 147.27 312.8 142.41 311.6 141.78C310.4 141.15 304.97 140.83 304.97 140.83C304.97 140.83 304.21 138.87 304.97 137.93C305.73 136.98 314.19 133.69 318.8 136.85C318.8 136.85 319.12 139.25 319.62 140.52C320.13 141.78 324.17 146.26 324.8 146.26C325.43 146.26 328.15 143.99 329.35 142.22C330.5 140.52 336.61 127.35 338.09 122.9C338.1 122.85 338.11 122.81 338.13 122.77C338.15 122.7 338.18 122.63 338.19 122.57C338.21 122.52 338.22 122.48 338.23 122.44C338.24 122.42 338.25 122.41 338.25 122.39C339.39 118.54 346.02 111.15 349.56 109.13C349.56 109.13 351.07 108.75 351.89 110.64C351.89 110.64 349.05 118.73 346.08 123.53C345.58 124.34 345.04 125.29 344.48 126.31C344.48 126.31 344.48 126.31 344.47 126.31C341.94 130.96 339.09 137.05 338.68 137.94L338.63 138.05L340.21 138.86L344.48 134.81L348.86 130.66L358.91 141.27L357.92 142.53L354.78 146.56L356.37 146.85L360.07 142.76L363.36 146.89Z" fill="url(#paint24_linear_144_995)"/>
<path opacity="0.6" d="M361.032 150.757L357.853 155.429C357.853 155.429 340.4 141.97 336.61 140.83C332.82 139.69 331.43 140.45 331.43 140.45L327.52 145.44C327.52 145.44 334.72 151.82 335.35 160.41C335.35 160.41 332.95 149.55 324.8 146.26C325.43 146.26 328.15 143.99 329.35 142.22C330.5 140.52 336.61 127.35 338.09 122.9C337.89 123.66 337.63 125.14 338.25 126.31C339.11 127.9 344.17 126.4 344.47 126.31C344.48 126.31 344.48 126.31 344.48 126.31L338.68 137.94L338.63 138.05L340.21 138.86L344.48 134.81L342.34 139.78L357.92 142.53L354.78 146.56L356.37 146.85L361.032 150.757Z" fill="url(#paint25_linear_144_995)"/>
<path d="M348.863 130.663C348.863 130.663 351.894 130.221 353.852 134.137L353.41 135.4C353.41 135.4 356.365 135.979 359.221 140.768C359.221 140.768 356.695 145.379 350.442 147.463C350.442 147.463 347.537 146.642 347.032 144.179L347.6 142.6L345.326 144.305C345.326 144.305 342.61 145.126 341.41 141.084L348.863 130.663Z" fill="url(#paint26_linear_144_995)"/>
<path d="M364.274 145.632C364.274 145.632 364.906 142.727 361.811 140.832L355.811 147.464C355.811 147.464 355.993 149.59 358.59 150.053C358.59 150.053 362.695 148.663 364.274 145.632Z" fill="url(#paint27_linear_144_995)"/>
<path opacity="0.91" d="M320.629 159.53C320.629 159.53 327.58 167.287 337.779 170.67L333.384 177.332L324.212 165.685L324.799 164C324.799 164 321.132 161.242 320.629 159.53Z" fill="url(#paint28_linear_144_995)"/>
<path d="M353.41 135.4C353.41 135.4 350.505 140.2 347.6 142.6L347.032 144.179C347.032 144.179 352.671 140.373 354.746 135.976C354.746 135.976 354.074 135.495 353.41 135.4Z" fill="#E28183"/>
<path opacity="0.5" d="M332.439 186.68C331.559 188.07 327.139 190.98 325.999 192.12C324.859 193.25 325.999 196.99 325.999 196.99C307.429 216.7 288.069 226.57 286.119 227.53C286.009 227.58 285.959 227.61 285.959 227.61C284.439 227.8 277.049 225.72 269.659 210.94C262.959 197.55 261.039 188.61 260.729 187.05L260.689 186.81L262.319 184.6L264.739 157.32L266.439 162.81C272.879 155.04 278.949 143.11 278.949 143.11L279.219 143.97V143.98C280.309 148.26 282.549 164.29 284.629 170.01C285.929 173.58 287.979 175.55 289.489 176.57L289.499 176.59L289.489 176.6C283.559 182.01 280.619 189.79 279.169 195.98C277.839 201.66 277.749 206.01 277.749 206.01C277.749 206.01 279.389 198.31 284.569 189.05C286.449 185.68 289.189 182.67 291.899 180.2C293.939 178.34 295.969 176.78 297.619 175.62C299.039 176.5 300.239 177.89 301.399 177.31C293.599 189.02 293.789 212.2 301.119 207.78C308.439 203.36 310.115 193.979 310.115 193.979C308.385 182.549 308.901 169.657 310.291 167.208C311.978 167.264 316.809 170.661 317.089 170.581C316.649 184.031 322.969 193.011 322.969 193.011L327.139 186.561C321.069 176.331 321.519 166.371 321.519 166.371C321.769 166.261 323.239 167.341 323.239 167.341L322.209 168.621C323.789 177.721 328.969 183.841 328.969 183.841L332.439 178.761C332.439 178.761 333.329 185.29 332.439 186.68Z" fill="url(#paint29_linear_144_995)"/>
<path opacity="0.5" d="M252.039 270.81V274.79L251.969 274.86L251.749 275.06L251.569 275.21C249.769 276.63 242.139 281.28 218.299 282.56C190.049 284.07 171.229 274.98 171.229 274.98L172.649 271.09C172.649 271.09 171.329 269.96 171.229 269.39C171.139 268.82 172.269 267.49 172.269 267.49C172.269 267.49 169.429 265.98 169.429 264.08C169.429 262.37 174.069 257.42 174.819 252.77C174.909 252.27 174.949 251.78 174.929 251.29C174.739 246.29 170.419 241.86 169.819 239.02C169.809 238.99 169.809 238.98 169.809 238.98C169.239 236.14 177.199 229.13 177.199 229.13C170.379 207.53 169.049 178.54 169.049 178.54L167.729 177.02C167.729 177.02 159.579 195.59 152.189 204.68C144.799 213.78 133.999 221.55 132.109 221.17C127.749 221.17 122.879 213.59 118.459 204.24C114.039 194.89 113.769 168.03 113.539 166.37C113.299 164.71 110.839 161.39 110.689 159.97C115.429 168.12 122.979 165.72 122.979 165.72C117.509 165.84 114.669 155.61 114.669 155.61L114.639 155.54L114.609 155.47L111.939 148.42C112.239 148.76 118.489 155.75 124.529 151.44C130.719 147.02 133.909 138.46 133.909 138.46V149.45C133.909 149.45 134.279 151.16 134.849 151.16C134.479 156.22 133.409 162.38 132.109 168.45C129.299 181.58 125.449 194.26 125.449 194.26C125.449 194.26 135.889 188.58 139.559 174.18C141.309 167.29 141.599 161.3 141.429 156.94C141.279 153.21 140.789 150.66 140.589 149.73C140.579 149.66 140.559 149.59 140.539 149.52C140.539 149.49 140.529 149.45 140.519 149.42C140.519 149.4 140.509 149.38 140.509 149.37L141.519 151.51L143.439 156.27C145.669 174.75 141.069 202.6 141.069 202.6C147.769 194.26 149.159 175.82 148.869 171.34C148.739 169.2 148.569 166.56 148.459 164.4C148.309 162.04 148.209 160.25 148.209 160.25L161.919 168.43L159.389 160.41L169.369 168.43C169.369 168.43 178.339 179.23 187.559 180.49C196.779 181.76 230.629 181 230.629 181C230.629 181 201.199 182.89 192.609 185.42C184.019 187.95 182.379 190.85 182.379 190.85C188.589 222.44 222.959 233.09 224.029 233.41C192.849 228.73 178.339 202.22 178.339 202.22C178.339 202.22 177.829 217.13 180.229 222.81C182.629 228.49 196.779 242.39 214.969 245.29C216.499 245.53 218.009 245.68 219.499 245.75C234.839 246.47 247.539 238.63 248.839 237.79C248.909 237.74 248.949 237.72 248.949 237.72C248.949 237.72 248.939 237.74 248.919 237.77C248.429 238.52 242.139 247.36 216.739 248.33C215.199 248.39 213.699 248.38 212.239 248.32C212.229 248.32 212.219 248.32 212.219 248.32C188.679 247.33 176.689 231.65 176.689 231.65C176.689 231.65 167.979 236.33 173.539 243.27C173.599 243.34 173.659 243.42 173.719 243.49C175.359 245.38 178.969 247.69 183.239 250.07C183.359 250.14 183.479 250.21 183.589 250.27C188.749 253.12 194.799 256.06 199.479 258.49C199.509 258.5 199.529 258.51 199.549 258.52C202.409 260.01 204.759 261.29 206.069 262.25C206.079 262.25 206.079 262.26 206.079 262.26C207.399 263.22 207.669 263.84 206.379 263.99C199.809 264.75 174.929 259.32 173.919 260.83C172.909 262.35 175.149 266.26 175.149 266.26C197.989 277.58 246.859 272 248.399 271.83C207.499 282.3 174.039 269.04 174.039 269.04L175.149 272.96C175.149 272.96 193.369 279.27 214.839 279.78C236.319 280.28 249.709 274.79 249.709 274.79L252.039 270.81Z" fill="url(#paint30_linear_144_995)"/>
<path opacity="0.5" d="M235.305 180.874C235.305 180.874 251.573 181.758 262.323 184.6L256.779 193.009C256.779 193.009 248.442 185.674 235.305 180.874Z" fill="url(#paint31_linear_144_995)"/>
<path opacity="0.5" d="M250.506 225.713C250.506 225.713 240.358 234.179 230.379 238.095C220.4 242.011 210.8 242.39 210.8 242.39C210.8 242.39 216.537 244.095 230.653 241.822C244.769 239.548 249.599 231.903 249.599 231.903L250.506 225.713Z" fill="url(#paint32_linear_144_995)"/>
<path opacity="0.5" d="M255.059 258.32V258.33C236.279 263.18 212.439 256.22 212.639 255.37C212.839 254.52 219.169 255.75 233.849 252.81C248.079 249.96 253.239 244.9 253.549 244.59C253.429 245.45 251.469 247.34 250.909 249.4C250.529 250.77 253.189 255.09 255.059 258.32Z" fill="url(#paint33_linear_144_995)"/>
<path opacity="0.5" d="M204.049 183.42C188.009 185.05 183.689 189.52 183.689 189.52C179.179 190.09 169.049 178.54 169.049 178.54L167.729 177.02C167.729 177.02 159.579 195.59 152.189 204.68C151.309 205.76 150.379 206.83 149.419 207.86L150.469 205.5C150.469 205.5 152.189 204.68 152.689 195.65C153.199 186.63 148.899 173.17 148.869 171.34C148.839 169.51 148.209 160.25 148.209 160.25L161.919 168.43L159.389 160.41L169.369 168.43C169.369 168.43 173.279 174.31 183.149 179.21C192.459 183.84 202.899 183.47 204.049 183.42Z" fill="url(#paint34_linear_144_995)"/>
<path opacity="0.5" d="M167.729 177.02L177.285 175.772C177.285 175.772 181.106 178.303 188.772 181.423L182.38 190.85C182.38 190.85 184.916 204.289 192.196 211.862C192.196 211.862 172.874 201.131 170.158 192.107L167.729 177.02Z" fill="url(#paint35_linear_144_995)"/>
<path opacity="0.5" d="M111.939 148.42L114.669 155.61C114.669 155.61 117.454 165.314 122.979 165.72C128.504 166.126 133.909 149.45 133.909 149.45V138.46C133.909 138.46 128.031 151.063 121.683 152.484C115.336 153.905 111.939 148.42 111.939 148.42Z" fill="url(#paint36_linear_144_995)"/>
<path opacity="0.5" d="M144.99 142.73C144.99 142.73 149.916 152.579 155.979 155.611C155.979 155.611 148.769 138.114 150.29 127.821C150.29 127.821 147.64 129.47 144.99 142.73Z" fill="url(#paint37_linear_144_995)"/>
<path opacity="0.76" d="M264.739 157.32L266.439 162.81L268.164 207.86C268.164 207.86 263.796 199.289 260.729 187.05L262.322 184.6C262.322 184.6 264.995 167.619 264.739 157.32Z" fill="url(#paint38_linear_144_995)"/>
<path opacity="0.5" d="M317.09 170.58C317.09 170.58 316.128 192.71 325.533 194.624L326 196.99C326 196.99 313.833 196.539 317.09 170.58Z" fill="url(#paint39_linear_144_995)"/>
<path opacity="0.3" d="M301.399 177.31C301.399 177.31 301.039 178.103 297.619 175.62C297.619 175.62 285.788 183.999 281.231 195.81C281.231 195.81 288.523 184.959 292.403 183.785C296.283 182.611 297.22 186.941 297.22 186.941C297.22 186.941 298.755 180.841 301.399 177.31Z" fill="url(#paint40_linear_144_995)"/>
<path opacity="0.5" d="M110.69 159.97C110.69 159.97 115.242 168.36 123.768 165.727C123.768 165.727 118.658 169.171 113.54 166.37C113.54 166.37 110.363 160.917 110.69 159.97Z" fill="url(#paint41_linear_144_995)"/>
<path opacity="0.5" d="M140.5 149.35C140.5 149.35 146.758 172.749 130.432 190.327C130.432 190.327 141.037 184.884 143.44 172.284C145.842 159.684 140.5 149.35 140.5 149.35Z" fill="url(#paint42_linear_144_995)"/>
<path opacity="0.5" d="M252.64 130.648C252.64 130.648 251.935 141.21 246.873 148.789C241.811 156.368 231.769 161.484 231.769 161.484C231.769 161.484 244.369 156.842 250.148 150.305C255.926 143.768 252.64 130.648 252.64 130.648Z" fill="url(#paint43_linear_144_995)"/>
<path opacity="0.5" d="M188.189 114.756C188.189 114.756 188.189 123.588 191.031 132.588C193.873 141.589 218.543 157.315 218.543 157.315C218.543 157.315 193.115 146.752 188.189 137.255C183.263 127.758 188.189 114.756 188.189 114.756Z" fill="url(#paint44_linear_144_995)"/>
<path d="M187.901 156.815V171.2C187.901 171.2 221.011 170.933 258.138 173.392L258.986 160.445C258.986 160.445 226.709 156.618 187.901 156.815Z" fill="url(#paint45_linear_144_995)"/>
<path opacity="0.5" d="M240.29 116.67C239.51 125.97 236.68 132.45 233.66 136.82C229.5 142.82 225 144.87 225 144.87C220.5 142.91 216.6 140.47 213.24 137.78C198.98 126.38 194.38 110.58 194.03 109.28C200.05 123.82 208.89 132.63 215.59 137.59C220.99 141.6 225 143.11 225 143.11V138.46C223.93 138.06 222.89 137.6 221.9 137.1C210.1 131.15 203.9 118.75 201 110.73C200.99 110.71 200.99 110.7 200.98 110.68C199.41 106.34 198.8 103.29 198.8 103.29H200.94L200.24 104.79L200.21 104.84C200.55 106.36 200.94 107.82 201.38 109.21C201.39 109.25 201.4 109.29 201.42 109.32C208.02 130.14 225 136.85 225 136.85C236.8 128.14 236.57 114.31 236.57 114.31V112.41L238.78 113.07L240.29 116.67Z" fill="url(#paint46_linear_144_995)"/>
<path opacity="0.3" d="M310.291 167.207C310.291 167.207 307.083 177.684 310.115 193.978C310.115 193.978 311.631 173.325 312.768 171.525C313.905 169.725 317.09 170.579 317.09 170.579C317.09 170.579 312.078 167.815 310.291 167.207Z" fill="url(#paint47_linear_144_995)"/>
<path opacity="0.5" d="M279.169 224.18C276.369 221.73 273.009 217.64 269.659 210.94C262.959 197.55 261.039 188.61 260.729 187.05L262.319 184.6L264.449 164L266.439 162.81C266.439 162.81 273.549 154.96 278.949 143.11C279.029 143.29 279.119 143.57 279.219 143.97V143.98C280.309 148.26 282.549 164.29 284.629 170.01C285.929 173.58 287.979 175.55 289.489 176.57C289.489 176.57 277.179 194.83 276.579 207.86C276.049 219.72 278.689 223.58 279.169 224.18Z" fill="url(#paint48_linear_144_995)"/>
<path opacity="0.5" d="M206.08 262.26C206.08 262.26 183.89 258.62 174.83 252.78C174.83 252.78 174.82 252.78 174.82 252.77C174.91 252.27 174.95 251.78 174.93 251.29C174.74 246.29 170.42 241.86 169.82 239.02C169.92 239.29 170.57 240.79 173.72 243.49C175.71 245.2 178.72 247.4 183.24 250.07C183.36 250.14 183.48 250.21 183.59 250.27C189.99 254.05 195.5 256.61 199.48 258.49C199.51 258.5 199.53 258.51 199.55 258.52C203.13 260.2 205.45 261.31 206.07 262.25C206.08 262.25 206.08 262.26 206.08 262.26Z" fill="url(#paint49_linear_144_995)"/>
<path opacity="0.5" d="M253.55 244.59C253.43 245.45 251.47 247.34 250.91 249.4C250.91 249.4 242.77 258.02 212.64 255.37C212.84 254.52 219.17 255.75 233.85 252.81C248.08 249.96 253.24 244.9 253.55 244.59Z" fill="url(#paint50_linear_144_995)"/>
<path opacity="0.5" d="M258.56 127.96L239.3 134.2L233.66 136.82L233.63 136.83L229.96 136.84L225 136.85L221.9 137.1L220.26 137.22L215.59 137.59L213.24 137.78L190.14 129.42L186.01 127.93L167.01 121.05C167.57 120.83 168.14 120.61 168.74 120.37C181.49 115.32 194 109.19 194 109.19L198.8 103.29H200.94C202.85 99.1098 204.12 95.1998 204.94 92.1198L206.21 86.4098C206.3 85.8598 206.34 85.5598 206.34 85.5598L213.14 89.1498L236.07 107.49C236.05 108.74 236.09 109.86 236.16 110.81L236.49 113.12C236.55 112.67 236.57 112.41 236.57 112.41L238.78 113.07L240.29 116.67C240.29 116.67 242.85 120.65 252.99 125.11C254.74 125.88 256.62 126.85 258.56 127.96Z" fill="#7A4AC0"/>
<path d="M243.89 110.39C243.89 110.39 234.91 112.41 225 107.61C215.09 102.81 206.76 88.6598 206.25 85.1298C205.75 81.5898 210.04 72.3698 210.04 65.1698C210.04 57.9698 206.51 45.5898 212.44 38.8898C218.38 32.1998 245.66 31.1898 254.51 39.7798C254.51 39.7798 257.25 46.6598 257.25 50.5498C257.25 51.4898 257.08 52.8698 256.83 54.4598C256.75 55.0498 256.64 55.6798 256.54 56.3298C255.75 61.0398 254.66 66.7898 255.17 69.3098C255.35 70.1898 255.63 70.9998 255.96 71.7698V71.7798C257.05 74.2998 258.67 76.3098 258.96 78.4898C259.34 81.3398 255.52 101.55 243.89 110.39Z" fill="url(#paint51_linear_144_995)"/>
<path d="M209.966 63.137C209.966 63.137 207.515 56.99 201.357 56.895C201.357 56.895 197.757 58.316 197.189 61.064C197.189 61.064 198.515 71.011 200.031 75.653C201.547 80.295 207.105 79.624 207.105 79.624C207.105 79.624 211.943 72.221 209.966 63.137Z" fill="url(#paint52_linear_144_995)"/>
<path d="M233.633 83.3919C233.633 83.3919 235.684 83.2319 236.568 83.8949C237.452 84.5579 240.673 87.6839 244.747 88.5369C248.821 89.3899 251.553 85.9209 252.421 85.7429C253.289 85.5649 254.243 86.7929 254.243 86.7929C254.243 86.7929 253.869 85.3759 251.748 84.7299C251.748 84.7299 250.889 87.9969 244.985 86.8789C239.081 85.7609 236.569 83.1369 236.569 83.1369L236.269 82.5999C236.267 82.5999 234.603 82.9459 233.633 83.3919Z" fill="url(#paint53_linear_144_995)"/>
<path opacity="0.6" d="M224.919 52.7988L224.999 52.1668C224.999 52.1668 230.889 41.8308 242.542 41.5468C254.195 41.2628 256.827 48.5648 256.827 48.5648L258.985 45.2878L254.068 35.2938L219.831 34.7258L211.494 41.4518L210.441 57.9178L214.147 79.6568L223.166 84.4628L225.712 82.2048C224.772 74.9258 219.358 68.2758 219.358 68.2758L223.305 65.5348C223.305 65.5348 233.442 70.4418 239.3 68.9728C239.3 68.9728 243.705 56.1148 243.453 46.5888C243.453 46.5888 228.436 48.8108 224.919 52.7988Z" fill="url(#paint54_linear_144_995)"/>
<path d="M224.398 53.5638C224.398 53.5638 224.966 49.8408 231.251 48.3508C238.25 46.6918 243.937 45.2888 243.937 45.2888C243.937 45.2888 242.698 49.3718 240.365 50.9028C240.365 50.9028 232.959 50.6338 229.21 51.4858C225.461 52.3378 224.398 53.5638 224.398 53.5638Z" fill="#38368E"/>
<path d="M256.827 48.5649C256.827 48.5649 253.273 51.3049 250.857 57.8419C250.857 57.8419 253.178 54.8099 255.31 54.8579C256.771 54.8909 256.537 56.3329 256.537 56.3329C256.537 56.3329 257.989 52.4259 256.827 48.5649Z" fill="#38368E"/>
<path d="M226.747 64.0949C226.747 64.0949 227.126 56.2319 234.8 54.2419C234.8 54.2419 237.547 57.7949 237.832 61.8209C237.832 61.8209 233.758 61.0629 226.747 64.0949Z" fill="url(#paint55_linear_144_995)"/>
<path d="M248.726 67.221C248.726 67.221 249.347 60.961 252.942 58.647C252.942 58.647 255.392 60.483 255.138 65.723C255.138 65.723 252.99 64.947 248.726 67.221Z" fill="url(#paint56_linear_144_995)"/>
<path d="M226.747 64.095C226.747 64.095 229.242 67.158 236.221 67.758C236.221 67.758 237.551 65.734 237.423 61.773C237.423 61.773 231.01 61.158 226.747 64.095Z" fill="#FFEBED"/>
<path d="M248.726 67.2209V68.1369C248.726 68.1369 249.8 70.3789 253.652 70.7579C253.652 70.7579 254.894 68.8229 254.998 65.6859C254.998 65.6859 252.547 65.0739 248.726 67.2209Z" fill="#FFEBED"/>
<path d="M234.207 61.61C234.207 61.61 232.438 63.7629 232.596 67.1569C232.596 67.1569 234.917 67.703 236.22 67.758C236.22 67.758 237.747 65.632 237.422 61.773C237.422 61.773 235.393 61.336 234.207 61.61Z" fill="#7F9EC9"/>
<path d="M252.382 65.793C252.382 65.793 251.378 66.866 251.189 70.158C251.189 70.158 252.563 70.758 253.652 70.758C253.652 70.758 255.055 68.766 254.998 65.686C254.998 65.686 254.019 65.313 252.382 65.793Z" fill="#7F9EC9"/>
<path d="M233.634 67.393C233.634 67.393 233 63.144 235.432 61.52L237.423 61.773C237.423 61.773 238.084 65.137 236.221 67.758C236.221 67.758 234.243 67.533 233.634 67.393Z" fill="#38368E"/>
<path d="M253.261 65.6049C253.261 65.6049 252.361 67.4909 251.94 70.4349C251.94 70.4349 252.633 70.7179 253.651 70.7579C253.651 70.7579 255.015 69.0909 254.997 65.6859C254.997 65.6859 253.961 65.4099 253.261 65.6049Z" fill="#38368E"/>
<path d="M226.747 64.0949C226.747 64.0949 231.389 61.3949 239.3 62.9339L237.832 61.8209C237.832 61.8209 232.195 60.0679 226.747 64.0949Z" fill="#131163"/>
<path d="M248.726 67.2208C248.726 67.2208 252.448 65.2448 256.789 66.2898L255 64.9658C255 64.9658 252.089 64.5208 248.726 67.2208Z" fill="#131163"/>
<path d="M231.768 64.095C231.768 64.095 233.031 63.817 234.168 64.967C234.168 64.967 232.612 65.424 231.768 64.095Z" fill="white"/>
<path d="M250.432 67.7578C250.432 67.7578 252.412 67.3728 253.095 68.2758C253.095 68.2758 252.036 69.0038 250.432 67.7578Z" fill="white"/>
<path d="M227.213 64.554C227.213 64.554 230.82 68.121 236.599 68.974L236.748 66.87L236.22 67.759C236.22 67.759 230.664 67.429 227.213 64.554Z" fill="#C6659C"/>
<path d="M248.726 68.137C248.726 68.137 249.368 70.442 254.068 71.484L253.917 70.355L253.653 70.757C253.653 70.757 250.313 70.332 248.726 68.137Z" fill="#C6659C"/>
<path d="M239.299 77.3579C239.299 77.3579 241.052 76.9789 244.273 77.3579C247.494 77.7369 251.116 78.6209 253.094 77.3579C253.094 77.3579 250.465 79.9899 248.188 80.3899C245.911 80.7899 242.441 78.7899 242.441 78.7899L240.925 78.8159C240.925 78.8159 239.757 78.2419 239.299 77.3579Z" fill="#CB5F7D"/>
<path d="M241.147 78.8118C241.147 78.8118 241.936 78.3048 242.599 78.4318C243.262 78.5578 243.937 79.5238 243.937 79.5238C243.937 79.5238 242.537 78.7818 241.147 78.8118Z" fill="#9F4A8B"/>
<path d="M253.095 77.358C253.937 76.537 249.579 68.775 247.495 68.487C245.411 68.2 243.453 77.189 243.453 77.189C243.453 77.189 246.352 77.595 249.163 77.972C251.974 78.349 253.095 77.358 253.095 77.358Z" fill="#FFBCAF"/>
<path opacity="0.6" d="M256.209 52.92C255.029 52.77 250.859 57.84 250.859 57.84C250.859 57.84 248.209 66.05 248.729 68.48C249.249 70.92 255.689 72.21 255.689 72.21L255.959 71.78V71.77C255.629 71 255.349 70.19 255.169 69.31C254.659 66.79 255.749 61.04 256.539 56.33C256.539 56.33 256.799 55.36 256.829 54.46C256.859 53.7 256.749 52.98 256.209 52.92Z" fill="url(#paint57_linear_144_995)"/>
<path d="M256.019 86.2599C254.689 83.4799 255.509 82.0299 243.959 80.5199C227.609 78.3699 226.209 83.3599 223.429 82.5999C223.329 82.5699 223.209 82.5299 223.099 82.4799C220.089 81.3099 212.999 74.3399 212.819 64.9499C212.629 55.1899 219.169 48.2699 219.169 48.2699C216.799 46.2799 215.849 40.5099 218.409 38.0399C220.969 35.5799 225.329 36.1499 236.029 37.2799C246.739 38.4199 246.739 37.7599 246.739 37.7599C250.139 38.6299 252.089 41.8199 252.639 42.8399C252.749 43.0399 252.799 43.1599 252.799 43.1599L254.129 41.9299C257.729 47.1399 257.069 52.8199 257.069 52.8199C257.069 52.8199 262.939 40.8799 262.269 39.1899C261.049 36.0699 257.659 31.5199 257.449 31.2299L257.439 31.2199C257.439 31.2199 256.489 22.1299 253.649 22.1299C250.809 22.1299 238.679 24.8699 238.679 24.8699C240.009 21.7499 239.819 18.1499 239.819 18.1499C239.819 18.1499 239.799 18.1699 239.769 18.1999C235.809 21.7499 231.939 22.1399 226.459 24.6799C223.699 25.9699 222.399 27.1599 221.329 28.3999L220.959 28.8399L220.569 29.3099C220.189 29.7899 219.799 30.2799 219.329 30.7799C219.309 30.8099 219.279 30.8299 219.269 30.8399C219.249 30.8599 219.239 30.8699 219.239 30.8699C218.799 31.3499 218.279 31.8399 217.649 32.3599C214.049 35.2899 206.129 37.2499 205.179 40.3499C204.229 43.4399 206.379 47.6699 207.519 52.0299C208.649 56.3899 208.129 60.2399 208.129 60.2399C208.129 60.2399 211.899 65.0999 210.649 72.2099C209.539 78.5799 207.109 79.6199 207.109 79.6199C205.399 83.1299 206.209 86.4099 206.209 86.4099C209.709 100.33 224.189 108.62 224.189 108.62C237.069 113.42 245.539 111.33 245.539 111.33C245.539 111.33 245.539 111.33 245.549 111.32C254.919 105.21 258.129 84.9899 258.269 84.0499C258.109 84.2999 256.369 86.9999 256.019 86.2599ZM250.239 99.1499C247.969 98.7699 247.489 93.0199 246.739 92.2599C245.979 91.5099 241.869 91.8199 241.869 91.8199C241.869 91.8199 238.079 96.1199 236.569 96.2399C235.049 96.3699 226.969 93.0799 228.719 88.1599C230.459 83.2299 236.569 82.5999 236.569 82.5999C236.569 82.5999 239.729 85.2499 244.459 85.5599C249.199 85.8699 250.909 84.9999 251.469 84.7499C252.039 84.4899 255.089 85.8799 255.009 90.1799C254.959 93.1699 252.519 99.5299 250.239 99.1499Z" fill="url(#paint58_linear_144_995)"/>
<path d="M249.65 70.2139C249.65 70.2139 253.733 75.2839 253.343 77.1899C252.917 79.2769 248.188 80.3899 248.188 80.3899C248.188 80.3899 251.98 79.0819 252.756 77.1899C252.756 77.1899 251.783 73.3479 249.65 70.2139Z" fill="#D2726C"/>
<path opacity="0.6" d="M257.069 52.82C257.069 52.82 257.729 47.14 254.129 41.93C257.019 36.77 257.439 31.22 257.439 31.22L257.449 31.23C258.429 33.64 258.989 38.33 258.989 38.33L262.269 39.19C262.939 40.88 257.069 52.82 257.069 52.82Z" fill="url(#paint59_linear_144_995)"/>
<path opacity="0.6" d="M252.639 42.8399C252.089 41.8199 250.139 38.6299 246.739 37.7599C246.739 37.7599 246.739 38.4199 236.029 37.2799C225.329 36.1499 220.969 35.5799 218.409 38.0399C215.849 40.5099 216.799 46.2799 219.169 48.2699C219.169 48.2699 212.629 55.1899 212.819 64.9499C212.999 74.3399 220.089 81.3099 223.099 82.4799L222.959 83.5199C222.959 83.5199 223.489 105.02 228.719 106.73C233.939 108.43 244.779 107.55 245.789 108.56C246.749 109.52 245.649 111.17 245.549 111.32C245.539 111.33 245.539 111.33 245.539 111.33C245.539 111.33 237.069 113.42 224.189 108.62C224.189 108.62 209.709 100.33 206.209 86.4099C206.209 86.4099 205.399 83.1299 207.109 79.6199C207.109 79.6199 209.539 78.5799 210.649 72.2099C211.899 65.0999 208.129 60.2399 208.129 60.2399C208.129 60.2399 208.649 56.3899 207.519 52.0299C206.379 47.6699 204.229 43.4399 205.179 40.3499C211.239 41.2999 215.219 38.1399 215.219 38.1399C215.219 38.1399 216.279 36.6699 220.969 35.9099C225.659 35.1499 244.509 37.0499 244.509 37.0499C244.509 37.0499 242.619 35.4799 238.639 34.4399C234.879 33.4499 222.039 34.5999 220.659 34.7099C222.129 34.4499 236.689 31.9499 238.349 32.4499C240.109 32.9699 246.409 35.8599 246.409 35.8599C245.839 32.9699 240.199 26.0099 240.199 26.0099C240.199 26.0099 232.239 26.1499 227.029 27.2399C222.379 28.2099 219.829 30.3399 219.329 30.7799L220.569 29.3099L220.959 28.8399L221.329 28.3999L223.149 28.0899L232.289 24.3999C235.359 22.7599 239.289 18.6999 239.769 18.1999C239.799 18.1699 239.819 18.1499 239.819 18.1499C239.819 18.1499 240.009 21.7499 238.679 24.8699C246.399 23.9199 249.009 24.3999 249.009 24.3999C252.519 29.3699 252.639 42.8399 252.639 42.8399Z" fill="url(#paint60_linear_144_995)"/>
<path opacity="0.5" d="M224.189 108.62C224.189 108.62 228.921 107.497 236.064 107.785C243.206 108.073 247.311 108.102 245.539 111.33C245.539 111.33 236.568 113.356 224.189 108.62Z" fill="url(#paint61_linear_144_995)"/>
<path d="M249.01 24.4C249.01 24.4 253.352 22.706 255.066 22.985C255.066 22.985 254.387 22.079 253.677 21.89C252.966 21.701 238.681 24.87 238.681 24.87C238.681 24.87 247.588 23.832 249.01 24.4Z" fill="url(#paint62_linear_144_995)"/>
<path d="M240.199 26.01C240.199 26.01 239.858 30.738 238.349 32.45L220.659 34.71L215.466 33.795C215.466 33.795 217.475 32.937 219.683 30.36C221.892 27.783 233.425 25.252 240.199 26.01Z" fill="url(#paint63_linear_144_995)"/>
<path d="M257.439 31.22C257.439 31.22 258.879 35.87 258.989 38.33L262.269 39.19C262.269 39.19 261.274 35.672 257.439 31.22Z" fill="url(#paint64_linear_144_995)"/>
<path opacity="0.8" d="M209.236 71.484C209.236 71.484 207.993 65.516 204.943 62.563C201.894 59.61 198.42 60.558 198.42 60.558C198.42 60.558 199.367 71.626 200.362 74.326C201.357 77.026 202.872 77.736 202.872 77.736C202.872 77.736 200.74 75.869 200.456 72.208C200.172 68.547 200.077 63.383 200.882 62.768C201.687 62.153 204.942 64.554 204.942 64.554C204.942 64.554 203.914 65.813 203.298 69.075C202.682 72.337 204.956 74.705 205.808 74.658C206.661 74.611 205.761 70.884 205.903 69.811C206.046 68.737 207.941 68.974 209.236 71.484Z" fill="url(#paint65_linear_144_995)"/>
<path opacity="0.8" d="M206.193 64.0649C206.193 64.0649 202.864 66.2529 203.223 70.7389C203.582 75.2259 206.146 75.0289 206.155 74.0879C206.163 73.1459 205.667 70.7219 205.927 69.3499C206.188 67.9779 208.401 68.5989 208.401 68.5989C208.401 68.5989 206.944 65.0379 206.193 64.0649Z" fill="url(#paint66_linear_144_995)"/>
<path d="M258.27 84.0498C258.27 84.0498 254.133 102.923 245.54 111.33C245.54 111.33 255.34 107.479 258.27 84.0498Z" fill="#34C7FF"/>
<path d="M253.675 21.8889C253.675 21.8889 255.857 23.5849 256.272 29.4839C256.687 35.3819 254.128 41.9299 254.128 41.9299C254.128 41.9299 257.408 37.0319 257.724 31.6629C258.041 26.2949 255.404 22.5679 253.675 21.8889Z" fill="#34C7FF"/>
<path d="M227.243 34.2398C227.243 34.2398 232.292 35.9618 237.831 36.4508C243.37 36.9398 244.509 37.0498 244.509 37.0498C244.509 37.0498 242.283 34.8898 237.541 34.2398C232.8 33.5898 227.243 34.2398 227.243 34.2398Z" fill="url(#paint67_linear_144_995)"/>
<path d="M251.645 84.4629C251.645 84.4629 254.061 84.4629 255.012 87.4949C255.77 89.9119 255.979 91.9949 255.979 91.9949L256.835 88.6719C256.835 88.6719 255.719 84.4639 254.558 83.5159C253.722 82.8339 252.283 82.1409 251.598 82.3079L251.645 84.4629Z" fill="url(#paint68_linear_144_995)"/>
<path d="M245.132 81.432L245.54 85.032C245.54 85.032 248.484 85.269 250.432 84.463L250.781 82.284C250.781 82.284 247.026 81.337 245.132 81.432Z" fill="url(#paint69_linear_144_995)"/>
<path d="M258.56 127.96C258.56 127.96 275.785 140.542 278.022 144.87C280.259 149.197 281.163 162.773 284.187 168.646C284.187 168.646 282.121 159.038 280.67 151.504C279.22 143.97 279.568 143.863 278.763 142.016C277.958 140.168 265.09 131.241 258.56 127.96Z" fill="#34C7FF"/>
<path d="M255.474 198.003C255.474 198.003 247.17 233.545 247.548 235.947C247.926 238.349 253.3 243.246 253.551 244.59C253.551 244.59 249.443 250.093 249.633 251.31C249.823 252.527 256.832 260.234 256.643 262.616C256.588 263.308 252.041 270.81 252.041 270.81C252.041 270.81 257.18 263.436 257.433 262.26C257.686 261.084 251.137 251.234 250.945 250.233C250.447 247.642 254.212 245.737 254.339 244.032C254.465 242.327 249.244 238.16 249.202 235.38C249.158 232.6 255.474 198.003 255.474 198.003Z" fill="#34C7FF"/>
<path d="M257.16 282.73C257.16 282.73 275.11 323.365 281.232 364C281.232 364 280.21 324.344 257.16 282.73Z" fill="#34C7FF"/>
<path d="M143.35 119.8C143.35 119.8 138.705 118.807 136.779 114.756C134.853 110.705 136.11 104.84 136.11 104.84C136.11 104.84 139.746 111.815 141.557 114.197C143.368 116.579 143.855 119.295 143.35 119.8Z" fill="#FFBCAF"/>
<path opacity="0.6" d="M286.658 98.6147L289.878 190.411C290.006 194.052 292.995 196.938 296.638 196.938H454.77C458.443 196.938 461.445 194.007 461.532 190.335L463.745 97.4657C463.836 93.6507 460.755 90.5157 456.938 90.5407L293.373 91.6147C289.562 91.6387 286.524 94.8057 286.658 98.6147Z" fill="#36D1F7"/>
<path d="M454.769 197.188H296.638C292.841 197.188 289.762 194.215 289.628 190.419L286.408 98.6238C286.341 96.7138 287.033 94.9028 288.355 93.5228C289.678 92.1428 291.459 91.3768 293.371 91.3638L456.936 90.2898C458.836 90.2978 460.643 91.0218 461.985 92.3878C463.327 93.7528 464.041 95.5578 463.995 97.4718L461.782 190.341C461.69 194.18 458.61 197.188 454.769 197.188ZM456.984 90.7898C456.969 90.7898 456.955 90.7898 456.94 90.7898L293.375 91.8638C291.6 91.8758 289.945 92.5878 288.717 93.8688C287.488 95.1498 286.846 96.8318 286.908 98.6058L290.128 190.401C290.252 193.926 293.111 196.687 296.638 196.687H454.77C458.277 196.687 461.199 193.835 461.283 190.328L463.496 97.4588C463.538 95.6818 462.876 94.0048 461.63 92.7378C460.393 91.4808 458.745 90.7898 456.984 90.7898Z" fill="#744CA2"/>
<path opacity="0.6" d="M286.894 103.29H463.557L463.841 98.4488C464.092 94.1678 460.67 90.5678 456.382 90.6018L292.88 91.8938C289.466 91.9208 286.732 94.7298 286.796 98.1428L286.894 103.29Z" fill="url(#paint70_linear_144_995)"/>
<path opacity="0.3" d="M295.776 110.696V163.82H349.852V110.417L295.776 110.696Z" fill="url(#paint71_linear_144_995)"/>
<path opacity="0.3" d="M425.634 114.261H402.111V137.784H425.634V114.261Z" fill="url(#paint72_linear_144_995)"/>
<path opacity="0.3" d="M453.388 114.261H429.865V137.784H453.388V114.261Z" fill="url(#paint73_linear_144_995)"/>
<path opacity="0.3" d="M397.417 114.261H373.894V137.784H397.417V114.261Z" fill="url(#paint74_linear_144_995)"/>
<path d="M453.387 151.498H393.234V157.133H453.387V151.498Z" fill="#D1D4FB"/>
<path d="M453.387 160.073H378.189V161.817H453.387V160.073Z" fill="#D1D4FB"/>
<path d="M393.284 140.783H378.898V142.527H393.284V140.783Z" fill="#D1D4FB"/>
<path d="M421.066 140.783H406.68V142.527H421.066V140.783Z" fill="#D1D4FB"/>
<path d="M448.819 140.783H434.433V142.527H448.819V140.783Z" fill="#D1D4FB"/>
<path d="M398.084 162.907H373.894V164.651H398.084V162.907Z" fill="#D1D4FB"/>
<path d="M453.387 165.708H378.189V167.452H453.387V165.708Z" fill="#D1D4FB"/>
<path d="M453.387 168.509H373.894V170.253H453.387V168.509Z" fill="#D1D4FB"/>
<path d="M453.387 171.31H373.894V173.054H453.387V171.31Z" fill="#D1D4FB"/>
<path d="M453.387 182.633H378.189V184.377H453.387V182.633Z" fill="#D1D4FB"/>
<path d="M453.387 185.434H373.894V187.178H453.387V185.434Z" fill="#D1D4FB"/>
<path d="M453.387 188.235H373.894V189.979H453.387V188.235Z" fill="#D1D4FB"/>
<path d="M450.189 174.111H373.894V175.855H450.189V174.111Z" fill="#D1D4FB"/>
<path d="M453.387 176.911H378.189V178.655H453.387V176.911Z" fill="#D1D4FB"/>
<path d="M438.3 179.712H373.894V181.456H438.3V179.712Z" fill="#D1D4FB"/>
<path d="M310.927 153.167C302.445 153.167 295.543 146.266 295.543 137.784C295.543 129.302 302.444 122.4 310.927 122.4C319.409 122.4 326.31 129.301 326.31 137.784C326.31 146.266 319.409 153.167 310.927 153.167ZM310.927 123.4C302.995 123.4 296.543 129.853 296.543 137.784C296.543 145.715 302.995 152.167 310.927 152.167C318.858 152.167 325.31 145.715 325.31 137.784C325.31 129.852 318.857 123.4 310.927 123.4Z" fill="#E0FFFF"/>
<path d="M310.926 146.143C315.543 146.143 319.286 142.4 319.286 137.783C319.286 133.166 315.543 129.423 310.926 129.423C306.309 129.423 302.566 133.166 302.566 137.783C302.566 142.4 306.309 146.143 310.926 146.143Z" fill="white"/>
<path d="M349.852 125.801C341.37 125.801 334.468 118.9 334.468 110.418C334.468 101.936 341.369 95.0337 349.852 95.0337C358.335 95.0337 365.235 101.935 365.235 110.418C365.235 118.9 358.335 125.801 349.852 125.801ZM349.852 96.0337C341.92 96.0337 335.468 102.487 335.468 110.418C335.468 118.349 341.92 124.801 349.852 124.801C357.783 124.801 364.235 118.349 364.235 110.418C364.235 102.486 357.783 96.0337 349.852 96.0337Z" fill="#E0FFFF"/>
<path d="M357.598 111.652C358.273 107.36 355.341 103.334 351.05 102.659C346.758 101.983 342.731 104.915 342.056 109.207C341.381 113.499 344.313 117.525 348.605 118.201C352.896 118.876 356.923 115.944 357.598 111.652Z" fill="white"/>
<path d="M293.083 96.0807L294.208 94.3767L300.286 99.7037L299.354 101.003L293.083 96.0807Z" fill="white"/>
<path d="M300.442 96.0807L299.318 94.3767L293.24 99.7037L294.172 101.003L300.442 96.0807Z" fill="white"/>
<path d="M459.284 95.5337H404.842V98.2627H459.284V95.5337Z" fill="white"/>
<path d="M118.35 56.123V79.746L146.605 79.987L146.987 55.365L118.35 56.123Z" fill="url(#paint75_linear_144_995)"/>
<path d="M146.987 55.365L148.831 58.469L147.909 79.965L146.605 79.987L146.987 55.365Z" fill="url(#paint76_linear_144_995)"/>
<path d="M123.395 64.0961L126.005 60.3081L140.115 72.1511L137.95 75.0381L123.395 64.0961Z" fill="white"/>
<path d="M140.477 64.0961L137.867 60.3081L123.758 72.1511L125.922 75.0381L140.477 64.0961Z" fill="white"/>
<path opacity="0.81" d="M184.269 334.181H87.58C83.277 334.181 79.761 330.745 79.663 326.443L77.858 247.137C77.757 242.694 81.331 239.038 85.775 239.038H186.444C190.902 239.038 194.482 242.717 194.36 247.174L192.185 326.48C192.068 330.766 188.558 334.181 184.269 334.181Z" fill="url(#paint77_linear_144_995)"/>
<path d="M184.27 334.431H87.5811C83.1781 334.431 79.5151 330.85 79.4141 326.449L77.6091 247.143C77.5591 244.926 78.3841 242.831 79.9341 241.245C81.4841 239.66 83.5581 238.787 85.7751 238.787H186.444C188.668 238.787 190.748 239.665 192.299 241.26C193.85 242.854 194.671 244.956 194.61 247.18L192.435 326.487C192.312 330.941 188.726 334.431 184.27 334.431ZM85.7751 239.287C83.6941 239.287 81.7461 240.106 80.2921 241.595C78.8371 243.084 78.0611 245.05 78.1091 247.131L79.9141 326.437C80.0081 330.57 83.4471 333.931 87.5811 333.931H184.27C188.454 333.931 191.821 330.655 191.936 326.473L194.111 247.166C194.168 245.079 193.398 243.105 191.942 241.608C190.486 240.111 188.533 239.287 186.445 239.287H85.7751Z" fill="#473DA2"/>
<path d="M154.772 255.258H103.922V257.435H154.772V255.258Z" fill="white"/>
<path d="M129.347 260.554H103.922V262.731H129.347V260.554Z" fill="white"/>
<path d="M129.347 264.975H103.922V267.152H129.347V264.975Z" fill="white"/>
<path d="M152.427 264.975H132.199V267.152H152.427V264.975Z" fill="white"/>
<path d="M144.911 269.396H103.922V271.573H144.911V269.396Z" fill="white"/>
<path d="M118.511 273.817H103.922V275.994H118.511V273.817Z" fill="white"/>
<path d="M146.744 287.08H121.512V289.257H146.744V287.08Z" fill="white"/>
<path d="M149.648 278.238H103.922V280.415H149.648V278.238Z" fill="white"/>
<path d="M139.101 282.659H103.922V284.836H139.101V282.659Z" fill="white"/>
<path d="M120.469 287.08H103.922V289.257H120.469V287.08Z" fill="white"/>
<path d="M129.347 291.501H103.922V293.678H129.347V291.501Z" fill="white"/>
<path d="M111.217 295.922H103.922V298.099H111.217V295.922Z" fill="white"/>
<path d="M140.68 295.922H114.217V298.099H140.68V295.922Z" fill="white"/>
<path d="M146.744 300.213H121.512V302.39H146.744V300.213Z" fill="white"/>
<path d="M120.469 300.213H103.922V302.39H120.469V300.213Z" fill="white"/>
<path d="M129.347 304.634H103.922V306.811H129.347V304.634Z" fill="white"/>
<path d="M111.217 309.055H103.922V311.232H111.217V309.055Z" fill="white"/>
<path d="M140.68 309.055H114.217V311.232H140.68V309.055Z" fill="white"/>
<path d="M443.718 72.8398C443.718 75.3078 441.717 77.3088 439.249 77.3088C436.781 77.3088 434.78 75.3078 434.78 72.8398C434.78 70.3718 436.781 68.3708 439.249 68.3708C441.717 68.3708 443.718 70.3718 443.718 72.8398Z" fill="url(#paint78_linear_144_995)"/>
<path d="M24.8169 176.477C24.8169 179.549 22.3269 182.039 19.2549 182.039C16.1829 182.039 13.6929 179.549 13.6929 176.477C13.6929 173.405 16.1829 170.915 19.2549 170.915C22.3269 170.915 24.8169 173.405 24.8169 176.477Z" fill="url(#paint79_linear_144_995)"/>
<path d="M452.374 77.3088C454.842 77.3088 456.843 75.308 456.843 72.8398C456.843 70.3717 454.842 68.3708 452.374 68.3708C449.906 68.3708 447.905 70.3717 447.905 72.8398C447.905 75.308 449.906 77.3088 452.374 77.3088Z" fill="url(#paint80_linear_144_995)"/>
<path d="M164.203 106.726C165.948 106.726 167.363 105.311 167.363 103.566C167.363 101.821 165.948 100.406 164.203 100.406C162.458 100.406 161.043 101.821 161.043 103.566C161.043 105.311 162.458 106.726 164.203 106.726Z" fill="url(#paint81_linear_144_995)"/>
<path d="M375.86 246.163C377.605 246.163 379.02 244.748 379.02 243.003C379.02 241.258 377.605 239.843 375.86 239.843C374.114 239.843 372.7 241.258 372.7 243.003C372.7 244.748 374.114 246.163 375.86 246.163Z" fill="url(#paint82_linear_144_995)"/>
<path d="M47.3377 277.333C48.8979 277.333 50.1627 276.068 50.1627 274.508C50.1627 272.948 48.8979 271.683 47.3377 271.683C45.7775 271.683 44.5127 272.948 44.5127 274.508C44.5127 276.068 45.7775 277.333 47.3377 277.333Z" fill="url(#paint83_linear_144_995)"/>
<path opacity="0.73" d="M95.4939 246.771H46.6948C42.7678 246.771 39.5479 243.658 39.4159 239.733L38.3329 207.637C38.1939 203.521 41.4928 200.108 45.6118 200.108H96.4758C100.586 200.108 103.881 203.506 103.756 207.614L102.775 239.71C102.653 243.645 99.4299 246.771 95.4939 246.771Z" fill="url(#paint84_linear_144_995)"/>
<path d="M95.494 247.022H46.695C42.611 247.022 39.304 243.825 39.166 239.743L38.083 207.647C38.014 205.587 38.764 203.637 40.197 202.156C41.629 200.674 43.552 199.859 45.612 199.859H96.476C98.532 199.859 100.452 200.671 101.883 202.147C103.315 203.624 104.068 205.568 104.006 207.623L103.025 239.72C102.898 243.814 99.591 247.022 95.494 247.022ZM45.611 200.358C43.688 200.358 41.892 201.12 40.555 202.503C39.218 203.886 38.517 205.707 38.582 207.629L39.665 239.725C39.794 243.536 42.881 246.522 46.694 246.522H95.493C99.318 246.522 102.406 243.527 102.523 239.704L103.504 207.607C103.563 205.689 102.859 203.874 101.522 202.496C100.186 201.118 98.393 200.359 96.474 200.359L45.611 200.358Z" fill="#953DA2"/>
<path d="M59.7049 211.64L47.6729 225.586L59.9259 235.987V230.619L52.8379 224.483L59.4209 217.04L59.7049 211.64Z" fill="white"/>
<path d="M80.854 212.266L92.886 226.213L80.633 236.614V231.245L87.721 225.109L79.834 216.762L80.854 212.266Z" fill="white"/>
<path d="M62.3262 235.987L72.8102 212.893H77.7362L65.8632 235.987H62.3262Z" fill="white"/>
<path opacity="0.73" d="M423.822 312.822H362.775C357.863 312.822 353.835 308.928 353.669 304.018L352.314 263.866C352.14 258.716 356.268 254.447 361.42 254.447H425.05C430.191 254.447 434.314 258.698 434.157 263.837L432.93 303.989C432.778 308.91 428.745 312.822 423.822 312.822Z" fill="url(#paint85_linear_144_995)"/>
<path d="M423.821 313.071H362.774C357.699 313.071 353.589 309.097 353.419 304.026L352.064 263.875C351.978 261.315 352.911 258.893 354.69 257.052C356.469 255.211 358.86 254.198 361.419 254.198H425.049C427.604 254.198 429.989 255.208 431.768 257.041C433.547 258.875 434.484 261.292 434.407 263.846L433.179 303.997C433.023 309.085 428.913 313.071 423.821 313.071ZM361.419 254.697C358.996 254.697 356.734 255.657 355.049 257.399C353.364 259.141 352.482 261.435 352.564 263.857L353.919 304.008C354.08 308.81 357.97 312.57 362.774 312.57H423.821C428.64 312.57 432.531 308.797 432.678 303.979L433.906 263.828C433.979 261.411 433.092 259.123 431.409 257.388C429.725 255.653 427.467 254.697 425.049 254.697H361.419Z" fill="#953DA2"/>
<path d="M420.456 260.911H364.545V294.117H420.456V260.911Z" fill="#D1D4FB"/>
<path d="M387.551 269.151V285.878L401.838 276.749L387.551 269.151Z" fill="white"/>
<path d="M420.456 300.237H364.545V303.273H420.456V300.237Z" fill="#D1D4FB"/>
<path d="M379.019 300.237H364.545V303.273H379.019V300.237Z" fill="white"/>
<path fill-rule="evenodd" clip-rule="evenodd" d="M323.585 250.415L320.668 258.764C322.278 254.15 324.597 251.156 323.585 250.415ZM320.668 258.764L317.744 267.111C318.48 266.891 319.05 263.376 320.668 258.764ZM323.585 250.415L320.668 258.764C322.278 254.15 324.597 251.156 323.585 250.415ZM320.668 258.764L317.744 267.111C318.48 266.891 319.05 263.376 320.668 258.764ZM329.091 265.996L331.926 267.603L334.985 259.251L331.706 258.702C331.764 258.392 331.823 258.082 331.864 257.775C332.099 256.343 332.183 254.944 332.141 253.613L335.57 251.461L334.008 244.104L330.722 247.247C330.265 246.305 329.701 245.484 329.042 244.797C328.862 244.598 328.669 244.412 328.473 244.242L330.483 239.602L325.135 237.861L323.851 242.538C322.655 242.542 321.438 242.841 320.23 243.385L319.64 238.964L313.752 243.421L315.112 247.339C314.051 248.549 313.08 249.951 312.239 251.521L309.402 249.921L306.342 258.273L309.621 258.822C309.272 260.583 309.138 262.294 309.187 263.911L305.758 266.063L307.32 273.42L310.606 270.277C311.193 271.48 311.948 272.494 312.858 273.273L310.846 277.921L316.11 279.973L316.925 277.009L317.478 274.985C318.674 274.981 319.899 274.684 321.107 274.14L321.689 278.559L327.577 274.103L326.217 270.185C327.05 269.231 327.831 268.163 328.534 266.981C328.729 266.659 328.909 266.331 329.091 265.996ZM320.668 258.764C319.05 263.376 320.669 268.132 317.744 267.111C314.813 266.079 313.744 261.513 315.36 256.909C316.978 252.297 320.659 249.393 323.585 250.415C326.518 251.438 322.278 254.15 320.668 258.764ZM323.585 250.415L320.668 258.764C322.278 254.15 324.597 251.156 323.585 250.415ZM320.668 258.764L317.744 267.111C318.48 266.891 319.05 263.376 320.668 258.764Z" fill="url(#paint86_linear_144_995)"/>
<path fill-rule="evenodd" clip-rule="evenodd" d="M331.926 267.603L334.985 259.251L331.864 257.775L331.359 257.539L331.687 252.939L335.151 251.248L334.008 244.104L326.462 241.647L327.852 244.962L330.482 239.603L325.134 237.862L322.937 237.145L317.666 235.09L316.681 238.686L312.095 236.507L306.207 240.964L307.993 245.782L302.487 261.046L299.767 270.96L304.995 271.532L303.293 275.461L308.565 277.516L316.11 279.974L314.899 277.55L314.136 276.099L316.925 277.009L321.689 278.559L327.577 274.103L323.935 269.813L328.533 266.981L331.926 267.603ZM315.36 256.908C316.978 252.296 320.659 249.393 323.585 250.415L320.668 258.764L317.744 267.111C314.812 266.079 313.744 261.512 315.36 256.908Z" fill="url(#paint87_linear_144_995)"/>
<path fill-rule="evenodd" clip-rule="evenodd" d="M324.382 265.141L327.44 256.789L324.16 256.241C324.506 254.485 324.644 252.775 324.597 251.158L328.027 249.007L326.463 241.649L323.175 244.79C322.592 243.587 321.837 242.571 320.926 241.789L322.938 237.146L317.669 235.092L316.304 240.078C315.109 240.083 313.888 240.38 312.68 240.923L312.096 236.507L306.208 240.961L307.564 244.878C306.505 246.088 305.535 247.496 304.691 249.066L301.854 247.465L298.796 255.817L302.076 256.365C301.73 258.121 301.592 259.831 301.639 261.448L298.209 263.599L299.773 270.957L303.061 267.816C303.644 269.019 304.399 270.035 305.311 270.817L303.299 275.46L308.568 277.513L309.933 272.527C311.128 272.522 312.349 272.225 313.556 271.682L314.14 276.098L320.028 271.644L318.672 267.726C319.731 266.516 320.701 265.109 321.545 263.538L324.382 265.141ZM310.194 264.649C307.265 263.623 306.199 259.055 307.814 254.445C309.429 249.836 313.112 246.931 316.041 247.957C318.97 248.983 320.036 253.551 318.421 258.161C316.806 262.77 313.123 265.675 310.194 264.649Z" fill="url(#paint88_linear_144_995)"/>
<path opacity="0.5" fill-rule="evenodd" clip-rule="evenodd" d="M335.571 251.461L328.026 249.006L324.596 251.157L332.141 253.613L335.571 251.461Z" fill="#601734"/>
<path fill-rule="evenodd" clip-rule="evenodd" d="M327.577 274.104L320.027 271.645L318.671 267.727L326.217 270.186L327.577 274.104Z" fill="#B3D9FF"/>
<path opacity="0.5" fill-rule="evenodd" clip-rule="evenodd" d="M320.925 241.788L325.062 242.985L326.462 241.648L329.209 242.542L330.482 239.603L322.937 237.145L320.925 241.788Z" fill="#601734"/>
<path opacity="0.5" fill-rule="evenodd" clip-rule="evenodd" d="M309.932 272.528L313.885 274.173L313.556 271.683C313.556 271.683 311.429 272.806 309.932 272.528Z" fill="#601734"/>
<path opacity="0.5" fill-rule="evenodd" clip-rule="evenodd" d="M310.542 249.904L317.196 253.423C317.196 253.423 318.161 252.13 318.907 251.611C318.907 251.611 317.172 244.273 310.542 249.904Z" fill="#601734"/>
<path d="M157.788 0.962891L164.203 13.8129L159.917 15.7619L153.919 3.95789L157.788 0.962891Z" fill="#FF1D9C"/>
<path d="M13.3389 300.304L19.2749 306.819L21.6059 304.13L16.0009 297.96L13.3389 300.304Z" fill="#6877FF"/>
<path d="M315.115 79.3678L309.134 82.9968L306.738 78.4528L313.275 74.6348L315.115 79.3678Z" fill="#4F31E0"/>
<path d="M344.558 309.084L335.988 315.169L333.592 310.625L341.912 305.767L344.558 309.084Z" fill="#4F31E0"/>
<path fill-rule="evenodd" clip-rule="evenodd" d="M333.237 48.2969L331.79 14.6389H375.86L374.048 48.2009L333.237 48.2969Z" fill="url(#paint89_linear_144_995)"/>
<path fill-rule="evenodd" clip-rule="evenodd" d="M331.79 14.6389L330.47 16.6239L331.79 48.2969H333.237L331.79 14.6389Z" fill="url(#paint90_linear_144_995)"/>
<path d="M346.423 21.3599L339.507 20.6189L340.454 43.6819L346.423 43.0959V40.7089L342.965 40.7909L342.57 23.0059L346.423 23.1159V21.3599Z" fill="white"/>
<path d="M360.585 21.3599L367.501 20.6189L366.554 43.6819L360.585 43.0959V40.7089L364.043 40.7909L364.438 23.0059L360.585 23.1159V21.3599Z" fill="white"/>
<path fill-rule="evenodd" clip-rule="evenodd" d="M29.3529 121.98L30.3399 99.0349H0.296875L1.53188 121.915L29.3529 121.98Z" fill="url(#paint91_linear_144_995)"/>
<path fill-rule="evenodd" clip-rule="evenodd" d="M30.34 99.0349L31.24 100.388L30.34 121.98H29.353L30.34 99.0349Z" fill="url(#paint92_linear_144_995)"/>
<path d="M18.7668 103.651C18.7668 103.651 22.0608 103.525 22.6418 103.792C23.2228 104.06 22.4908 109.427 22.4908 109.427L23.8038 110.633L22.5769 111.823C22.5769 111.823 22.6418 117.264 21.8668 117.716C21.0918 118.168 18.4438 117.716 18.4438 117.716V116.36C18.4438 116.36 20.6078 116.496 20.9628 116.205C21.3178 115.914 21.2859 111.161 21.2859 111.161L21.8668 110.526L21.2859 109.837C21.2859 109.837 21.3928 106.449 21.3288 105.519C21.2858 104.9 18.7668 104.868 18.7668 104.868V103.651Z" fill="white"/>
<path d="M11.2211 103.651C11.2211 103.651 7.92708 103.525 7.34608 103.792C6.76508 104.06 7.49709 109.427 7.49709 109.427L6.18408 110.633L7.41109 111.823C7.41109 111.823 7.34609 117.264 8.12109 117.716C8.89609 118.168 11.5441 117.716 11.5441 117.716V116.36C11.5441 116.36 9.38009 116.496 9.02509 116.205C8.67009 115.914 8.70209 111.161 8.70209 111.161L8.12109 110.526L8.70209 109.837C8.70209 109.837 8.59508 106.449 8.65908 105.519C8.70208 104.9 11.2211 104.868 11.2211 104.868V103.651Z" fill="white"/>
<path d="M282.858 51.331L275.496 32.063L294.589 36.051L282.858 51.331ZM276.289 32.739L283.007 50.317L293.708 36.378L276.289 32.739Z" fill="#744CA2"/>
<path d="M341.682 315.415L335.216 324.237L335.618 324.532L342.085 315.71L341.682 315.415Z" fill="#744CA2"/>
<path d="M274.915 243.159L267.97 234.515L268.36 234.202L275.306 242.847L274.915 243.159Z" fill="#744CA2"/>
<path d="M60.5847 303.88L46.7197 293.821L47.0137 293.417L60.8787 303.476L60.5847 303.88Z" fill="#744CA2"/>
<path d="M58.7987 291.692L48.418 305.319L48.8157 305.622L59.1965 291.995L58.7987 291.692Z" fill="#744CA2"/>
<path d="M29.4586 151.21L29.2261 151.653L38.2011 156.369L38.4337 155.926L29.4586 151.21Z" fill="#744CA2"/>
<path d="M383.051 35.37L382.676 35.04L393.047 23.21L393.422 23.541L383.051 35.37Z" fill="#744CA2"/>
<path d="M181.581 63.9794L181.133 64.2021L185.768 73.5186L186.216 73.2959L181.581 63.9794Z" fill="#744CA2"/>
<path d="M119.69 220.804L107.768 230.776L108.088 231.159L120.01 221.187L119.69 220.804Z" fill="#744CA2"/>
<defs>
<linearGradient id="paint0_linear_144_995" x1="103.133" y1="207.881" x2="72.9989" y2="143.384" gradientUnits="userSpaceOnUse">
<stop stop-color="#DBCCFF"/>
<stop offset="1" stop-color="#D1BBFF"/>
</linearGradient>
<linearGradient id="paint1_linear_144_995" x1="104.305" y1="210.399" x2="74.1704" y2="145.902" gradientUnits="userSpaceOnUse">
<stop stop-color="#B5A6E7"/>
<stop offset="1" stop-color="#7760BF"/>
</linearGradient>
<linearGradient id="paint2_linear_144_995" x1="96.8132" y1="194.364" x2="84.1112" y2="167.178" gradientUnits="userSpaceOnUse">
<stop stop-color="#B5A6E7"/>
<stop offset="1" stop-color="#7760BF"/>
</linearGradient>
<linearGradient id="paint3_linear_144_995" x1="80.5073" y1="169.524" x2="88.2235" y2="165.919" gradientUnits="userSpaceOnUse">
<stop stop-color="#8B8BE0"/>
<stop offset="1" stop-color="#A177B7"/>
</linearGradient>
<linearGradient id="paint4_linear_144_995" x1="85.2021" y1="169.513" x2="83.0198" y2="164.842" gradientUnits="userSpaceOnUse">
<stop stop-color="white"/>
<stop offset="1" stop-color="#A177B7"/>
</linearGradient>
<linearGradient id="paint5_linear_144_995" x1="102.191" y1="195.233" x2="88.1878" y2="165.262" gradientUnits="userSpaceOnUse">
<stop/>
<stop offset="1" stop-color="white"/>
</linearGradient>
<linearGradient id="paint6_linear_144_995" x1="215.299" y1="364" x2="215.299" y2="274.79" gradientUnits="userSpaceOnUse">
<stop stop-color="#6456C0"/>
<stop offset="1" stop-color="#5F2C95"/>
</linearGradient>
<radialGradient id="paint7_radial_144_995" cx="0" cy="0" r="1" gradientUnits="userSpaceOnUse" gradientTransform="translate(171.859 331.916) rotate(12.9927) scale(17.9242 46.3109)">
<stop stop-color="#4B474B"/>
<stop offset="1"/>
</radialGradient>
<radialGradient id="paint8_radial_144_995" cx="0" cy="0" r="1" gradientUnits="userSpaceOnUse" gradientTransform="translate(255.06 331.467) rotate(-15.6582) scale(17.9248 46.3096)">
<stop stop-color="#4B474B"/>
<stop offset="1"/>
</radialGradient>
<linearGradient id="paint9_linear_144_995" x1="186.427" y1="332.682" x2="209.824" y2="332.682" gradientUnits="userSpaceOnUse">
<stop stop-color="#9E8CEF"/>
<stop offset="1" stop-color="#CAAFEE"/>
</linearGradient>
<linearGradient id="paint10_linear_144_995" x1="241.102" y1="332.683" x2="217.703" y2="332.683" gradientUnits="userSpaceOnUse">
<stop stop-color="#9E8CEF"/>
<stop offset="1" stop-color="#CAAFEE"/>
</linearGradient>
<linearGradient id="paint11_linear_144_995" x1="212.16" y1="364" x2="212.16" y2="274.79" gradientUnits="userSpaceOnUse">
<stop stop-color="#CCCCFF"/>
<stop offset="1" stop-color="#755CBB"/>
</linearGradient>
<linearGradient id="paint12_linear_144_995" x1="222.545" y1="319.395" x2="222.545" y2="295.063" gradientUnits="userSpaceOnUse">
<stop stop-color="#CCCCFF"/>
<stop offset="1" stop-color="#755CBB"/>
</linearGradient>
<linearGradient id="paint13_linear_144_995" x1="194.363" y1="310.448" x2="194.363" y2="286.609" gradientUnits="userSpaceOnUse">
<stop stop-color="#CCCCFF"/>
<stop offset="1" stop-color="#755CBB"/>
</linearGradient>
<linearGradient id="paint14_linear_144_995" x1="218.542" y1="140.45" x2="218.542" y2="104.84" gradientUnits="userSpaceOnUse">
<stop stop-color="#D5CDF8"/>
<stop offset="1" stop-color="#F3EDFB"/>
</linearGradient>
<linearGradient id="paint15_linear_144_995" x1="200.209" y1="122.61" x2="236.874" y2="122.61" gradientUnits="userSpaceOnUse">
<stop stop-color="#CCCCFF"/>
<stop offset="1" stop-color="#755CBB"/>
</linearGradient>
<linearGradient id="paint16_linear_144_995" x1="208.058" y1="282.729" x2="208.058" y2="103.29" gradientUnits="userSpaceOnUse">
<stop stop-color="#9E8CEF"/>
<stop offset="1" stop-color="#CAAFEE"/>
</linearGradient>
<linearGradient id="paint17_linear_144_995" x1="133.59" y1="170.915" x2="177.29" y2="170.915" gradientUnits="userSpaceOnUse">
<stop stop-color="#CCCCFF"/>
<stop offset="1" stop-color="#755CBB"/>
</linearGradient>
<linearGradient id="paint18_linear_144_995" x1="132.238" y1="221.17" x2="132.238" y2="137.26" gradientUnits="userSpaceOnUse">
<stop stop-color="#9E8CEF"/>
<stop offset="1" stop-color="#DAC7F3"/>
</linearGradient>
<linearGradient id="paint19_linear_144_995" x1="276.53" y1="196.986" x2="332.835" y2="196.986" gradientUnits="userSpaceOnUse">
<stop stop-color="#A999F1"/>
<stop offset="1" stop-color="#DAC7F3"/>
</linearGradient>
<linearGradient id="paint20_linear_144_995" x1="113.923" y1="125.819" x2="113.923" y2="103.694" gradientUnits="userSpaceOnUse">
<stop offset="0.016" stop-color="#FFC2A9"/>
<stop offset="1" stop-color="#FF9595"/>
</linearGradient>
<linearGradient id="paint21_linear_144_995" x1="127.855" y1="125.295" x2="127.855" y2="88.6716" gradientUnits="userSpaceOnUse">
<stop stop-color="#FFEADB"/>
<stop offset="0.9944" stop-color="#C27CB6"/>
</linearGradient>
<linearGradient id="paint22_linear_144_995" x1="126.667" y1="150.21" x2="126.667" y2="93.75" gradientUnits="userSpaceOnUse">
<stop offset="0.016" stop-color="#FFC2A9"/>
<stop offset="1" stop-color="#FF9595"/>
</linearGradient>
<linearGradient id="paint23_linear_144_995" x1="116.57" y1="141.399" x2="134.322" y2="141.399" gradientUnits="userSpaceOnUse">
<stop offset="0.016" stop-color="#D1A1D6"/>
<stop offset="0.9944" stop-color="#BD89C4"/>
</linearGradient>
<linearGradient id="paint24_linear_144_995" x1="333.996" y1="184.6" x2="333.996" y2="109.099" gradientUnits="userSpaceOnUse">
<stop offset="0.016" stop-color="#FFC2A9"/>
<stop offset="1" stop-color="#FF9595"/>
</linearGradient>
<linearGradient id="paint25_linear_144_995" x1="342.916" y1="160.41" x2="342.916" y2="122.9" gradientUnits="userSpaceOnUse">
<stop stop-color="#FFEADB"/>
<stop offset="0.9944" stop-color="#C27CB6"/>
</linearGradient>
<linearGradient id="paint26_linear_144_995" x1="350.315" y1="147.463" x2="350.315" y2="130.648" gradientUnits="userSpaceOnUse">
<stop stop-color="#FFB0B0"/>
<stop offset="0.984" stop-color="#FFC2A9"/>
</linearGradient>
<linearGradient id="paint27_linear_144_995" x1="360.068" y1="150.052" x2="360.068" y2="140.831" gradientUnits="userSpaceOnUse">
<stop stop-color="#FFB0B0"/>
<stop offset="0.984" stop-color="#FFC2A9"/>
</linearGradient>
<linearGradient id="paint28_linear_144_995" x1="320.629" y1="168.431" x2="337.779" y2="168.431" gradientUnits="userSpaceOnUse">
<stop offset="0.016" stop-color="#D1A1D6"/>
<stop offset="0.9944" stop-color="#BD89C4"/>
</linearGradient>
<linearGradient id="paint29_linear_144_995" x1="296.762" y1="227.621" x2="296.762" y2="143.11" gradientUnits="userSpaceOnUse">
<stop stop-color="#CCCCFF"/>
<stop offset="1" stop-color="#755CBB"/>
</linearGradient>
<linearGradient id="paint30_linear_144_995" x1="110.689" y1="210.595" x2="252.039" y2="210.595" gradientUnits="userSpaceOnUse">
<stop stop-color="#CCCCFF"/>
<stop offset="1" stop-color="#755CBB"/>
</linearGradient>
<linearGradient id="paint31_linear_144_995" x1="235.305" y1="186.942" x2="262.323" y2="186.942" gradientUnits="userSpaceOnUse">
<stop stop-color="#CCEDFF"/>
<stop offset="1" stop-color="#755CBB"/>
</linearGradient>
<linearGradient id="paint32_linear_144_995" x1="210.8" y1="234.358" x2="250.506" y2="234.358" gradientUnits="userSpaceOnUse">
<stop stop-color="#CCEDFF"/>
<stop offset="1" stop-color="#755CBB"/>
</linearGradient>
<linearGradient id="paint33_linear_144_995" x1="212.638" y1="252.312" x2="255.059" y2="252.312" gradientUnits="userSpaceOnUse">
<stop stop-color="#CCEDFF"/>
<stop offset="1" stop-color="#755CBB"/>
</linearGradient>
<linearGradient id="paint34_linear_144_995" x1="176.129" y1="207.86" x2="176.129" y2="160.25" gradientUnits="userSpaceOnUse">
<stop stop-color="#CCEDFF"/>
<stop offset="1" stop-color="#755CBB"/>
</linearGradient>
<linearGradient id="paint35_linear_144_995" x1="179.962" y1="211.862" x2="179.962" y2="175.772" gradientUnits="userSpaceOnUse">
<stop stop-color="#CCEDFF"/>
<stop offset="1" stop-color="#755CBB"/>
</linearGradient>
<linearGradient id="paint36_linear_144_995" x1="122.924" y1="165.727" x2="122.924" y2="138.46" gradientUnits="userSpaceOnUse">
<stop stop-color="#CCEDFF"/>
<stop offset="1" stop-color="#755CBB"/>
</linearGradient>
<linearGradient id="paint37_linear_144_995" x1="144.99" y1="141.715" x2="155.979" y2="141.715" gradientUnits="userSpaceOnUse">
<stop stop-color="#CCEDFF"/>
<stop offset="1" stop-color="#755CBB"/>
</linearGradient>
<linearGradient id="paint38_linear_144_995" x1="264.447" y1="207.86" x2="264.447" y2="157.32" gradientUnits="userSpaceOnUse">
<stop stop-color="#CCCCFF"/>
<stop offset="1" stop-color="#755CBB"/>
</linearGradient>
<linearGradient id="paint39_linear_144_995" x1="321.268" y1="196.99" x2="321.268" y2="170.58" gradientUnits="userSpaceOnUse">
<stop stop-color="#CCCCFF"/>
<stop offset="1" stop-color="#755CBB"/>
</linearGradient>
<linearGradient id="paint40_linear_144_995" x1="291.315" y1="195.81" x2="291.315" y2="175.62" gradientUnits="userSpaceOnUse">
<stop stop-color="#CCCCFF"/>
<stop offset="1" stop-color="#755CBB"/>
</linearGradient>
<linearGradient id="paint41_linear_144_995" x1="117.217" y1="167.468" x2="117.217" y2="159.97" gradientUnits="userSpaceOnUse">
<stop stop-color="#CCEDFF"/>
<stop offset="1" stop-color="#755CBB"/>
</linearGradient>
<linearGradient id="paint42_linear_144_995" x1="137.246" y1="190.327" x2="137.246" y2="149.35" gradientUnits="userSpaceOnUse">
<stop stop-color="#CCCCFF"/>
<stop offset="1" stop-color="#755CBB"/>
</linearGradient>
<linearGradient id="paint43_linear_144_995" x1="242.669" y1="161.484" x2="242.669" y2="130.648" gradientUnits="userSpaceOnUse">
<stop stop-color="#CCEDFF"/>
<stop offset="1" stop-color="#755CBB"/>
</linearGradient>
<linearGradient id="paint44_linear_144_995" x1="202.272" y1="157.316" x2="202.272" y2="114.756" gradientUnits="userSpaceOnUse">
<stop stop-color="#CCEDFF"/>
<stop offset="1" stop-color="#755CBB"/>
</linearGradient>
<linearGradient id="paint45_linear_144_995" x1="187.901" y1="165.1" x2="258.985" y2="165.1" gradientUnits="userSpaceOnUse">
<stop stop-color="#8642A0"/>
<stop offset="1" stop-color="#6456C0"/>
</linearGradient>
<linearGradient id="paint46_linear_144_995" x1="194.03" y1="124.08" x2="240.29" y2="124.08" gradientUnits="userSpaceOnUse">
<stop stop-color="#CCCCFF"/>
<stop offset="1" stop-color="#755CBB"/>
</linearGradient>
<linearGradient id="paint47_linear_144_995" x1="312.951" y1="193.979" x2="312.951" y2="167.207" gradientUnits="userSpaceOnUse">
<stop stop-color="#CCCCFF"/>
<stop offset="1" stop-color="#755CBB"/>
</linearGradient>
<linearGradient id="paint48_linear_144_995" x1="275.109" y1="224.18" x2="275.109" y2="143.11" gradientUnits="userSpaceOnUse">
<stop stop-color="#CCCCFF"/>
<stop offset="1" stop-color="#755CBB"/>
</linearGradient>
<linearGradient id="paint49_linear_144_995" x1="187.95" y1="262.26" x2="187.95" y2="239.02" gradientUnits="userSpaceOnUse">
<stop stop-color="#CCCCFF"/>
<stop offset="1" stop-color="#755CBB"/>
</linearGradient>
<linearGradient id="paint50_linear_144_995" x1="233.095" y1="255.876" x2="233.095" y2="244.59" gradientUnits="userSpaceOnUse">
<stop stop-color="#CCCCFF"/>
<stop offset="1" stop-color="#755CBB"/>
</linearGradient>
<linearGradient id="paint51_linear_144_995" x1="232.597" y1="110.812" x2="232.597" y2="33.6047" gradientUnits="userSpaceOnUse">
<stop offset="0.016" stop-color="#FFC2A9"/>
<stop offset="1" stop-color="#FF9595"/>
</linearGradient>
<linearGradient id="paint52_linear_144_995" x1="203.815" y1="79.6572" x2="203.815" y2="56.8947" gradientUnits="userSpaceOnUse">
<stop offset="0.016" stop-color="#FFC2A9"/>
<stop offset="1" stop-color="#FF9595"/>
</linearGradient>
<linearGradient id="paint53_linear_144_995" x1="243.328" y1="88.2651" x2="244.282" y2="83.2959" gradientUnits="userSpaceOnUse">
<stop stop-color="#E1616A"/>
<stop offset="1" stop-color="#FF8883"/>
</linearGradient>
<linearGradient id="paint54_linear_144_995" x1="234.713" y1="84.4629" x2="234.713" y2="34.7261" gradientUnits="userSpaceOnUse">
<stop stop-color="#FFEADB"/>
<stop offset="0.9944" stop-color="#C27CB6"/>
</linearGradient>
<linearGradient id="paint55_linear_144_995" x1="232.289" y1="64.0946" x2="232.289" y2="54.242" gradientUnits="userSpaceOnUse">
<stop stop-color="#CF6074"/>
<stop offset="1" stop-color="#F37270"/>
</linearGradient>
<linearGradient id="paint56_linear_144_995" x1="251.941" y1="67.2211" x2="251.941" y2="58.6474" gradientUnits="userSpaceOnUse">
<stop stop-color="#CF6074"/>
<stop offset="1" stop-color="#FF817F"/>
</linearGradient>
<linearGradient id="paint57_linear_144_995" x1="252.748" y1="72.21" x2="252.748" y2="52.9167" gradientUnits="userSpaceOnUse">
<stop stop-color="#FFEADB"/>
<stop offset="0.9944" stop-color="#C27CB6"/>
</linearGradient>
<linearGradient id="paint58_linear_144_995" x1="233.633" y1="111.783" x2="233.633" y2="18.1499" gradientUnits="userSpaceOnUse">
<stop stop-color="#2E33A0"/>
<stop offset="1" stop-color="#0665A5"/>
</linearGradient>
<linearGradient id="paint59_linear_144_995" x1="258.226" y1="52.82" x2="258.226" y2="31.22" gradientUnits="userSpaceOnUse">
<stop stop-color="#FFEADB"/>
<stop offset="0.9944" stop-color="#8860C7"/>
</linearGradient>
<linearGradient id="paint60_linear_144_995" x1="228.791" y1="111.783" x2="228.791" y2="18.1499" gradientUnits="userSpaceOnUse">
<stop stop-color="#CCC2DB"/>
<stop offset="0.9944" stop-color="#8860C7"/>
</linearGradient>
<linearGradient id="paint61_linear_144_995" x1="235.07" y1="111.76" x2="235.07" y2="107.738" gradientUnits="userSpaceOnUse">
<stop stop-color="#776D7E"/>
<stop offset="1" stop-color="#9D68C2"/>
</linearGradient>
<linearGradient id="paint62_linear_144_995" x1="246.872" y1="24.87" x2="246.872" y2="21.8813" gradientUnits="userSpaceOnUse">
<stop stop-color="#1F77D1"/>
<stop offset="1" stop-color="#0686C9"/>
</linearGradient>
<linearGradient id="paint63_linear_144_995" x1="227.833" y1="34.71" x2="227.833" y2="25.8734" gradientUnits="userSpaceOnUse">
<stop stop-color="#1F77D1"/>
<stop offset="1" stop-color="#0686C9"/>
</linearGradient>
<linearGradient id="paint64_linear_144_995" x1="259.854" y1="39.19" x2="259.854" y2="31.22" gradientUnits="userSpaceOnUse">
<stop stop-color="#1F77D1"/>
<stop offset="1" stop-color="#0686C9"/>
</linearGradient>
<linearGradient id="paint65_linear_144_995" x1="207.13" y1="74.2623" x2="196.934" y2="61.7712" gradientUnits="userSpaceOnUse">
<stop stop-color="#FFEADB"/>
<stop offset="0.9944" stop-color="#B060F4"/>
</linearGradient>
<linearGradient id="paint66_linear_144_995" x1="208.197" y1="72.6532" x2="203.181" y2="66.5072" gradientUnits="userSpaceOnUse">
<stop stop-color="#FFEADB"/>
<stop offset="0.9944" stop-color="#B060F4"/>
</linearGradient>
<linearGradient id="paint67_linear_144_995" x1="227.243" y1="35.5002" x2="244.51" y2="35.5002" gradientUnits="userSpaceOnUse">
<stop stop-color="#1F77D1"/>
<stop offset="1" stop-color="#0686C9"/>
</linearGradient>
<linearGradient id="paint68_linear_144_995" x1="251.597" y1="87.1386" x2="256.834" y2="87.1386" gradientUnits="userSpaceOnUse">
<stop stop-color="#1F77D1"/>
<stop offset="1" stop-color="#0686C9"/>
</linearGradient>
<linearGradient id="paint69_linear_144_995" x1="245.131" y1="83.2445" x2="250.78" y2="83.2445" gradientUnits="userSpaceOnUse">
<stop stop-color="#1F77D1"/>
<stop offset="1" stop-color="#0686C9"/>
</linearGradient>
<linearGradient id="paint70_linear_144_995" x1="286.796" y1="96.946" x2="463.854" y2="96.946" gradientUnits="userSpaceOnUse">
<stop stop-color="#9D68C2"/>
<stop offset="1" stop-color="#AEC2FF"/>
</linearGradient>
<linearGradient id="paint71_linear_144_995" x1="322.814" y1="163.819" x2="322.814" y2="110.417" gradientUnits="userSpaceOnUse">
<stop stop-color="#CCEDFF"/>
<stop offset="1" stop-color="#9D68C2"/>
</linearGradient>
<linearGradient id="paint72_linear_144_995" x1="413.873" y1="137.783" x2="413.873" y2="114.261" gradientUnits="userSpaceOnUse">
<stop stop-color="#CCEDFF"/>
<stop offset="1" stop-color="#9D68C2"/>
</linearGradient>
<linearGradient id="paint73_linear_144_995" x1="441.626" y1="137.783" x2="441.626" y2="114.261" gradientUnits="userSpaceOnUse">
<stop stop-color="#CCEDFF"/>
<stop offset="1" stop-color="#9D68C2"/>
</linearGradient>
<linearGradient id="paint74_linear_144_995" x1="385.655" y1="137.783" x2="385.655" y2="114.261" gradientUnits="userSpaceOnUse">
<stop stop-color="#CCEDFF"/>
<stop offset="1" stop-color="#9D68C2"/>
</linearGradient>
<linearGradient id="paint75_linear_144_995" x1="132.668" y1="79.9874" x2="132.668" y2="55.3654" gradientUnits="userSpaceOnUse">
<stop stop-color="#D93DE3"/>
<stop offset="1" stop-color="#FF6DBA"/>
</linearGradient>
<linearGradient id="paint76_linear_144_995" x1="147.718" y1="79.9874" x2="147.718" y2="55.3654" gradientUnits="userSpaceOnUse">
<stop stop-color="#A242EA"/>
<stop offset="1" stop-color="#FE117E"/>
</linearGradient>
<linearGradient id="paint77_linear_144_995" x1="128.396" y1="339.37" x2="141.711" y2="233.356" gradientUnits="userSpaceOnUse">
<stop stop-color="#067EFF"/>
<stop offset="1" stop-color="#3E37A0"/>
</linearGradient>
<linearGradient id="paint78_linear_144_995" x1="439.249" y1="77.3081" x2="439.249" y2="68.3709" gradientUnits="userSpaceOnUse">
<stop stop-color="#459FFF"/>
<stop offset="1" stop-color="#A96DFF"/>
</linearGradient>
<linearGradient id="paint79_linear_144_995" x1="19.2556" y1="182.038" x2="19.2556" y2="170.915" gradientUnits="userSpaceOnUse">
<stop stop-color="#459FFF"/>
<stop offset="1" stop-color="#A96DFF"/>
</linearGradient>
<linearGradient id="paint80_linear_144_995" x1="452.374" y1="77.3081" x2="452.374" y2="68.3709" gradientUnits="userSpaceOnUse">
<stop stop-color="#B31A8F"/>
<stop offset="1" stop-color="#FE117E"/>
</linearGradient>
<linearGradient id="paint81_linear_144_995" x1="164.203" y1="106.726" x2="164.203" y2="100.406" gradientUnits="userSpaceOnUse">
<stop stop-color="#B31A8F"/>
<stop offset="1" stop-color="#FE117E"/>
</linearGradient>
<linearGradient id="paint82_linear_144_995" x1="375.86" y1="246.163" x2="375.86" y2="239.843" gradientUnits="userSpaceOnUse">
<stop stop-color="#8642A0"/>
<stop offset="1" stop-color="#6456C0"/>
</linearGradient>
<linearGradient id="paint83_linear_144_995" x1="47.338" y1="277.333" x2="47.338" y2="271.683" gradientUnits="userSpaceOnUse">
<stop stop-color="#8642A0"/>
<stop offset="1" stop-color="#6456C0"/>
</linearGradient>
<linearGradient id="paint84_linear_144_995" x1="71.0429" y1="246.771" x2="71.0429" y2="200.109" gradientUnits="userSpaceOnUse">
<stop stop-color="#D906E3"/>
<stop offset="1" stop-color="#FF6DF9"/>
</linearGradient>
<linearGradient id="paint85_linear_144_995" x1="393.234" y1="312.822" x2="393.234" y2="254.447" gradientUnits="userSpaceOnUse">
<stop stop-color="#D906E3"/>
<stop offset="1" stop-color="#FF6DF9"/>
</linearGradient>
<linearGradient id="paint86_linear_144_995" x1="317.492" y1="280.179" x2="323.789" y2="237.663" gradientUnits="userSpaceOnUse">
<stop stop-color="#1852A0"/>
<stop offset="1" stop-color="#067ED3"/>
</linearGradient>
<linearGradient id="paint87_linear_144_995" x1="312.795" y1="279.082" x2="324.168" y2="236.842" gradientUnits="userSpaceOnUse">
<stop stop-color="#1852A0"/>
<stop offset="1" stop-color="#067ED3"/>
</linearGradient>
<linearGradient id="paint88_linear_144_995" x1="307.453" y1="277.339" x2="314.167" y2="234.542" gradientUnits="userSpaceOnUse">
<stop stop-color="#188DC1"/>
<stop offset="1" stop-color="#06BFE7"/>
</linearGradient>
<linearGradient id="paint89_linear_144_995" x1="347.351" y1="52.0974" x2="358.682" y2="10.0141" gradientUnits="userSpaceOnUse">
<stop stop-color="#188DC1"/>
<stop offset="1" stop-color="#06BFE7"/>
</linearGradient>
<linearGradient id="paint90_linear_144_995" x1="327.873" y1="47.2425" x2="336.323" y2="15.8602" gradientUnits="userSpaceOnUse">
<stop stop-color="#1852A0"/>
<stop offset="1" stop-color="#067ED3"/>
</linearGradient>
<linearGradient id="paint91_linear_144_995" x1="19.7314" y1="124.571" x2="12.0064" y2="95.8816" gradientUnits="userSpaceOnUse">
<stop stop-color="#188DC1"/>
<stop offset="1" stop-color="#06BFE7"/>
</linearGradient>
<linearGradient id="paint92_linear_144_995" x1="33.0099" y1="121.261" x2="27.2492" y2="99.867" gradientUnits="userSpaceOnUse">
<stop stop-color="#1852A0"/>
<stop offset="1" stop-color="#067ED3"/>
</linearGradient>
</defs>
</svg>
