<svg width="684" height="440" viewBox="0 0 684 440" fill="none" xmlns="http://www.w3.org/2000/svg">
<path d="M292.377 238.113L279.403 242.82V247.348L292.377 252.054V247.73L284.669 245.084L292.377 242.438V238.113ZM292.762 256.532H297.85L306.245 232.567H301.157L292.762 256.532ZM306.383 238.113V242.438L314.091 245.084L306.383 247.73V252.054L319.357 247.348V242.82L306.383 238.113Z" fill="#323247"/>
<path d="M431.837 160.349C430.346 193.014 398.236 218.044 374.184 219.555C342.406 221.552 319.695 192.894 316.531 160.349C313.79 132.154 323.803 132.574 331.26 120.822C340.296 106.583 357.135 98.7144 374.184 98.7144C406.025 98.7144 433.844 116.401 431.837 160.349Z" fill="#B83D5D"/>
<path d="M396.527 216.505H351.841V272.448H396.527V216.505Z" fill="#E3B5AA"/>
<path d="M424.379 183.875C432.35 171.779 442.492 171.249 446.727 185.554C450.962 199.86 436.985 211.632 425.604 207.288C414.224 202.944 424.379 183.875 424.379 183.875Z" fill="#E3B5AA"/>
<path d="M433.789 184.191C439.128 183.214 441.865 199.122 430.156 199.647L432.564 194.097L430.304 189.479L433.789 184.191Z" fill="#D78F97"/>
<path d="M428.404 201.828C435.229 194.553 430.304 189.479 430.304 189.479C430.304 189.479 436.8 176.155 439.404 186.367" stroke="#C87E84" stroke-width="0.5" stroke-miterlimit="10"/>
<path d="M323.617 183.875C315.646 171.779 305.504 171.249 301.269 185.554C297.034 199.86 311.011 211.632 322.392 207.288C333.772 202.944 323.617 183.875 323.617 183.875Z" fill="#E3B5AA"/>
<path d="M314.207 184.191C308.868 183.214 306.131 199.122 317.841 199.647L315.433 194.097L317.693 189.479L314.207 184.191Z" fill="#D78F97"/>
<path d="M319.592 201.828C312.766 194.553 317.692 189.479 317.692 189.479C317.692 189.479 311.196 176.155 308.592 186.367" stroke="#C87E84" stroke-width="0.5" stroke-miterlimit="10"/>
<path d="M396.528 217.742V238.553C380.47 260.313 351.842 253.238 351.842 253.238L352.343 217.741H396.528V217.742Z" fill="#C87E84"/>
<path d="M374.184 241.589C347.508 241.589 325.884 219.964 325.884 193.289V157.993C325.884 139.976 340.49 125.37 358.507 125.37H389.862C407.879 125.37 422.485 139.976 422.485 157.993V193.289C422.484 219.964 400.86 241.589 374.184 241.589Z" fill="#E3B5AA"/>
<path d="M381.616 199.603C381.616 203.707 378.289 207.034 374.185 207.034C370.081 207.034 366.754 203.707 366.754 199.603" stroke="#B83D5D" stroke-miterlimit="10"/>
<path d="M330.987 127.53C330.987 127.53 322.527 113.507 333.123 101.143C333.123 101.143 340.736 115.239 330.987 127.53Z" fill="#B83D5D"/>
<path d="M335.284 124.2C335.284 124.2 323.504 135.577 309.086 128.008C309.086 128.008 321.127 117.441 335.284 124.2Z" fill="#B83D5D"/>
<path d="M355.004 182.266C355.004 186.259 353.303 189.497 351.205 189.497C349.107 189.497 347.406 186.26 347.406 182.266C347.406 178.272 349.107 175.035 351.205 175.035C353.303 175.035 355.004 178.273 355.004 182.266Z" fill="#36364F"/>
<path d="M367.984 186.831C370.797 176.48 364.685 165.808 354.333 162.995C343.982 160.183 333.31 166.294 330.497 176.646C327.685 186.997 333.796 197.669 344.148 200.482C354.5 203.294 365.171 197.183 367.984 186.831Z" stroke="white" stroke-width="4" stroke-miterlimit="10"/>
<path d="M400.963 182.266C400.963 186.259 399.262 189.497 397.164 189.497C395.066 189.497 393.365 186.26 393.365 182.266C393.365 178.272 395.066 175.035 397.164 175.035C399.262 175.035 400.963 178.273 400.963 182.266Z" fill="#36364F"/>
<path d="M417.827 186.911C420.69 176.573 414.631 165.872 404.293 163.009C393.956 160.146 383.255 166.205 380.392 176.543C377.528 186.881 383.588 197.582 393.925 200.445C404.263 203.308 414.964 197.249 417.827 186.911Z" stroke="white" stroke-width="4" stroke-miterlimit="10"/>
<path d="M331.87 139.154C331.87 139.154 362.555 122.978 382.944 134.702C403.333 146.426 405.627 170.638 425.761 164.372C425.761 164.372 441.053 157.64 424.232 134.192C407.411 110.744 395.902 106.157 374.004 111.254C352.106 116.351 337.856 120.316 331.87 139.154Z" fill="#B83D5D"/>
<path d="M330.697 138.922C330.697 138.922 340.826 125.492 355.004 121.942C369.182 118.392 384.864 135.832 384.864 135.832C384.864 135.832 348.537 130.652 330.697 138.922Z" fill="#9A304F"/>
<path d="M325.958 155.815C325.958 155.815 329.375 180.74 325.958 195.952C325.958 195.952 320.964 157.302 325.958 155.815Z" fill="#B83D5D"/>
<path d="M422.134 155.815C422.134 155.815 418.717 180.74 422.134 195.952C422.134 195.952 427.128 157.302 422.134 155.815Z" fill="#B83D5D"/>
<path d="M359.863 153.869C354.593 151.346 345.219 148.577 336.534 154.763C335.077 155.801 335.631 158.091 337.393 158.395C340.179 158.876 344.177 159.373 348.701 159.344C352.218 159.322 356.38 158.456 359.489 157.657C361.316 157.188 361.565 154.684 359.863 153.869Z" fill="#B83D5D"/>
<path d="M410.759 153.869C405.489 151.346 396.115 148.577 387.43 154.763C385.974 155.801 386.527 158.091 388.289 158.395C391.075 158.876 395.073 159.373 399.597 159.344C403.114 159.322 407.276 158.456 410.385 157.657C412.212 157.188 412.46 154.684 410.759 153.869Z" fill="#B83D5D"/>
<path d="M390.522 217.049C390.021 217.942 389.429 218.877 388.618 219.808C386.036 222.916 381.651 225.902 374.14 226.04L374.129 226.073L373.578 226.062L373.557 226.017C366.514 225.879 362.174 223.228 359.557 220.303C358.543 219.204 357.774 218.043 357.222 216.998C355.971 214.596 355.645 212.708 355.645 212.708L392.116 212.776C392.116 212.776 391.814 214.663 390.522 217.049Z" fill="#C33E5D"/>
<path d="M390.522 217.049C390.021 217.942 389.429 218.877 388.618 219.808C380.247 216.131 370.178 215.36 359.557 220.303C358.543 219.204 357.774 218.043 357.222 216.998C355.971 214.596 355.645 212.708 355.645 212.708L392.116 212.776C392.116 212.776 391.814 214.663 390.522 217.049Z" fill="#36364F"/>
<path d="M529.21 411.406L202.25 411.746C202.25 411.746 208.35 398.986 217.13 382.076C217.78 380.826 218.45 379.546 219.13 378.246C231.12 355.376 247.25 326.486 259.84 310.816C274.34 292.776 308.6 279.916 331.87 272.886C345.43 268.796 355.25 266.686 355.25 266.686H392.81C392.81 266.686 401.63 268.576 414.09 272.266C437.34 279.136 472.1 293.236 488.22 310.816C491.76 314.676 495.09 319.346 498.21 324.526C518.05 357.496 529.21 411.406 529.21 411.406Z" fill="#0CA653"/>
<path opacity="0.5" d="M529.21 411.406L202.25 411.746C202.25 411.746 208.35 398.986 217.13 382.076C380.291 430.038 466.273 351.438 485.893 330.161C489.061 326.726 493.46 324.657 498.131 324.528L498.21 324.526C518.05 357.496 529.21 411.406 529.21 411.406Z" fill="#D9751F"/>
<path d="M369.054 185.031H379.313" stroke="white" stroke-width="4" stroke-miterlimit="10"/>
<path d="M414.089 272.262C373.616 316.793 331.87 272.891 331.87 272.891C345.431 268.793 355.253 266.682 355.253 266.682H392.811C392.811 266.682 401.631 268.578 414.089 272.262Z" fill="#E3B5AA"/>
<path d="M284.821 361.023V411.807" stroke="#00D563" stroke-width="3" stroke-miterlimit="10"/>
<path d="M284.821 393.391L271.185 376.006" stroke="#00D563" stroke-width="3" stroke-miterlimit="10"/>
<path d="M462.623 361.023V411.807" stroke="#00D563" stroke-width="3" stroke-miterlimit="10"/>
<path d="M462.623 393.392L474.73 377.955" stroke="#00D563" stroke-width="3" stroke-miterlimit="10"/>
<path d="M329.932 292.218C329.932 292.218 380.116 326.49 414.089 290.554" stroke="#00D563" stroke-width="3" stroke-miterlimit="10"/>
<path d="M443.728 361.305L434.495 349.099L443.373 337.426H436.005L430.811 344.394L425.751 337.426H417.984L426.861 349.277L417.673 361.305H425.219L430.634 353.981L435.871 361.305H443.728Z" fill="white"/>
<path d="M330.706 118.152C341.974 70.7932 454.861 76.0042 433.855 168.211C427.563 195.832 381.555 105.425 341.847 127.605C338.879 129.263 335.18 128.834 332.698 126.51C330.419 124.375 329.983 121.191 330.706 118.152Z" fill="#B83D5D"/>
<path d="M392.71 411.436C392.68 411.446 392.64 411.456 392.6 411.456C392.33 411.486 392.05 411.496 391.77 411.496H172.78C169.87 411.496 167.28 410.146 165.59 408.026C164.33 406.456 163.58 404.456 163.58 402.286L163.55 402.186L129.45 305.836C126.84 298.476 132.3 290.746 140.11 290.746H282.29C287.09 290.746 291.36 293.766 292.96 298.286L329.71 402.106C329.75 402.226 329.77 402.286 329.77 402.286H391.98C397.69 402.287 398.32 410.827 392.71 411.436Z" fill="#80ABBD"/>
<path d="M229.395 348.912C232.99 359.366 228.925 370.242 220.314 373.203C211.704 376.164 201.809 370.09 198.214 359.635C194.619 349.181 198.684 338.305 207.295 335.344C215.905 332.383 225.8 338.457 229.395 348.912Z" fill="white"/>
<path d="M391.982 402.285H329.769C329.769 402.285 329.751 402.222 329.715 402.105L292.959 298.284C291.357 293.765 287.09 290.749 282.292 290.749H277.539C277.539 290.749 288.161 291.442 290.817 300.948C293.473 310.445 329.769 411.295 329.769 411.295L332.452 411.493H391.767C392.055 411.493 392.334 411.484 392.604 411.457C398.328 410.936 397.725 402.285 391.982 402.285Z" fill="#4B7195"/>
<path opacity="0.4" d="M392.71 411.436C392.68 411.446 392.64 411.456 392.6 411.456C392.33 411.486 392.05 411.496 391.77 411.496H172.78C169.87 411.496 167.28 410.146 165.59 408.026C295.03 419.146 282.29 290.746 282.29 290.746C287.09 290.746 291.36 293.766 292.96 298.286L329.71 402.106C329.75 402.226 329.77 402.286 329.77 402.286H391C391.66 405.317 392.24 408.366 392.71 411.436Z" fill="#5A93A0"/>
<path d="M132.312 347.891V351.114C126.486 351.78 125.061 356.708 125.061 362.704V364.687C125.061 370.684 126.487 375.611 132.312 376.277V379.484H20.922C16.351 379.484 12.6479 375.781 12.6479 371.21V356.18C12.6479 351.609 16.351 347.89 20.922 347.89H132.312V347.891Z" fill="#4B7195"/>
<path d="M130.577 372.977C131.243 374.558 130.019 376.277 128.315 376.277L21.8682 376.354V351.036L128.315 351.113C128.935 351.113 129.493 351.345 129.911 351.717C130.655 352.337 130.995 353.406 130.577 354.413C129.694 356.52 129.725 359.449 129.725 362.702V364.685C129.724 367.941 129.693 370.87 130.577 372.977Z" fill="white"/>
<path opacity="0.4" d="M129.91 351.719C127.865 351.827 33.7982 356.693 27.3522 365.834C25.6012 368.313 23.6182 369.692 21.8672 369.971V351.037L128.314 351.114C128.934 351.114 129.492 351.347 129.91 351.719Z" fill="#A3D5E6"/>
<path d="M27.352 379.491H17.992C15.041 379.491 12.6479 377.099 12.6479 374.147V353.242C12.6479 350.291 15.04 347.898 17.992 347.898H27.352V379.491Z" fill="#4B7195"/>
<path opacity="0.4" d="M130.577 372.977C131.243 374.557 130.019 376.277 128.315 376.277L107.065 376.293C123.946 374.373 122.891 360.504 122.891 360.504C123.077 359.838 109.551 351.703 109.784 351.099L128.315 351.115C128.935 351.115 129.493 351.347 129.911 351.719C130.655 352.339 130.995 353.408 130.577 354.415C129.694 356.522 129.725 359.451 129.725 362.705V364.688C129.724 367.941 129.693 370.87 130.577 372.977Z" fill="#A3D5E6"/>
<path opacity="0.4" d="M129.724 361.848H27.5327V364.13H129.724V361.848Z" fill="#A3D5E6"/>
<path opacity="0.4" d="M129.724 356.709H27.5327V358.991H129.724V356.709Z" fill="#A3D5E6"/>
<path opacity="0.4" d="M129.724 368.385H27.5327V370.667H129.724V368.385Z" fill="#A3D5E6"/>
<path d="M96.8079 371.628L91.3749 366.209L85.9409 371.628V356.709H96.8079V371.628Z" fill="#C33E5D"/>
<path d="M144.227 379.377V382.6C138.401 383.266 136.976 388.193 136.976 394.19V396.173C136.976 402.169 138.402 407.097 144.227 407.763V410.97H32.837C28.266 410.97 24.563 407.267 24.563 402.696V387.666C24.563 383.095 28.266 379.377 32.837 379.377H144.227Z" fill="#C33E5D"/>
<path d="M142.491 404.463C143.157 406.043 141.933 407.763 140.229 407.763L33.7822 407.84V382.522L140.229 382.6C140.849 382.6 141.407 382.832 141.825 383.204C142.569 383.824 142.91 384.893 142.491 385.9C141.608 388.007 141.639 390.936 141.639 394.189V396.172C141.639 399.427 141.608 402.356 142.491 404.463Z" fill="white"/>
<path opacity="0.4" d="M141.825 383.205C139.78 383.313 45.7132 388.179 39.2672 397.321C37.5162 399.8 35.5332 401.179 33.7822 401.458V382.524L140.229 382.602C140.849 382.6 141.407 382.833 141.825 383.205Z" fill="#A3D5E6"/>
<path d="M39.267 410.977H29.907C26.956 410.977 24.563 408.585 24.563 405.633V384.728C24.563 381.777 26.955 379.384 29.907 379.384H39.267V410.977Z" fill="#C33E5D"/>
<path opacity="0.4" d="M142.491 404.463C143.157 406.044 141.933 407.763 140.229 407.763L118.979 407.779C135.86 405.859 134.805 391.99 134.805 391.99C134.991 391.324 121.465 383.189 121.698 382.585L140.229 382.601C140.849 382.601 141.407 382.833 141.825 383.205C142.569 383.825 142.91 384.894 142.491 385.901C141.608 388.008 141.639 390.937 141.639 394.19V396.173C141.639 399.427 141.608 402.356 142.491 404.463Z" fill="#A3D5E6"/>
<path opacity="0.4" d="M141.639 393.334H39.4478V395.616H141.639V393.334Z" fill="#A3D5E6"/>
<path opacity="0.4" d="M141.639 388.195H39.4478V390.477H141.639V388.195Z" fill="#A3D5E6"/>
<path opacity="0.4" d="M141.639 399.871H39.4478V402.153H141.639V399.871Z" fill="#A3D5E6"/>
<path d="M130.461 405.099L124.72 399.373L118.979 405.099V389.336H130.461V405.099Z" fill="#C33E5D"/>
<path d="M683.63 424.697V427.007C683.63 434.067 677.9 439.787 670.84 439.787H16.7998C10.8498 439.787 5.84977 435.727 4.41977 430.237C4.41977 430.227 4.41977 430.217 4.40977 430.207C4.14977 429.177 4.00977 428.107 4.00977 427.007V424.697C4.00977 417.637 9.72977 411.917 16.7998 411.917H670.84C677.9 411.917 683.63 417.637 683.63 424.697Z" fill="#47547C"/>
<path opacity="0.5" d="M683.63 424.697V427.007C683.63 434.067 677.9 439.787 670.84 439.787H16.7998C10.8498 439.787 5.84977 435.727 4.41977 430.237C4.41977 430.227 4.41977 430.217 4.40977 430.207C4.13977 428.157 4.00977 427.007 4.00977 427.007C370.764 439.787 670.84 411.917 670.84 411.917C677.9 411.917 683.63 417.637 683.63 424.697Z" fill="#2B2B3F"/>
<path d="M667.319 74.2912C667.319 74.2082 667.33 74.1352 667.33 74.0522C667.33 73.9692 667.319 73.8962 667.319 73.8232C668.516 73.2722 669.723 72.6372 670.91 71.8672C672.179 70.9932 673.47 69.9832 674.667 68.8282L674.407 67.8082C674.157 66.6532 673.71 65.5392 673.304 64.4262C673.075 63.8852 672.804 63.3542 672.544 62.8232C672.305 62.2712 672.013 61.7612 671.691 61.2622L671.15 60.3672C669.516 60.3772 667.861 60.5862 666.352 60.8662C664.989 61.1472 663.667 61.5532 662.439 62.0212L662.106 61.6882C662.564 60.4492 662.98 59.1382 663.251 57.7752C663.542 56.2662 663.75 54.6112 663.761 52.9772L662.866 52.4362C662.366 52.1132 661.846 51.8222 661.305 51.5832C660.774 51.3232 660.243 51.0522 659.692 50.8232C658.579 50.4172 657.475 49.9702 656.32 49.7202L655.3 49.4602C654.145 50.6572 653.135 51.9372 652.261 53.2172C651.491 54.3932 650.856 55.6002 650.305 56.8072C650.232 56.8072 650.149 56.7862 650.076 56.7862C649.993 56.7862 649.919 56.8072 649.837 56.8072C649.296 55.6002 648.65 54.3932 647.88 53.2172C647.017 51.9372 645.997 50.6572 644.852 49.4602L643.832 49.7202C642.666 49.9702 641.563 50.4172 640.45 50.8232C639.909 51.0522 639.378 51.3232 638.837 51.5832C638.296 51.8222 637.786 52.1142 637.276 52.4362L636.381 52.9772C636.402 54.6112 636.61 56.2662 636.891 57.7752C637.172 59.1382 637.578 60.4492 638.046 61.6882C637.932 61.8022 637.817 61.9062 637.713 62.0212C636.474 61.5532 635.163 61.1472 633.8 60.8662C632.291 60.5852 630.626 60.3772 629.002 60.3672L628.45 61.2622C628.138 61.7622 627.846 62.2722 627.597 62.8232C627.347 63.3542 627.077 63.8842 626.847 64.4262C626.431 65.5402 625.994 66.6532 625.744 67.8082L625.484 68.8282C626.681 69.9832 627.961 70.9932 629.241 71.8672C630.417 72.6372 631.624 73.2722 632.821 73.8232C632.821 73.8962 632.811 73.9692 632.811 74.0522C632.811 74.1352 632.821 74.2082 632.821 74.2912C631.624 74.8322 630.417 75.4782 629.241 76.2482C627.961 77.1122 626.681 78.1312 625.484 79.2762L625.744 80.2962C625.994 81.4512 626.431 82.5652 626.847 83.6782C627.076 84.2192 627.347 84.7502 627.597 85.2912C627.847 85.8322 628.138 86.3422 628.45 86.8422L629.002 87.7372C630.626 87.7272 632.291 87.5182 633.8 87.2372C635.163 86.9562 636.474 86.5502 637.713 86.0822C637.817 86.1962 637.932 86.3112 638.046 86.4152C637.578 87.6532 637.171 88.9652 636.891 90.3282C636.61 91.8372 636.402 93.5022 636.381 95.1262L637.276 95.6772C637.786 95.9892 638.296 96.2812 638.837 96.5202C639.378 96.7802 639.909 97.0512 640.45 97.2802C641.563 97.6962 642.667 98.1332 643.832 98.3832L644.852 98.6432C645.997 97.4462 647.017 96.1662 647.88 94.8862C648.651 93.7102 649.296 92.5032 649.837 91.2962C649.92 91.3062 649.993 91.3172 650.076 91.3172C650.149 91.3172 650.232 91.3072 650.305 91.2962C650.857 92.5032 651.492 93.7112 652.261 94.8862C653.136 96.1662 654.145 97.4462 655.3 98.6432L656.32 98.3832C657.475 98.1332 658.578 97.6962 659.692 97.2802C660.244 97.0512 660.774 96.7802 661.305 96.5202C661.846 96.2812 662.367 95.9892 662.866 95.6772L663.761 95.1262C663.75 93.5022 663.542 91.8372 663.251 90.3282C662.98 88.9652 662.564 87.6532 662.106 86.4152C662.22 86.3112 662.325 86.1962 662.439 86.0822C663.667 86.5502 664.989 86.9562 666.352 87.2372C667.861 87.5182 669.516 87.7262 671.15 87.7372L671.691 86.8422C672.014 86.3422 672.305 85.8332 672.544 85.2912C672.804 84.7502 673.075 84.2192 673.304 83.6782C673.71 82.5652 674.157 81.4512 674.407 80.2962L674.667 79.2762C673.47 78.1312 672.18 77.1112 670.91 76.2482C669.723 75.4772 668.516 74.8322 667.319 74.2912ZM650.074 82.3042C645.516 82.3042 641.821 78.6092 641.821 74.0512C641.821 69.4932 645.516 65.7982 650.074 65.7982C654.632 65.7982 658.326 69.4932 658.326 74.0512C658.327 78.6102 654.632 82.3042 650.074 82.3042Z" fill="#0CA653"/>
<path d="M626.417 86.7893H570.73V141.631H586.193" stroke="#00D563" stroke-miterlimit="10" stroke-dasharray="4 4"/>
<path d="M618.133 170.984H587.518V176.455H618.133V170.984Z" fill="white"/>
<path d="M634.585 181.107H587.518V186.579H634.585V181.107Z" fill="white"/>
<path d="M603.549 191.23H587.518V196.702H603.549V191.23Z" fill="white"/>
<path d="M626.123 191.23H610.092V196.702H626.123V191.23Z" fill="#0CA653"/>
<path d="M654.88 191.23H631.859V196.702H654.88V191.23Z" fill="#0CA653"/>
<path d="M654.88 181.107H640.901V186.579H654.88V181.107Z" fill="#0CA653"/>
<path d="M654.88 170.984H624.265V176.455H654.88V170.984Z" fill="#0CA653"/>
<path d="M666.095 135.551H665.074V196.535H666.095V135.551Z" fill="white"/>
<path d="M619.474 137.792H587.993V143.418H619.474V137.792Z" fill="white"/>
<path d="M636.393 148.201H587.993V153.828H636.393V148.201Z" fill="white"/>
<path d="M604.478 158.61H587.993V164.236H604.478V158.61Z" fill="white"/>
<path d="M627.691 158.61H611.206V164.236H627.691V158.61Z" fill="#0CA653"/>
<path d="M657.262 158.61H633.59V164.236H657.262V158.61Z" fill="#0CA653"/>
<path d="M657.262 148.201H642.887V153.828H657.262V148.201Z" fill="#0CA653"/>
<path d="M657.261 137.792H625.78V143.418H657.261V137.792Z" fill="#0CA653"/>
<path d="M548.484 32.9312H457.893V210.951H548.484V32.9312Z" fill="#49496B"/>
<path d="M536.229 70.7932H468.213V78.0172H536.229V70.7932Z" fill="white"/>
<path d="M513.229 86.7891H468.213V94.0131H513.229V86.7891Z" fill="white"/>
<path d="M536.229 86.7891H519.915V94.0131H536.229V86.7891Z" fill="#0CA653"/>
<path d="M536.229 102.785H494.08V110.009H536.229V102.785Z" fill="#0CA653"/>
<path d="M487.953 102.785H468.213V110.009H487.953V102.785Z" fill="white"/>
<path d="M504.165 118.781H468.213V126.005H504.165V118.781Z" fill="white"/>
<path d="M536.228 118.781H509.702V126.005H536.228V118.781Z" fill="#0CA653"/>
<path d="M536.228 134.777H487.952V142.001H536.228V134.777Z" fill="#0CA653"/>
<path d="M482.806 134.777H468.213V142.001H482.806V134.777Z" fill="white"/>
<path d="M497.399 150.773H468.213V157.997H497.399V150.773Z" fill="white"/>
<path d="M536.229 150.773H502.221V157.997H536.229V150.773Z" fill="#0CA653"/>
<path d="M534.22 193.404V195.437L526.775 198.268V196.313L531.983 194.42L526.775 192.512V190.573L534.22 193.404Z" fill="#0CA653"/>
<path d="M513.055 190.573V192.512L507.847 194.42L513.055 196.313V198.268L505.611 195.437V193.404L513.055 190.573Z" fill="#0CA653"/>
<path d="M521.855 185.093H524.184L518.655 200.875H516.327L521.855 185.093Z" fill="#0CA653"/>
<path d="M500.037 54.4751V57.1401L490.281 60.8501V58.2881L497.106 55.8081L490.281 53.3081V50.7661L500.037 54.4751Z" fill="#0CA653"/>
<path d="M482.097 50.7651V53.3071L475.272 55.8071L482.097 58.2871V60.8491L472.341 57.1391V54.4741L482.097 50.7651Z" fill="#0CA653"/>
<path d="M467.897 5.10131V9.67113H463.879V5.10131H459.531V18H463.879V13.2459H467.897V18H472.245V5.10131H467.897ZM477.141 18H481.49V8.4734H485.268V5.10131H473.364V8.4734H477.141V18ZM501.875 18L501.839 5.10131H498.264L494.173 11.9745L489.972 5.10131H486.397V18H490.359V12.3246L493.16 16.8391H495.076L497.877 12.1219L497.914 18H501.875ZM503.978 18H514.15V14.6279H508.327V5.10131H503.978V18Z" fill="white"/>
<path d="M38.697 215.306C36.816 213.462 34.645 211.971 32.29 210.888C32.248 210.865 32.205 210.846 32.161 210.828C28.842 209.324 25.178 208.612 21.478 208.816C18.947 208.95 16.401 209.52 13.941 210.553C13.789 210.618 13.634 210.684 13.483 210.751C9.072 212.718 5.59201 215.926 3.27601 219.785C-0.427992 225.94 -1.16999 233.747 1.97301 240.793C7.08201 252.248 20.56 257.412 32.015 252.303C42.516 247.62 47.729 235.906 44.591 225.164C44.307 224.185 43.951 223.215 43.525 222.261C42.33 219.581 40.678 217.245 38.697 215.306ZM29.177 245.941C21.229 249.486 11.88 245.903 8.33501 237.956C6.22701 233.229 6.64101 228.007 8.99501 223.807C9.01101 223.778 9.02801 223.745 9.04701 223.711C10.652 220.888 13.134 218.535 16.32 217.114C16.917 216.848 17.524 216.622 18.135 216.438C18.198 216.416 18.263 216.397 18.327 216.378C21.484 215.453 24.758 215.569 27.736 216.565C27.749 216.566 27.76 216.57 27.772 216.574C30.323 217.432 32.65 218.937 34.49 220.983C35.565 222.175 36.474 223.556 37.162 225.099C37.59 226.059 37.912 227.037 38.136 228.024C39.778 235.219 36.165 242.824 29.177 245.941Z" fill="#64648E"/>
<path d="M32.2898 210.888C34.6448 211.97 36.8158 213.462 38.6968 215.306C40.6768 217.245 42.3298 219.582 43.5248 222.262C43.9508 223.216 44.3068 224.186 44.5908 225.165L38.1368 228.024C37.9128 227.037 37.5908 226.059 37.1628 225.099C36.4748 223.556 35.5668 222.175 34.4908 220.983C32.6508 218.937 30.3228 217.432 27.7728 216.574L27.7368 216.565L32.1608 210.829" fill="#0CA653"/>
<path d="M27.7729 216.573L27.7369 216.564C24.7599 215.568 21.4849 215.452 18.3279 216.377C18.2639 216.396 18.1989 216.416 18.1359 216.437L13.9419 210.553C16.4019 209.519 18.9479 208.95 21.4789 208.816C25.1799 208.612 28.8439 209.323 32.1619 210.828" fill="#B83D5D"/>
<path d="M24.563 254.275V256.275" stroke="#00D563" stroke-miterlimit="10"/>
<path d="M24.563 260.103V288.809" stroke="#00D563" stroke-miterlimit="10" stroke-dasharray="3.83 3.83"/>
<path d="M24.563 290.723V292.723H26.563" stroke="#00D563" stroke-miterlimit="10"/>
<path d="M30.6792 292.723H86.2392" stroke="#00D563" stroke-miterlimit="10" stroke-dasharray="4.12 4.12"/>
<path d="M88.2969 292.723H90.2969V290.723" stroke="#00D563" stroke-miterlimit="10"/>
<path d="M90.2969 286.827V257.616" stroke="#00D563" stroke-miterlimit="10" stroke-dasharray="3.89 3.89"/>
<path d="M90.2969 255.669V253.669" stroke="#00D563" stroke-miterlimit="10"/>
<path d="M259.155 21.8572H66.3071V251.775H259.155V21.8572Z" fill="#49496B"/>
<path d="M259.155 10.6572H66.3071V39.8382H259.155V10.6572Z" fill="#64648E"/>
<path d="M236.839 235.96V237.854L229.904 240.491V238.67L234.756 236.907L229.904 235.13V233.323L236.839 235.96Z" fill="#0CA653"/>
<path d="M217.122 233.323V235.13L212.27 236.907L217.122 238.67V240.491L210.187 237.854V235.96L217.122 233.323Z" fill="#0CA653"/>
<path d="M220.17 242.309H222.34L227.491 227.603H225.322L220.17 242.309Z" fill="#0CA653"/>
<path d="M112.004 58.4413V60.8033L103.356 64.0913V61.8203L109.406 59.6223L103.356 57.4063V55.1533L112.004 58.4413Z" fill="#0CA653"/>
<path d="M96.1011 55.1523V57.4053L90.0511 59.6213L96.1011 61.8193V64.0903L87.4531 60.8023V58.4403L96.1011 55.1523Z" fill="#0CA653"/>
<path d="M91.6578 20.8985L89.4013 27.765L87.1863 20.8985H85.1097L82.8255 27.7096L80.6381 20.8985H78.3124L81.4965 30.5891H83.8914L86.0926 24.0271L88.2245 30.5891H90.6334L93.8036 20.8985H91.6578ZM97.2844 28.7894V26.5467H101.784V24.8024H97.2844V22.6981H102.379V20.8985H95.0556V30.5891H102.559V28.7894H97.2844ZM111.459 25.55C112.248 25.1347 112.747 24.3871 112.747 23.418C112.747 21.909 111.501 20.8985 109.078 20.8985H104.343V30.5891H109.355C111.902 30.5891 113.231 29.62 113.231 27.9449C113.231 26.7267 112.539 25.8961 111.459 25.55ZM108.801 22.5874C109.895 22.5874 110.49 22.9612 110.49 23.7226C110.49 24.484 109.895 24.8716 108.801 24.8716H106.572V22.5874H108.801ZM109.189 28.9002H106.572V26.5052H109.189C110.352 26.5052 110.975 26.8928 110.975 27.7096C110.975 28.5402 110.352 28.9002 109.189 28.9002ZM118.85 30.5891H123.252C126.422 30.5891 128.596 28.6787 128.596 25.7438C128.596 22.8089 126.422 20.8985 123.252 20.8985H118.85V30.5891ZM121.092 28.7479V22.7397H123.141C125.065 22.7397 126.325 23.8887 126.325 25.7438C126.325 27.5989 125.065 28.7479 123.141 28.7479H121.092ZM132.516 28.7894V26.5467H137.015V24.8024H132.516V22.6981H137.61V20.8985H130.287V30.5891H137.79V28.7894H132.516ZM146.528 20.8985L143.537 27.8204L140.589 20.8985H138.166L142.347 30.5891H144.562L148.756 20.8985H146.528ZM151.794 28.7894V26.5467H156.294V24.8024H151.794V22.6981H156.889V20.8985H149.566V30.5891H157.069V28.7894H151.794ZM158.853 30.5891H165.955V28.7617H161.096V20.8985H158.853V30.5891ZM171.739 30.7552C174.785 30.7552 177.041 28.6371 177.041 25.7438C177.041 22.8504 174.785 20.7323 171.739 20.7323C168.68 20.7323 166.437 22.8643 166.437 25.7438C166.437 28.6233 168.68 30.7552 171.739 30.7552ZM171.739 28.8448C170.009 28.8448 168.707 27.585 168.707 25.7438C168.707 23.9026 170.009 22.6428 171.739 22.6428C173.47 22.6428 174.771 23.9026 174.771 25.7438C174.771 27.585 173.47 28.8448 171.739 28.8448ZM182.921 20.8985H178.727V30.5891H180.969V27.9173H182.921C185.51 27.9173 187.13 26.5744 187.13 24.4148C187.13 22.2413 185.51 20.8985 182.921 20.8985ZM182.797 26.0899H180.969V22.7258H182.797C184.167 22.7258 184.86 23.3488 184.86 24.4148C184.86 25.4669 184.167 26.0899 182.797 26.0899ZM188.731 30.5891H190.974V20.8985H188.731V30.5891ZM199.946 20.8985V26.7821L195.129 20.8985H193.274V30.5891H195.489V24.7055L200.32 30.5891H202.161V20.8985H199.946ZM211.002 28.4295C210.435 28.734 209.867 28.8448 209.258 28.8448C207.403 28.8448 206.115 27.5573 206.115 25.7438C206.115 23.9026 207.403 22.6428 209.286 22.6428C210.268 22.6428 211.085 22.9889 211.791 23.7364L213.231 22.4074C212.29 21.3138 210.878 20.7323 209.175 20.7323C206.088 20.7323 203.845 22.8227 203.845 25.7438C203.845 28.6648 206.088 30.7552 209.133 30.7552C210.518 30.7552 211.985 30.3261 213.051 29.5231V25.5915H211.002V28.4295Z" fill="white"/>
<path d="M156.334 78.1143H99.647V88.4953H156.334V78.1143Z" fill="#54B3CD"/>
<path d="M192.665 78.1143H164.321V88.4953H192.665V78.1143Z" fill="#0CA653"/>
<path d="M238.231 78.1143H199.193V88.4953H238.231V78.1143Z" fill="white"/>
<path d="M126.104 96.6482H99.647V107.029H126.104V96.6482Z" fill="#54B3CD"/>
<path d="M178.493 96.6482H133.303V107.029H178.493V96.6482Z" fill="#0CA653"/>
<path d="M238.231 96.6482H185.857V107.029H238.231V96.6482Z" fill="white"/>
<path d="M134.473 115.182H99.647V125.563H134.473V115.182Z" fill="#54B3CD"/>
<path d="M205.654 115.182H140.142V125.563H205.654V115.182Z" fill="#0CA653"/>
<path d="M238.231 115.182H212.674V125.563H238.231V115.182Z" fill="white"/>
<path d="M143.562 133.716H99.647V144.097H143.562V133.716Z" fill="#54B3CD"/>
<path d="M192.665 133.716H150.041V144.097H192.665V133.716Z" fill="#0CA653"/>
<path d="M238.231 133.716H199.193V144.097H238.231V133.716Z" fill="white"/>
<path d="M118.905 152.25H99.647V162.631H118.905V152.25Z" fill="#54B3CD"/>
<path d="M163.539 152.25H125.384V162.631H163.539V152.25Z" fill="#0CA653"/>
<path d="M238.231 152.25H169.479V162.631H238.231V152.25Z" fill="white"/>
<path d="M154.72 170.784H99.647V181.165H154.72V170.784Z" fill="#54B3CD"/>
<path d="M178.493 170.784H161.56V181.165H178.493V170.784Z" fill="#0CA653"/>
<path d="M238.231 170.784H185.857V181.165H238.231V170.784Z" fill="white"/>
<path d="M171.353 189.318H99.647V199.699H171.353V189.318Z" fill="#54B3CD"/>
<path d="M206.735 189.318H177.398V199.699H206.735V189.318Z" fill="#0CA653"/>
<path d="M238.231 189.318H212.674V199.699H238.231V189.318Z" fill="white"/>
<path d="M121.604 207.852H99.647V218.233H121.604V207.852Z" fill="#54B3CD"/>
<path d="M154.72 207.852H127.99V218.233H154.72V207.852Z" fill="#0CA653"/>
<path d="M238.231 207.852H161.56V218.233H238.231V207.852Z" fill="white"/>
<path d="M247.922 78.1143H245.811V218.233H247.922V78.1143Z" fill="white"/>
<path d="M81.8199 88.4963C84.6868 88.4963 87.0109 86.1722 87.0109 83.3053C87.0109 80.4383 84.6868 78.1143 81.8199 78.1143C78.953 78.1143 76.6289 80.4383 76.6289 83.3053C76.6289 86.1722 78.953 88.4963 81.8199 88.4963Z" fill="white"/>
<path d="M81.8199 107.03C84.6868 107.03 87.0109 104.706 87.0109 101.839C87.0109 98.9723 84.6868 96.6482 81.8199 96.6482C78.953 96.6482 76.6289 98.9723 76.6289 101.839C76.6289 104.706 78.953 107.03 81.8199 107.03Z" fill="white"/>
<path d="M81.8199 125.563C84.6868 125.563 87.0109 123.239 87.0109 120.372C87.0109 117.505 84.6868 115.181 81.8199 115.181C78.953 115.181 76.6289 117.505 76.6289 120.372C76.6289 123.239 78.953 125.563 81.8199 125.563Z" fill="white"/>
<path d="M81.8199 144.097C84.6868 144.097 87.0109 141.773 87.0109 138.906C87.0109 136.039 84.6868 133.715 81.8199 133.715C78.953 133.715 76.6289 136.039 76.6289 138.906C76.6289 141.773 78.953 144.097 81.8199 144.097Z" fill="white"/>
<path d="M81.8199 162.631C84.6868 162.631 87.0109 160.307 87.0109 157.44C87.0109 154.573 84.6868 152.249 81.8199 152.249C78.953 152.249 76.6289 154.573 76.6289 157.44C76.6289 160.307 78.953 162.631 81.8199 162.631Z" fill="white"/>
<path d="M81.8199 181.166C84.6868 181.166 87.0109 178.842 87.0109 175.975C87.0109 173.108 84.6868 170.784 81.8199 170.784C78.953 170.784 76.6289 173.108 76.6289 175.975C76.6289 178.842 78.953 181.166 81.8199 181.166Z" fill="white"/>
<path d="M81.8199 199.7C84.6868 199.7 87.0109 197.376 87.0109 194.509C87.0109 191.642 84.6868 189.318 81.8199 189.318C78.953 189.318 76.6289 191.642 76.6289 194.509C76.6289 197.376 78.953 199.7 81.8199 199.7Z" fill="white"/>
<path d="M81.8199 218.234C84.6868 218.234 87.0109 215.91 87.0109 213.043C87.0109 210.176 84.6868 207.852 81.8199 207.852C78.953 207.852 76.6289 210.176 76.6289 213.043C76.6289 215.91 78.953 218.234 81.8199 218.234Z" fill="white"/>
<path d="M250.565 26.8572C250.565 29.7812 248.195 32.1512 245.271 32.1512C242.347 32.1512 239.977 29.7812 239.977 26.8572C239.977 23.9332 242.347 21.5632 245.271 21.5632C248.194 21.5632 250.565 23.9332 250.565 26.8572Z" fill="#B83D5D"/>
<path d="M237.478 26.7512C237.478 29.6972 235.09 32.0852 232.144 32.0852C229.198 32.0852 226.81 29.6972 226.81 26.7512C226.81 23.8052 229.198 21.4172 232.144 21.4172C235.09 21.4162 237.478 23.8042 237.478 26.7512Z" fill="white"/>
<path d="M303.503 48.8923H284.821V54.1263H303.503V48.8923Z" fill="#47547C"/>
<path d="M341.974 39.5723H284.821V44.8063H341.974V39.5723Z" fill="#64648E"/>
<path d="M317.841 55.1233V57.1233" stroke="#00D563" stroke-miterlimit="10"/>
<path d="M317.841 60.4993V72.3163" stroke="#00D563" stroke-miterlimit="10" stroke-dasharray="3.38 3.38"/>
<path d="M317.841 74.0044V76.0044H319.841" stroke="#00D563" stroke-miterlimit="10"/>
<path d="M323.65 76.0044H382.691" stroke="#00D563" stroke-miterlimit="10" stroke-dasharray="3.81 3.81"/>
<path d="M384.595 76.0044H386.595V74.0044" stroke="#00D563" stroke-miterlimit="10"/>
<path d="M386.595 69.9473V63.8623" stroke="#00D563" stroke-miterlimit="10" stroke-dasharray="4.06 4.06"/>
<path d="M386.595 61.8333V59.8333" stroke="#00D563" stroke-miterlimit="10"/>
<path d="M292.542 25.6188C295.066 25.6188 297.056 24.6975 298.328 23.0391L295.582 20.5883C294.826 21.5465 293.924 22.0993 292.763 22.0993C290.957 22.0993 289.741 20.8463 289.741 18.8746C289.741 16.903 290.957 15.65 292.763 15.65C293.924 15.65 294.826 16.2028 295.582 17.1609L298.328 14.7102C297.056 13.0518 295.066 12.1305 292.542 12.1305C288.396 12.1305 285.355 14.9129 285.355 18.8746C285.355 22.8364 288.396 25.6188 292.542 25.6188ZM304.213 25.6188C308.211 25.6188 310.22 23.6287 310.22 21.2701C310.22 16.516 303.089 17.8059 303.089 16.258C303.089 15.8158 303.494 15.4473 304.765 15.4473C305.889 15.4473 307.087 15.7605 308.359 16.4055L309.667 13.2545C308.322 12.499 306.534 12.1305 304.802 12.1305C300.804 12.1305 298.795 14.0837 298.795 16.4792C298.795 21.2885 305.926 19.9802 305.926 21.6018C305.926 22.044 305.484 22.302 304.249 22.302C302.831 22.302 301.209 21.8413 299.993 21.1227L298.592 24.2921C299.882 25.0844 302.057 25.6188 304.213 25.6188ZM316.323 25.6188C320.322 25.6188 322.33 23.6287 322.33 21.2701C322.33 16.516 315.199 17.8059 315.199 16.258C315.199 15.8158 315.604 15.4473 316.876 15.4473C318 15.4473 319.198 15.7605 320.469 16.4055L321.777 13.2545C320.432 12.499 318.645 12.1305 316.913 12.1305C312.914 12.1305 310.906 14.0837 310.906 16.4792C310.906 21.2885 318.037 19.9802 318.037 21.6018C318.037 22.044 317.595 22.302 316.36 22.302C314.941 22.302 313.32 21.8413 312.103 21.1227L310.703 24.2921C311.993 25.0844 314.167 25.6188 316.323 25.6188Z" fill="white"/>
<path d="M401.746 38.5162C401.552 37.8362 401.302 37.1632 401.011 36.5042C400.179 34.6452 399.034 33.0222 397.661 31.6762C396.357 30.4002 394.845 29.3662 393.214 28.6172C393.186 28.5962 393.152 28.5822 393.124 28.5752C390.821 27.5272 388.282 27.0352 385.715 27.1742C383.96 27.2712 382.191 27.6672 380.485 28.3812C380.381 28.4302 380.27 28.4712 380.166 28.5202C377.107 29.8872 374.693 32.1062 373.09 34.7842C371.092 38.1002 370.336 42.1022 371.12 46.0152C371.342 47.1462 371.696 48.2622 372.181 49.3582C375.726 57.3082 385.077 60.8872 393.019 57.3422C397.868 55.1782 401.094 50.8632 402.065 46.0142C402.557 43.5802 402.474 41.0132 401.746 38.5162ZM391.056 52.9312C385.541 55.3872 379.055 52.9032 376.6 47.3882C376.399 46.9372 376.232 46.4792 376.094 46.0152C375.241 43.1292 375.65 40.0842 377.058 37.5802C377.065 37.5592 377.079 37.5312 377.093 37.5112C378.203 35.5552 379.923 33.9182 382.136 32.9332C382.552 32.7532 382.968 32.5932 383.399 32.4682C383.441 32.4472 383.482 32.4332 383.531 32.4262C385.723 31.7812 387.991 31.8642 390.059 32.5512C390.066 32.5512 390.073 32.5582 390.08 32.5582C391.849 33.1542 393.465 34.2022 394.741 35.6172C395.49 36.4422 396.115 37.4002 396.593 38.4752C396.891 39.1412 397.113 39.8212 397.273 40.5012C397.696 42.3602 397.613 44.2542 397.093 46.0162C396.224 48.9912 394.101 51.5712 391.056 52.9312Z" fill="#64648E"/>
<path d="M402.065 46.0152H397.091C397.611 44.2532 397.694 42.3592 397.271 40.5002C397.111 39.8202 396.889 39.1402 396.591 38.4742C396.112 37.3992 395.488 36.4412 394.739 35.6162C393.463 34.2012 391.846 33.1532 390.078 32.5572C390.071 32.5572 390.064 32.5502 390.057 32.5502C387.99 31.8632 385.721 31.7802 383.529 32.4252C383.481 32.4322 383.439 32.4462 383.397 32.4672C382.967 32.5922 382.551 32.7512 382.134 32.9322C379.921 33.9172 378.201 35.5542 377.091 37.5102C377.077 37.5312 377.063 37.5592 377.056 37.5792C375.648 40.0832 375.238 43.1282 376.092 46.0142H371.118C370.334 42.1012 371.09 38.0992 373.088 34.7832C374.69 32.1052 377.105 29.8862 380.164 28.5192C380.268 28.4702 380.379 28.4292 380.483 28.3802C382.19 27.6662 383.958 27.2702 385.713 27.1732C388.28 27.0342 390.818 27.5272 393.122 28.5742C393.15 28.5812 393.184 28.5952 393.212 28.6162C394.842 29.3652 396.354 30.3992 397.659 31.6752C399.033 33.0212 400.177 34.6442 401.009 36.5032C401.3 37.1622 401.55 37.8352 401.744 38.5152C402.474 41.0132 402.557 43.5802 402.065 46.0152Z" fill="#B83D5D"/>
<path d="M341.975 48.8923H307.247V54.1263H341.975V48.8923Z" fill="#64648E"/>
<path d="M23.6038 20.7456V18.2366C23.6038 17.0746 24.2377 16.4143 25.479 16.4143H25.7431V11.9246H23.7887C19.6951 11.9246 17.6351 13.9846 17.6351 17.5499V20.8776C17.6351 21.67 17.1597 22.0397 16.4995 22.0397H15.6279V26.5294H16.4995C17.1597 26.5294 17.6351 26.8992 17.6351 27.6915V31.0192C17.6351 34.5846 19.6951 36.6446 23.7887 36.6446H25.7431V32.1548H25.479C24.2377 32.1548 23.6038 31.4946 23.6038 30.3325V27.8236C23.6038 25.7107 22.9436 24.7335 21.4646 24.2846C22.9436 23.8356 23.6038 22.8584 23.6038 20.7456ZM43.4454 22.0397C42.7851 22.0397 42.3097 21.67 42.3097 20.8776V17.5499C42.3097 13.9846 40.2497 11.9246 36.1561 11.9246H34.2018V16.4143H34.4659C35.7072 16.4143 36.341 17.0746 36.341 18.2366V20.7456C36.341 22.8584 37.0013 23.8356 38.4803 24.2846C37.0013 24.7335 36.341 25.7107 36.341 27.8236V30.3325C36.341 31.4946 35.7072 32.1548 34.4659 32.1548H34.2018V36.6446H36.1561C40.2497 36.6446 42.3097 34.5846 42.3097 31.0192V27.6915C42.3097 26.8992 42.7851 26.5294 43.4454 26.5294H44.3169V22.0397H43.4454Z" fill="#323247"/>
<path d="M34.833 62.5061H14.293V72.3081H34.833V62.5061Z" fill="white"/>
<path d="M34.833 79.6301H14.293V89.4321H34.833V79.6301Z" fill="white"/>
<path d="M34.833 96.7551H14.293V106.557H34.833V96.7551Z" fill="#0CA653"/>
<path d="M34.833 113.88H14.293V123.682H34.833V113.88Z" fill="#0CA653"/>
<path d="M34.833 131.005H14.293V140.807H34.833V131.005Z" fill="#0CA653"/>
<path d="M34.833 148.13H14.293V157.932H34.833V148.13Z" fill="#0CA653"/>
<path d="M34.833 165.254H14.293V175.056H34.833V165.254Z" fill="#0CA653"/>
<path d="M615.27 255.248C615.27 255.177 615.279 255.115 615.279 255.043C615.279 254.972 615.27 254.91 615.27 254.847C616.293 254.375 617.326 253.833 618.34 253.174C619.425 252.426 620.529 251.563 621.553 250.575L621.33 249.703C621.116 248.715 620.734 247.763 620.387 246.811C620.191 246.348 619.96 245.894 619.737 245.441C619.532 244.969 619.283 244.533 619.007 244.106L618.544 243.341C617.147 243.35 615.732 243.528 614.441 243.768C613.275 244.008 612.145 244.355 611.095 244.756L610.81 244.471C611.202 243.412 611.558 242.29 611.789 241.125C612.038 239.835 612.216 238.419 612.225 237.022L611.46 236.559C611.033 236.283 610.588 236.034 610.125 235.829C609.671 235.606 609.217 235.375 608.745 235.179C607.793 234.832 606.85 234.449 605.862 234.236L604.99 234.013C604.002 235.036 603.139 236.131 602.391 237.226C601.733 238.232 601.19 239.264 600.718 240.296C600.656 240.296 600.585 240.278 600.522 240.278C600.451 240.278 600.388 240.296 600.317 240.296C599.854 239.264 599.302 238.231 598.643 237.226C597.905 236.131 597.033 235.037 596.054 234.013L595.182 234.236C594.185 234.449 593.242 234.832 592.29 235.179C591.827 235.375 591.373 235.606 590.91 235.829C590.447 236.034 590.011 236.283 589.575 236.559L588.81 237.022C588.828 238.419 589.006 239.834 589.246 241.125C589.486 242.291 589.833 243.412 590.234 244.471C590.136 244.569 590.038 244.658 589.949 244.756C588.889 244.355 587.768 244.009 586.603 243.768C585.313 243.528 583.889 243.35 582.5 243.341L582.028 244.106C581.761 244.533 581.512 244.969 581.298 245.441C581.085 245.895 580.853 246.349 580.657 246.811C580.301 247.763 579.928 248.716 579.714 249.703L579.492 250.575C580.515 251.563 581.61 252.426 582.705 253.174C583.71 253.832 584.743 254.375 585.766 254.847C585.766 254.909 585.757 254.972 585.757 255.043C585.757 255.114 585.766 255.177 585.766 255.248C584.743 255.711 583.71 256.263 582.705 256.921C581.61 257.66 580.516 258.532 579.492 259.511L579.714 260.383C579.928 261.371 580.301 262.323 580.657 263.275C580.853 263.738 581.085 264.192 581.298 264.654C581.511 265.117 581.761 265.553 582.028 265.98L582.5 266.745C583.888 266.736 585.312 266.558 586.603 266.318C587.769 266.078 588.89 265.731 589.949 265.33C590.038 265.428 590.136 265.526 590.234 265.615C589.833 266.674 589.486 267.795 589.246 268.961C589.006 270.251 588.828 271.675 588.81 273.064L589.575 273.536C590.011 273.803 590.447 274.052 590.91 274.257C591.373 274.48 591.827 274.711 592.29 274.907C593.242 275.263 594.185 275.637 595.182 275.85L596.054 276.073C597.033 275.049 597.905 273.955 598.643 272.86C599.302 271.855 599.854 270.822 600.317 269.79C600.388 269.799 600.45 269.808 600.522 269.808C600.584 269.808 600.655 269.799 600.718 269.79C601.19 270.822 601.733 271.855 602.391 272.86C603.139 273.955 604.002 275.049 604.99 276.073L605.862 275.85C606.85 275.636 607.793 275.263 608.745 274.907C609.217 274.711 609.671 274.48 610.125 274.257C610.588 274.052 611.033 273.803 611.46 273.536L612.225 273.064C612.216 271.676 612.038 270.252 611.789 268.961C611.557 267.795 611.201 266.674 610.81 265.615C610.908 265.526 610.997 265.428 611.095 265.33C612.145 265.73 613.275 266.078 614.441 266.318C615.732 266.558 617.147 266.736 618.544 266.745L619.007 265.98C619.283 265.553 619.532 265.117 619.737 264.654C619.959 264.191 620.191 263.737 620.387 263.275C620.734 262.323 621.117 261.371 621.33 260.383L621.553 259.511C620.53 258.532 619.426 257.66 618.34 256.921C617.326 256.263 616.294 255.711 615.27 255.248ZM600.524 262.101C596.626 262.101 593.467 258.942 593.467 255.044C593.467 251.146 596.627 247.987 600.524 247.987C604.422 247.987 607.581 251.146 607.581 255.044C607.581 258.942 604.422 262.101 600.524 262.101Z" fill="#323247"/>
<path d="M550.418 229.04H541.1V271.008H550.418V229.04Z" fill="#B83D5D"/>
<path d="M537.343 247.531H527.355V271.007H537.343V247.531Z" fill="#64648E"/>
<path d="M523.507 255.044H513.519V271.008H523.507V255.044Z" fill="#00D563"/>
<path d="M511.752 264.322H509.752" stroke="#00D563" stroke-miterlimit="10"/>
<path d="M504.681 264.322H497.075" stroke="#00D563" stroke-miterlimit="10" stroke-dasharray="5.07 5.07"/>
<path d="M494.539 264.322H492.539V266.322" stroke="#00D563" stroke-miterlimit="10"/>
<path d="M492.539 270.063V298.116" stroke="#00D563" stroke-miterlimit="10" stroke-dasharray="3.74 3.74"/>
<path d="M492.539 299.987V301.987H494.539" stroke="#00D563" stroke-miterlimit="10"/>
<path d="M497.935 301.987H509.821" stroke="#00D563" stroke-miterlimit="10" stroke-dasharray="3.4 3.4"/>
<path d="M511.519 301.987H513.519" stroke="#00D563" stroke-miterlimit="10"/>
<path d="M543.112 300.122H516.683V304.845H543.112V300.122Z" fill="white"/>
<path d="M534.963 308.861H516.683V313.584H534.963V308.861Z" fill="white"/>
<path d="M539.821 317.6H516.683V322.323H539.821V317.6Z" fill="white"/>
<path d="M550.01 317.6H544.608V322.323H550.01V317.6Z" fill="#0CA653"/>
<path d="M574.835 317.6H554.962V322.323H574.835V317.6Z" fill="#0CA653"/>
<path d="M574.835 308.861H540.821V313.584H574.835V308.861Z" fill="#0CA653"/>
<path d="M574.835 300.122H548.406V304.845H574.835V300.122Z" fill="#0CA653"/>
<path d="M665.472 252.483H648.057V260.794H665.472V252.483Z" fill="#B83D5D"/>
<path d="M665.472 267.003H648.057V275.314H665.472V267.003Z" fill="#B83D5D"/>
<path d="M665.472 281.522H648.057V289.833H665.472V281.522Z" fill="#B83D5D"/>
<path d="M665.472 296.041H648.057V304.352H665.472V296.041Z" fill="#B83D5D"/>
<path d="M665.472 310.56H648.057V318.871H665.472V310.56Z" fill="white"/>
<path d="M665.472 325.079H648.057V333.39H665.472V325.079Z" fill="white"/>
<path d="M665.472 339.599H648.057V347.91H665.472V339.599Z" fill="white"/>
<path d="M589.545 371.724C583.036 372.214 577.588 370.667 573.035 367.842C554.665 356.474 550.832 324.412 550.568 322.004C550.729 322.743 552.54 326.663 571.634 339.509C573.223 340.581 574.678 341.668 576.006 342.767C576.006 342.767 576.029 342.786 576.075 342.82C592.715 356.6 589.545 371.724 589.545 371.724Z" fill="#0C8068"/>
<path d="M550.555 321.862C550.555 321.862 567.709 363.956 586.738 368.387" stroke="#0A6D53" stroke-miterlimit="10"/>
<path opacity="0.5" d="M589.545 371.725C583.036 372.215 577.588 370.668 573.035 367.843C576.692 359.19 576.006 342.769 576.006 342.769C576.006 342.769 576.029 342.788 576.075 342.822C592.715 356.601 589.545 371.725 589.545 371.725Z" fill="#0A6D53"/>
<path d="M638.305 324.346C638.232 324.794 637.976 326.348 637.463 328.638C637.463 328.638 637.463 328.642 637.463 328.646C634.752 340.783 624.97 373.443 598.651 370.169C598.651 370.169 598.207 367.366 599.095 363.174C600.397 357.01 604.582 347.832 617.312 340.136C636.202 328.711 638.113 325.043 638.305 324.346Z" fill="#0C8068"/>
<path d="M637.462 326.939C637.462 326.939 623.955 361.935 600.524 369.072" stroke="#0A6D53" stroke-miterlimit="10"/>
<path opacity="0.5" d="M637.462 328.638C637.462 328.638 637.462 328.642 637.462 328.646C634.751 340.783 624.969 373.443 598.65 370.169C598.65 370.169 598.206 367.366 599.094 363.174H599.121C621.018 364.345 637.462 328.638 637.462 328.638Z" fill="#0A6D53"/>
<path d="M597.237 371.337C596.586 372.467 586.976 368.473 582.646 356.918H582.642C580.042 349.976 579.349 340.305 583.645 327.383C594.932 293.445 590.28 287.047 590.142 286.867C590.368 286.974 600.177 291.845 606.502 303.695C606.502 303.695 606.51 303.71 606.529 303.741C613.486 316.811 616.201 338.352 597.237 371.337Z" fill="#159A7A"/>
<path d="M590.137 286.862C590.137 286.862 604.855 305.432 599.251 340.755C593.646 376.077 597.237 371.336 597.237 371.336" stroke="#0C8068" stroke-miterlimit="10"/>
<path opacity="0.5" d="M597.237 371.337C596.586 372.467 586.976 368.473 582.646 356.918C606.878 363.802 606.503 303.694 606.503 303.694C606.503 303.694 606.511 303.709 606.53 303.74C613.486 316.811 616.201 338.352 597.237 371.337Z" fill="#0C8068"/>
<path d="M550.553 321.862C550.553 321.862 550.557 321.9 550.565 321.981C550.545 321.896 550.553 321.862 550.553 321.862Z" fill="#0C8068"/>
<path d="M615.864 370.831V397.958C615.864 405.895 609.432 412.327 601.495 412.327H588.738C583.542 412.327 578.99 409.57 576.467 405.435H576.463C575.134 403.256 574.369 400.695 574.369 397.957V370.83H615.864V370.831Z" fill="#0CA653"/>
<path d="M617.372 367.312H572.861C572.276 367.312 571.802 367.786 571.802 368.371V369.772C571.802 370.357 572.276 370.831 572.861 370.831H617.372C617.957 370.831 618.431 370.357 618.431 369.772V368.371C618.431 367.787 617.957 367.312 617.372 367.312Z" fill="#0CA653"/>
<path d="M615.864 370.831V397.958C615.864 405.895 609.432 412.327 601.495 412.327H588.738C583.542 412.327 578.99 409.57 576.467 405.435C606.86 414.98 613.461 392.632 612.285 383.768C611.113 374.905 600.163 370.831 600.163 370.831H615.864Z" fill="#00D563"/>
</svg>
