<?xml version="1.0" encoding="utf-8"?>
<!-- Generator: Adobe Illustrator 26.4.1, SVG Export Plug-In . SVG Version: 6.00 Build 0)  -->
<svg version="1.1" id="Layer_1" xmlns="http://www.w3.org/2000/svg" xmlns:xlink="http://www.w3.org/1999/xlink" x="0px" y="0px"
	 viewBox="0 0 179.7 46.3" style="enable-background:new 0 0 179.7 46.3;" xml:space="preserve">
<style type="text/css">
	.st0{fill:#14151E;}
	.st1{fill:none;}
</style>
<path class="st0" d="M44.6,5.9L44.6,5.9c0-2.2,1.8-4,4-4h0c2.2,0,4,1.8,4,4v0c0,2.2-1.8,4-4,4h0C46.4,9.9,44.6,8.1,44.6,5.9z"/>
<path class="st0" d="M87.2,5.9L87.2,5.9c0-2.2,1.8-4,4-4h0c2.2,0,4,1.8,4,4v0c0,2.2-1.8,4-4,4h0C89,9.9,87.2,8.1,87.2,5.9z"/>
<path class="st0" d="M27.7,43.4c-1.9,0.8-3.9,1.2-5.8,1.2c-3.1,0-5.9-0.5-8.3-1.6c-2.5-1.1-4.5-2.5-6.2-4.4c-1.7-1.9-3-4.1-3.9-6.6
	C2.5,29.4,2,26.6,2,23.7c0-3,0.5-5.8,1.4-8.4c0.9-2.6,2.2-4.8,3.9-6.7s3.8-3.4,6.2-4.5C16,3,18.8,2.4,21.9,2.4c2.1,0,4.1,0.3,6,0.9
	c1.9,0.6,3.7,1.5,5.2,2.7c1.6,1.2,2.9,2.7,3.9,4.5c1,1.8,1.6,3.8,1.9,6.1h-8.5c-0.5-2.3-1.5-4-3-5.1c-1.5-1.1-3.3-1.7-5.5-1.7
	c-2,0-3.7,0.4-5.1,1.2c-1.4,0.8-2.5,1.8-3.4,3.1c-0.9,1.3-1.5,2.8-1.9,4.4c-0.4,1.7-0.6,3.4-0.6,5.1c0,1.7,0.2,3.3,0.6,4.9
	c0.4,1.6,1,3,1.9,4.3c0.9,1.3,2,2.3,3.4,3.1c1.4,0.8,3.1,1.2,5.1,1.2c2.9,0,5.2-0.7,6.8-2.2c1.6-1.5,2.5-3.6,2.8-6.5h-8.9v-6.6h16.9
	v21.8h-5.6l-0.9-4.6C31.3,41.1,29.6,42.6,27.7,43.4z"/>
<rect x="44.6" y="14.5" class="st0" width="8" height="29.2"/>
<path class="st0" d="M71.4,14.5v5.4h-5.9v14.4c0,1.4,0.2,2.3,0.7,2.7c0.5,0.5,1.4,0.7,2.7,0.7c0.5,0,0.9,0,1.3-0.1
	c0.4,0,0.8-0.1,1.2-0.2v6.2c-0.7,0.1-1.4,0.2-2.3,0.2c-0.8,0-1.6,0.1-2.4,0.1c-1.2,0-2.4-0.1-3.5-0.3c-1.1-0.2-2.1-0.5-2.9-1
	c-0.8-0.5-1.5-1.2-2-2.1c-0.5-0.9-0.7-2.1-0.7-3.6V5.7h8v8.7H71.4z"/>
<path class="st0" d="M82.1,3.4v40.3h-8V3.4H82.1z"/>
<rect x="87.2" y="14.5" class="st0" width="8" height="29.2"/>
<path class="st0" d="M107.9,14.5v4h0.1c1.1-1.5,2.3-2.7,3.8-3.5c1.5-0.8,3.2-1.2,5.1-1.2c1.8,0,3.5,0.4,5.1,1.1
	c1.5,0.7,2.7,2,3.5,3.8c0.9-1.3,2-2.4,3.5-3.4c1.5-1,3.2-1.5,5.3-1.5c1.5,0,3,0.2,4.3,0.6c1.3,0.4,2.4,1,3.4,1.8
	c0.9,0.8,1.7,1.9,2.2,3.2c0.5,1.3,0.8,2.9,0.8,4.8v19.5h-8V27.1c0-1,0-1.9-0.1-2.8c-0.1-0.9-0.3-1.6-0.6-2.3
	c-0.3-0.6-0.8-1.1-1.5-1.5c-0.7-0.4-1.6-0.6-2.7-0.6c-1.1,0-2,0.2-2.7,0.6c-0.7,0.4-1.2,1-1.6,1.7c-0.4,0.7-0.7,1.5-0.8,2.4
	c-0.1,0.9-0.2,1.8-0.2,2.7v16.3h-8V27.3c0-0.9,0-1.7-0.1-2.6c0-0.8-0.2-1.6-0.5-2.3c-0.3-0.7-0.8-1.3-1.4-1.7
	c-0.7-0.4-1.6-0.6-2.9-0.6c-0.4,0-0.9,0.1-1.5,0.3c-0.6,0.2-1.2,0.5-1.8,1c-0.6,0.5-1.1,1.1-1.5,2c-0.4,0.9-0.6,2-0.6,3.5v16.9h-8
	V14.5H107.9z"/>
<path class="st0" d="M158.5,36.7c1.2,1.2,2.9,1.7,5.2,1.7c1.6,0,3-0.4,4.2-1.2c1.2-0.8,1.9-1.7,2.1-2.6h7.1c-1.1,3.5-2.9,6-5.2,7.5
	c-2.3,1.5-5.2,2.3-8.5,2.3c-2.3,0-4.4-0.4-6.2-1.1c-1.8-0.7-3.4-1.8-4.7-3.1c-1.3-1.4-2.3-3-3-4.9c-0.7-1.9-1-4-1-6.2
	c0-2.2,0.4-4.2,1.1-6.1c0.7-1.9,1.7-3.5,3-4.9c1.3-1.4,2.9-2.5,4.7-3.2c1.8-0.8,3.8-1.2,6.1-1.2c2.5,0,4.6,0.5,6.5,1.4
	c1.8,1,3.4,2.2,4.5,3.9c1.2,1.6,2,3.5,2.6,5.5c0.5,2.1,0.7,4.2,0.6,6.5h-21.1C156.6,33.6,157.3,35.5,158.5,36.7z M167.5,21.3
	c-1-1.1-2.4-1.6-4.4-1.6c-1.3,0-2.3,0.2-3.2,0.6c-0.8,0.4-1.5,1-2,1.6c-0.5,0.6-0.9,1.3-1.1,2c-0.2,0.7-0.3,1.4-0.4,1.9h13
	C169.1,23.9,168.5,22.4,167.5,21.3z"/>
<rect class="st1" width="179.7" height="46.3"/>
</svg>
