<?xml version="1.0" encoding="UTF-8"?>
<svg width="578px" height="578px" viewBox="0 0 578 578" version="1.1" xmlns="http://www.w3.org/2000/svg" xmlns:xlink="http://www.w3.org/1999/xlink">
    <g id="main" stroke-width="1" fill-rule="evenodd">
        <g id="Group" transform="translate(0.442959, 0.442959)">
            <path d="M224.943037,553.505653 L18.1172251,323.802317 C-7.75131893,295.072389 -5.43170831,250.811581 23.2982205,224.943037 L253.001556,18.1172251 C281.731485,-7.75131893 325.992292,-5.43170831 351.860836,23.2982205 L558.686648,253.001556 C584.555192,281.731485 582.235582,325.992292 553.505653,351.860836 L323.802317,558.686648 C295.072389,584.555192 250.811581,582.235582 224.943037,553.505653 Z M225.057623,551.31922 C250.926167,580.049149 295.186975,582.36876 323.916904,556.500216 L551.31922,351.74625 C580.049149,325.877706 582.36876,281.616899 556.500216,252.88697 L351.74625,25.4846531 C325.877706,-3.24527565 281.616899,-5.56488627 252.88697,20.3036578 L25.4846531,225.057623 C-3.24527565,250.926167 -5.56488627,295.186975 20.3036578,323.916904 L225.057623,551.31922 Z" id="Combined-Shape"></path>
            <path d="M242.387772,511.399445 L80.191986,331.262776 C54.3234419,302.532847 56.6430526,258.272039 85.3729813,232.403495 L265.509651,70.2077093 C294.23958,44.3391652 338.500387,46.6587758 364.368931,75.3887046 L526.564717,255.525374 C552.433262,284.255303 550.113651,328.516111 521.383722,354.384655 L341.247052,516.580441 C312.517124,542.448985 268.256316,540.129374 242.387772,511.399445 Z M242.476508,509.706269 C268.345052,538.436198 312.605859,540.755809 341.335788,514.887265 L519.690546,354.295919 C548.420475,328.427375 550.740085,284.166568 524.871541,255.436639 L364.280196,77.0818807 C338.411652,48.351952 294.150844,46.0323413 265.420916,71.9008854 L87.0661575,232.492231 C58.3362287,258.360775 56.0166181,302.621582 81.8851621,331.351511 L242.476508,509.706269 Z" id="Combined-Shape"></path>
            <path d="M215.096119,140.135427 L421.613415,140.135427 C449.227652,140.135427 471.613415,162.52119 471.613415,190.135427 L471.613415,396.652723 C471.613415,424.26696 449.227652,446.652723 421.613415,446.652723 L215.096119,446.652723 C187.481882,446.652723 165.096119,424.26696 165.096119,396.652723 L165.096119,190.135427 C165.096119,162.52119 187.481882,140.135427 215.096119,140.135427 Z" id="Rectangle" transform="translate(318.354767, 293.394075) rotate(-132.000000) translate(-318.354767, -293.394075) "></path>
        </g>
    </g>
</svg>