<?xml version="1.0" encoding="UTF-8"?><svg id="Layer_2" xmlns="http://www.w3.org/2000/svg" viewBox="0 0 179.73 46.29"><defs><style>.cls-1{fill:none;}.cls-2{fill:#00d563;}.cls-3{fill:#14151e;}</style></defs><g id="Layer_1-2"><g><rect class="cls-3" x="44.6" y="1.89" width="8.02" height="8.02" rx="4.01" ry="4.01"/><rect class="cls-2" x="87.23" y="1.89" width="8.02" height="8.02" rx="4.01" ry="4.01"/><g><path class="cls-3" d="M27.67,43.36c-1.92,.81-3.86,1.21-5.81,1.21-3.09,0-5.86-.54-8.33-1.61-2.47-1.07-4.54-2.55-6.24-4.43-1.69-1.88-2.99-4.09-3.89-6.63-.9-2.54-1.35-5.28-1.35-8.21s.45-5.8,1.35-8.38c.9-2.58,2.2-4.83,3.89-6.75s3.77-3.42,6.24-4.52c2.46-1.09,5.24-1.64,8.33-1.64,2.07,0,4.07,.31,6.01,.93,1.94,.62,3.69,1.53,5.25,2.74,1.56,1.2,2.85,2.69,3.87,4.46,1.02,1.77,1.64,3.8,1.86,6.1h-8.47c-.53-2.26-1.54-3.95-3.05-5.08-1.51-1.13-3.33-1.69-5.47-1.69-2,0-3.69,.39-5.08,1.16-1.39,.77-2.52,1.81-3.39,3.1-.87,1.3-1.5,2.78-1.89,4.43-.4,1.66-.59,3.37-.59,5.14s.2,3.34,.59,4.94c.4,1.6,1.03,3.04,1.89,4.32,.87,1.28,1.99,2.31,3.39,3.08,1.39,.77,3.08,1.16,5.08,1.16,2.94,0,5.2-.74,6.8-2.23,1.6-1.49,2.53-3.64,2.79-6.46h-8.92v-6.6h16.93v21.79h-5.65l-.9-4.57c-1.58,2.03-3.33,3.45-5.25,4.26Z"/><rect class="cls-3" x="44.6" y="14.49" width="8.02" height="29.18"/><path class="cls-3" d="M71.42,14.49v5.36h-5.87v14.45c0,1.35,.23,2.26,.68,2.71,.45,.45,1.35,.68,2.71,.68,.45,0,.88-.02,1.3-.06,.41-.04,.81-.09,1.19-.17v6.21c-.68,.11-1.43,.19-2.26,.23-.83,.04-1.64,.06-2.43,.06-1.24,0-2.42-.08-3.53-.25-1.11-.17-2.09-.5-2.94-.99-.85-.49-1.51-1.19-2-2.09-.49-.9-.73-2.09-.73-3.56V5.74h8.02V14.49h5.87Z"/><path class="cls-2" d="M82.09,3.37V43.67h-8.02V3.37h8.02Z"/><rect class="cls-2" x="87.23" y="14.49" width="8.02" height="29.18"/><path class="cls-2" d="M107.94,14.49v3.95h.11c1.05-1.5,2.32-2.67,3.81-3.5,1.49-.83,3.19-1.24,5.11-1.24s3.53,.36,5.05,1.07c1.52,.72,2.68,1.98,3.47,3.78,.87-1.28,2.04-2.41,3.53-3.39,1.49-.98,3.25-1.47,5.28-1.47,1.54,0,2.97,.19,4.29,.56,1.32,.38,2.44,.98,3.39,1.81,.94,.83,1.67,1.91,2.2,3.25,.53,1.34,.79,2.95,.79,4.83v19.53h-8.02V27.14c0-.98-.04-1.9-.11-2.77-.08-.86-.28-1.62-.62-2.26-.34-.64-.84-1.15-1.5-1.52-.66-.38-1.55-.56-2.68-.56s-2.04,.22-2.74,.65c-.7,.43-1.24,1-1.64,1.69-.4,.7-.66,1.49-.79,2.37-.13,.88-.2,1.78-.2,2.68v16.26h-8.02V27.31c0-.87-.02-1.72-.06-2.57-.04-.85-.2-1.63-.48-2.34-.28-.71-.75-1.29-1.41-1.72-.66-.43-1.63-.65-2.91-.65-.38,0-.87,.08-1.5,.25-.62,.17-1.22,.49-1.81,.96-.58,.47-1.08,1.15-1.5,2.03-.41,.88-.62,2.04-.62,3.47v16.93h-8.02V14.49h7.56Z"/><path class="cls-2" d="M158.46,36.68c1.2,1.17,2.94,1.75,5.19,1.75,1.62,0,3.01-.4,4.18-1.21,1.17-.81,1.88-1.67,2.15-2.57h7.06c-1.13,3.5-2.86,6-5.19,7.51-2.33,1.51-5.16,2.26-8.47,2.26-2.3,0-4.37-.37-6.21-1.1-1.84-.73-3.41-1.78-4.69-3.13-1.28-1.35-2.27-2.97-2.96-4.85-.7-1.88-1.04-3.95-1.04-6.21s.36-4.21,1.07-6.1c.71-1.88,1.73-3.51,3.05-4.88,1.32-1.37,2.89-2.46,4.71-3.25,1.82-.79,3.85-1.19,6.07-1.19,2.48,0,4.65,.48,6.49,1.44,1.84,.96,3.36,2.25,4.54,3.87,1.19,1.62,2.04,3.46,2.57,5.53,.53,2.07,.71,4.23,.56,6.49h-21.05c.11,2.6,.77,4.48,1.98,5.64Zm9.06-15.35c-.96-1.05-2.42-1.58-4.38-1.58-1.28,0-2.34,.22-3.19,.65-.85,.43-1.52,.97-2.03,1.61-.51,.64-.87,1.32-1.07,2.03-.21,.72-.33,1.35-.37,1.92h13.04c-.38-2.03-1.04-3.57-2-4.63Z"/></g></g><rect class="cls-1" width="179.73" height="46.29"/></g></svg>